SplineFontDB: 3.0
FontName: NewsCycle
FullName: News Cycle
FamilyName: News Cycle
Weight: Regular
Copyright: Created by Nathan Willis,,, with FontForge 2.0 (http://fontforge.sf.net)
UComments: "2010-6-30: Created." 

StartChar: a
Encoding: 97 97 0
AltUni2: 000430.ffffffff.0 000430.ffffffff.0 000430.ffffffff.0 000430.ffffffff.0 000430.ffffffff.0 000430.ffffffff.0 000430.ffffffff.0 000430.ffffffff.0 000430.ffffffff.0 000430.ffffffff.0 000430.ffffffff.0 000430.ffffffff.0 000430.ffffffff.0 000430.ffffffff.0 000430.ffffffff.0 000430.ffffffff.0 000430.ffffffff.0 000430.ffffffff.0 000430.ffffffff.0 000430.ffffffff.0 000430.ffffffff.0 000430.ffffffff.0 000430.ffffffff.0 000430.ffffffff.0 000430.ffffffff.0 000430.ffffffff.0 000430.ffffffff.0
Width: 928
VWidth: 0
GlyphClass: 1
Flags: HW
HStem: -11 112<252.488 530.877> 584 112<514.9 681> 954 112<313.077 612.423>
VStem: 72 132<147.423 399.291> 681 132<4.01209 170 223.344 584 688.928 882.062>
LayerCount: 2
Fore
SplineSet
72 265 m 3
 72 534 303 621 681 696 c 1
 681 847 649 954 463 954 c 3
 295 954 206 816 192 788 c 1
 97 851 l 1
 148 949 250 1066 478 1066 c 3
 652 1066 813 997 813 699 c 2
 813 150 l 2
 813 146 823 44 844 2 c 1
 711 2 l 1
 687 14 681 110 681 170 c 1
 672 162 563 -11 370 -11 c 3
 132 -11 72 156 72 265 c 3
204 269 m 3
 204 142 292 101 389 101 c 27
 520 101 645 225 681 267 c 1
 681 584 l 1
 455 526 204 483 204 269 c 3
EndSplineSet
EndChar

StartChar: d
Encoding: 100 100 1
Width: 984
VWidth: 0
GlyphClass: 1
Flags: HW
HStem: -11 112<336.969 617.091> 954 112<352.858 624.26> 1495 20G<741 873.015>
VStem: 75 132<265.028 770.201> 742 132<221.523 856.969 917 1515>
LayerCount: 2
Fore
SplineSet
75 510 m 3
 75 801 228 1066 471 1066 c 3
 610 1066 724 955 742 917 c 1
 742 1515 l 1
 874 1515 l 1
 874 146 l 2
 874 142 879 42 900 0 c 1
 767 0 l 1
 744 11 746 121 742 166 c 1
 715 119 630 -11 458 -11 c 3
 205 -11 75 257 75 510 c 3
207 510 m 3
 207 281 284 101 479 101 c 3
 611 101 671 181 742 278 c 1
 742 803 l 1
 686 883 606 954 505 954 c 3
 357 954 207 870 207 510 c 3
EndSplineSet
EndChar

StartChar: h
Encoding: 104 104 2
AltUni2: 0002b0.ffffffff.0 0002b0.ffffffff.0 0002b0.ffffffff.0 0002b0.ffffffff.0 0002b0.ffffffff.0 0002b0.ffffffff.0 0002b0.ffffffff.0 0002b0.ffffffff.0 0002b0.ffffffff.0 0002b0.ffffffff.0 0002b0.ffffffff.0 0002b0.ffffffff.0 0002b0.ffffffff.0 0002b0.ffffffff.0 0002b0.ffffffff.0 0002b0.ffffffff.0 0002b0.ffffffff.0 0002b0.ffffffff.0 0002b0.ffffffff.0 0002b0.ffffffff.0 0002b0.ffffffff.0 0002b0.ffffffff.0 0002b0.ffffffff.0 0002b0.ffffffff.0 0002b0.ffffffff.0 0002b0.ffffffff.0 0002b0.ffffffff.0
Width: 979
VWidth: 0
GlyphClass: 1
Flags: HW
HStem: 0 21G<129 261 737 869> 954 112<439.419 678.55> 1495 20G<129 261>
VStem: 129 132<0 824.632 882 1515> 737 132<0 892.583>
LayerCount: 2
Back
SplineSet
160 1515 m 5
 292 1515 l 5
 292 865 l 5
 252 842 l 5
 355 943 467 1066 637 1066 c 7
 779 1066 900 984 900 786 c 6
 900 0 l 5
 768 0 l 5
 768 786 l 6
 768 894 673 954 599 954 c 7
 480 954 370 866 292 781 c 5
 292 0 l 5
 160 0 l 5
 160 1515 l 5
EndSplineSet
Fore
SplineSet
129 0 m 5
 129 1515 l 5
 261 1515 l 5
 261 882 l 5
 354 972 458 1066 606 1066 c 7
 748 1066 869 984 869 786 c 6
 869 0 l 5
 737 0 l 5
 737 786 l 6
 737 894 642 954 568 954 c 7
 449 954 339 866 261 781 c 5
 261 0 l 5
 129 0 l 5
EndSplineSet
EndChar

StartChar: e
Encoding: 101 101 3
AltUni2: 000435.ffffffff.0 000435.ffffffff.0 000435.ffffffff.0 000435.ffffffff.0 000435.ffffffff.0 000435.ffffffff.0 000435.ffffffff.0 000435.ffffffff.0 000435.ffffffff.0 000435.ffffffff.0 000435.ffffffff.0 000435.ffffffff.0 000435.ffffffff.0 000435.ffffffff.0 000435.ffffffff.0 000435.ffffffff.0 000435.ffffffff.0 000435.ffffffff.0 000435.ffffffff.0 000435.ffffffff.0 000435.ffffffff.0 000435.ffffffff.0 000435.ffffffff.0 000435.ffffffff.0 000435.ffffffff.0 000435.ffffffff.0 000435.ffffffff.0
Width: 925
VWidth: 0
GlyphClass: 1
Flags: HW
HStem: -11 112<348.725 626.232> 513 112<213 709> 954 112<327.832 602.046>
VStem: 75 132<267.872 513 625 795.765> 709 132<625 813.461>
LayerCount: 2
Fore
SplineSet
75 502 m 7
 75 970 315 1066 475 1066 c 7
 621 1066 841 988 841 513 c 5
 207 513 l 5
 207 175 377 102 491 101 c 4
 645 101 732 255 753 292 c 5
 844 229 l 5
 805 156 677 -11 491 -11 c 7
 205 -11 75 240 75 502 c 7
213 625 m 5
 709 625 l 5
 707 740 665 954 475 954 c 7
 251 954 217 746 213 625 c 5
EndSplineSet
EndChar

StartChar: s
Encoding: 115 115 4
AltUni2: 000455.ffffffff.0 0002e2.ffffffff.0 000455.ffffffff.0 0002e2.ffffffff.0 000455.ffffffff.0 0002e2.ffffffff.0 000455.ffffffff.0 0002e2.ffffffff.0 000455.ffffffff.0 0002e2.ffffffff.0 000455.ffffffff.0 0002e2.ffffffff.0 000455.ffffffff.0 0002e2.ffffffff.0 000455.ffffffff.0 0002e2.ffffffff.0 000455.ffffffff.0 0002e2.ffffffff.0 000455.ffffffff.0 0002e2.ffffffff.0 000455.ffffffff.0 0002e2.ffffffff.0 000455.ffffffff.0 0002e2.ffffffff.0 000455.ffffffff.0 0002e2.ffffffff.0 000455.ffffffff.0 0002e2.ffffffff.0 0002e2.ffffffff.0 000455.ffffffff.0 0002e2.ffffffff.0 000455.ffffffff.0 0002e2.ffffffff.0 000455.ffffffff.0 0002e2.ffffffff.0 000455.ffffffff.0 0002e2.ffffffff.0 000455.ffffffff.0 0002e2.ffffffff.0 000455.ffffffff.0 0002e2.ffffffff.0 000455.ffffffff.0 0002e2.ffffffff.0 000455.ffffffff.0 0002e2.ffffffff.0 000455.ffffffff.0 0002e2.ffffffff.0 000455.ffffffff.0 0002e2.ffffffff.0 000455.ffffffff.0 0002e2.ffffffff.0 000455.ffffffff.0 0002e2.ffffffff.0 000455.ffffffff.0
Width: 878
VWidth: 0
GlyphClass: 1
Flags: HW
HStem: -11 112<292.396 601.907> 954 112<278.053 577.18>
VStem: 94 128<701.894 900.685> 666 132<162.103 389.503>
LayerCount: 2
Fore
SplineSet
80 200 m 1
 179 264 l 1
 247 159 326 101 456 101 c 3
 536 101 666 137 666 277 c 3
 666 416 528 462 416 488 c 0
 277 520 94 600 94 784 c 3
 94 959 237 1066 426 1066 c 7
 622 1066 724 940 752 898 c 5
 661 830 l 5
 589 904 560 954 418 954 c 7
 302 954 222 887 222 804 c 3
 222 690 332 646 460 608 c 0
 616 561 798 505 798 292 c 3
 798 110 636 -11 458 -11 c 27
 289 -11 172 52 80 200 c 1
EndSplineSet
EndChar

StartChar: o
Encoding: 111 111 6
AltUni2: 00043e.ffffffff.0 0003bf.ffffffff.0 00043e.ffffffff.0 0003bf.ffffffff.0 00043e.ffffffff.0 0003bf.ffffffff.0 00043e.ffffffff.0 0003bf.ffffffff.0 00043e.ffffffff.0 0003bf.ffffffff.0 00043e.ffffffff.0 0003bf.ffffffff.0 00043e.ffffffff.0 0003bf.ffffffff.0 00043e.ffffffff.0 0003bf.ffffffff.0 00043e.ffffffff.0 0003bf.ffffffff.0 00043e.ffffffff.0 0003bf.ffffffff.0 00043e.ffffffff.0 0003bf.ffffffff.0 00043e.ffffffff.0 0003bf.ffffffff.0 00043e.ffffffff.0 0003bf.ffffffff.0 00043e.ffffffff.0 0003bf.ffffffff.0 0003bf.ffffffff.0 00043e.ffffffff.0 0003bf.ffffffff.0 00043e.ffffffff.0 0003bf.ffffffff.0 00043e.ffffffff.0 0003bf.ffffffff.0 00043e.ffffffff.0 0003bf.ffffffff.0 00043e.ffffffff.0 0003bf.ffffffff.0 00043e.ffffffff.0 0003bf.ffffffff.0 00043e.ffffffff.0 0003bf.ffffffff.0 00043e.ffffffff.0 0003bf.ffffffff.0 00043e.ffffffff.0 0003bf.ffffffff.0 00043e.ffffffff.0 0003bf.ffffffff.0 00043e.ffffffff.0 0003bf.ffffffff.0 00043e.ffffffff.0 0003bf.ffffffff.0 00043e.ffffffff.0
Width: 972
VWidth: 0
GlyphClass: 1
Flags: HW
HStem: -12 112<340.54 632.792> 954 112<338.393 636.169>
VStem: 75 132<265.299 797.871> 765 132<263.319 799.209>
LayerCount: 2
Back
SplineSet
132 539 m 7
 132 843.026 263.972 1071 544 1071 c 3
 822.007 1071 954 844 954 539 c 7
 954 216.994 824.016 -16 544 -16 c 3
 263.642 -16 132 216.994 132 539 c 7
544 96 m 3
 774.002 96 822 324.99 822 539 c 7
 822 747.038 764 959 544 959 c 3
 317.991 959 264 747.087 264 539 c 7
 264 335 313.98 96 544 96 c 3
EndSplineSet
Fore
SplineSet
75 528 m 7
 75 854 223 1066 487 1066 c 31
 751 1066 897 851 897 527 c 7
 897 214 751 -12 487 -12 c 7
 221 -12 75 220 75 528 c 7
207 528 m 7
 207 332 261 100 487 100 c 7
 713 100 765 330 765 527 c 7
 765 773 699 954 487 954 c 7
 279 954 207 781 207 528 c 7
EndSplineSet
EndChar

StartChar: n
Encoding: 110 110 7
Width: 970
VWidth: 0
GlyphClass: 1
Flags: HW
HStem: 0 21G<120 252 728 860> 954 112<430.264 669.55>
VStem: 120 132<0 824.632 882 1055> 728 132<0 892.583>
LayerCount: 2
Back
SplineSet
160 1055 m 1
 292 1055 l 1
 292 865 l 1
 252 842 l 1
 355 943 467 1066 637 1066 c 7
 779 1066 900 984 900 786 c 2
 900 0 l 1
 768 0 l 1
 768 786 l 2
 768 894 673 954 599 954 c 7
 480 954 370 866 292 781 c 1
 292 0 l 1
 160 0 l 1
 160 1055 l 1
EndSplineSet
Fore
SplineSet
120 0 m 5
 120 1055 l 5
 252 1055 l 5
 252 882 l 5
 344 973 449 1066 597 1066 c 7
 739 1066 860 984 860 786 c 6
 860 0 l 5
 728 0 l 5
 728 786 l 6
 728 894 633 954 559 954 c 7
 440 954 330 866 252 781 c 5
 252 0 l 5
 120 0 l 5
EndSplineSet
EndChar

StartChar: H
Encoding: 72 72 8
AltUni2: 00041d.ffffffff.0 000397.ffffffff.0 00041d.ffffffff.0 000397.ffffffff.0 00041d.ffffffff.0 000397.ffffffff.0 00041d.ffffffff.0 000397.ffffffff.0 00041d.ffffffff.0 000397.ffffffff.0 00041d.ffffffff.0 000397.ffffffff.0 00041d.ffffffff.0 000397.ffffffff.0 00041d.ffffffff.0 000397.ffffffff.0 00041d.ffffffff.0 000397.ffffffff.0 00041d.ffffffff.0 000397.ffffffff.0 00041d.ffffffff.0 000397.ffffffff.0 00041d.ffffffff.0 000397.ffffffff.0 00041d.ffffffff.0 000397.ffffffff.0 000397.ffffffff.0 00041d.ffffffff.0 000397.ffffffff.0 00041d.ffffffff.0 000397.ffffffff.0 00041d.ffffffff.0 000397.ffffffff.0 00041d.ffffffff.0 000397.ffffffff.0 00041d.ffffffff.0 000397.ffffffff.0 00041d.ffffffff.0 000397.ffffffff.0 00041d.ffffffff.0 000397.ffffffff.0 00041d.ffffffff.0 000397.ffffffff.0 00041d.ffffffff.0 000397.ffffffff.0 00041d.ffffffff.0 000397.ffffffff.0 00041d.ffffffff.0 000397.ffffffff.0 00041d.ffffffff.0 000397.ffffffff.0 00041d.ffffffff.0 000397.ffffffff.0 00041d.ffffffff.0
Width: 1254
VWidth: 0
GlyphClass: 1
Flags: W
HStem: 0 21G<135 283 971 1119> 734 124<283 971> 1495 20G<135 283 971 1119>
VStem: 135 148<0 734 858 1515> 971 148<0 734 858 1515>
LayerCount: 2
Fore
SplineSet
135 0 m 1
 135 1515 l 1
 283 1515 l 1
 283 858 l 5
 971 858 l 5
 971 1515 l 1
 1119 1515 l 1
 1119 0 l 1
 971 0 l 1
 971 734 l 5
 283 734 l 5
 283 0 l 1
 135 0 l 1
EndSplineSet
Validated: 1
EndChar

StartChar: O
Encoding: 79 79 9
AltUni2: 00041e.ffffffff.0 00039f.ffffffff.0 00041e.ffffffff.0 00039f.ffffffff.0 00041e.ffffffff.0 00039f.ffffffff.0 00041e.ffffffff.0 00039f.ffffffff.0 00041e.ffffffff.0 00039f.ffffffff.0 00041e.ffffffff.0 00039f.ffffffff.0 00041e.ffffffff.0 00039f.ffffffff.0 00041e.ffffffff.0 00039f.ffffffff.0 00041e.ffffffff.0 00039f.ffffffff.0 00041e.ffffffff.0 00039f.ffffffff.0 00041e.ffffffff.0 00039f.ffffffff.0 00041e.ffffffff.0 00039f.ffffffff.0 00041e.ffffffff.0 00039f.ffffffff.0 00039f.ffffffff.0 00041e.ffffffff.0 00039f.ffffffff.0 00041e.ffffffff.0 00039f.ffffffff.0 00041e.ffffffff.0 00039f.ffffffff.0 00041e.ffffffff.0 00039f.ffffffff.0 00041e.ffffffff.0 00039f.ffffffff.0 00041e.ffffffff.0 00039f.ffffffff.0 00041e.ffffffff.0 00039f.ffffffff.0 00041e.ffffffff.0 00039f.ffffffff.0 00041e.ffffffff.0 00039f.ffffffff.0 00041e.ffffffff.0 00039f.ffffffff.0 00041e.ffffffff.0 00039f.ffffffff.0 00041e.ffffffff.0 00039f.ffffffff.0 00041e.ffffffff.0 00039f.ffffffff.0 00041e.ffffffff.0
Width: 1263
VWidth: 0
GlyphClass: 1
Flags: HW
HStem: -16 124<473.688 805.416> 1408 124<467.481 805.109>
VStem: 80 148<440.753 1082.62> 1035 148<421.963 1076.97>
LayerCount: 2
Fore
SplineSet
80 752 m 31
 80 1127 234 1532 641 1532 c 7
 1031 1532 1183 1117 1183 752 c 7
 1183 378 1034 -16 641 -16 c 7
 258 -16 80 381 80 752 c 31
228 752 m 7
 228 414 343 108 641 108 c 7
 951 108 1035 459 1035 752 c 7
 1035 1047 952 1408 641 1408 c 7
 332 1408 228 1093 228 752 c 7
EndSplineSet
EndChar

StartChar: R
Encoding: 82 82 10
Width: 1093
VWidth: 0
GlyphClass: 1
Flags: HW
HStem: 0 21G<135 283 892.023 1062> 692 124<283 624> 1391 124<283 770.531>
VStem: 135 148<0 692 816 1391> 920 148<929.217 1259.84>
DStem2: 776 716 624 692 0.370943 -0.928656<0 710.914>
LayerCount: 2
Back
SplineSet
135 0 m 1
 135 1515 l 1
 645 1515 l 2
 938 1515 1068 1284 1068 1117 c 0
 1068 952 995 762 776 716 c 1
 1062 0 l 1
 900 0 l 1
 624 692 l 1
 283 692 l 1
 283 0 l 1
 135 0 l 1
920 1110 m 0
 920 1305 758 1391 554 1391 c 2
 283 1391 l 1
 283 816 l 1
 408 816 659 816 659 816 c 2
 791 816 920 896 920 1110 c 0
EndSplineSet
Fore
SplineSet
135 0 m 1
 135 1515 l 5
 645 1515 l 6
 938 1515 1068 1284 1068 1117 c 0
 1068 952 995 762 776 716 c 1
 1062 0 l 1
 900 0 l 1
 624 692 l 1
 283 692 l 1
 283 0 l 1
 135 0 l 1
283 816 m 1
 408 816 659 816 659 816 c 2
 791 816 920 896 920 1110 c 0
 920 1305 758 1391 554 1391 c 2
 283 1391 l 1
 283 816 l 1
EndSplineSet
EndChar

StartChar: M
Encoding: 77 77 11
AltUni2: 00041c.ffffffff.0 00039c.ffffffff.0 00041c.ffffffff.0 00039c.ffffffff.0 00041c.ffffffff.0 00039c.ffffffff.0 00041c.ffffffff.0 00039c.ffffffff.0 00041c.ffffffff.0 00039c.ffffffff.0 00041c.ffffffff.0 00039c.ffffffff.0 00041c.ffffffff.0 00039c.ffffffff.0 00041c.ffffffff.0 00039c.ffffffff.0 00041c.ffffffff.0 00039c.ffffffff.0 00041c.ffffffff.0 00039c.ffffffff.0 00041c.ffffffff.0 00039c.ffffffff.0 00041c.ffffffff.0 00039c.ffffffff.0 00041c.ffffffff.0 00039c.ffffffff.0 00039c.ffffffff.0 00041c.ffffffff.0 00039c.ffffffff.0 00041c.ffffffff.0 00039c.ffffffff.0 00041c.ffffffff.0 00039c.ffffffff.0 00041c.ffffffff.0 00039c.ffffffff.0 00041c.ffffffff.0 00039c.ffffffff.0 00041c.ffffffff.0 00039c.ffffffff.0 00041c.ffffffff.0 00039c.ffffffff.0 00041c.ffffffff.0 00039c.ffffffff.0 00041c.ffffffff.0 00039c.ffffffff.0 00041c.ffffffff.0 00039c.ffffffff.0 00041c.ffffffff.0 00039c.ffffffff.0 00041c.ffffffff.0 00039c.ffffffff.0 00041c.ffffffff.0 00039c.ffffffff.0 00041c.ffffffff.0
Width: 1457
VWidth: 0
GlyphClass: 1
Flags: HW
HStem: 0 21G<128 276 662.44 787.56 1174 1322> 1495 20G<128 401.572 1048.43 1322>
VStem: 128 148<0 1374> 1174 148<0 1374>
DStem2: 396 1515 286 1374 0.267861 -0.963458<106.383 1207.29> 730 352 782 0 0.267861 0.963458<0 1100.91>
LayerCount: 2
Fore
SplineSet
128 0 m 1
 128 1515 l 1
 396 1515 l 1
 720 352 l 1
 730 352 l 1
 1054 1515 l 1
 1322 1515 l 1
 1322 0 l 1
 1174 0 l 1
 1174 1374 l 1
 1164 1374 l 1
 782 0 l 1
 668 0 l 1
 286 1374 l 1
 276 1374 l 1
 276 0 l 1
 128 0 l 1
EndSplineSet
EndChar

StartChar: X
Encoding: 88 88 12
AltUni2: 000425.ffffffff.0 0003a7.ffffffff.0 000425.ffffffff.0 0003a7.ffffffff.0 000425.ffffffff.0 0003a7.ffffffff.0 000425.ffffffff.0 0003a7.ffffffff.0 000425.ffffffff.0 0003a7.ffffffff.0 000425.ffffffff.0 0003a7.ffffffff.0 000425.ffffffff.0 0003a7.ffffffff.0 000425.ffffffff.0 0003a7.ffffffff.0 000425.ffffffff.0 0003a7.ffffffff.0 000425.ffffffff.0 0003a7.ffffffff.0 000425.ffffffff.0 0003a7.ffffffff.0 000425.ffffffff.0 0003a7.ffffffff.0 000425.ffffffff.0 0003a7.ffffffff.0 0003a7.ffffffff.0 000425.ffffffff.0 0003a7.ffffffff.0 000425.ffffffff.0 0003a7.ffffffff.0 000425.ffffffff.0 0003a7.ffffffff.0 000425.ffffffff.0 0003a7.ffffffff.0 000425.ffffffff.0 0003a7.ffffffff.0 000425.ffffffff.0 0003a7.ffffffff.0 000425.ffffffff.0 0003a7.ffffffff.0 000425.ffffffff.0 0003a7.ffffffff.0 000425.ffffffff.0 0003a7.ffffffff.0 000425.ffffffff.0 0003a7.ffffffff.0 000425.ffffffff.0 0003a7.ffffffff.0 000425.ffffffff.0 0003a7.ffffffff.0 000425.ffffffff.0 0003a7.ffffffff.0 000425.ffffffff.0
Width: 1083
VWidth: 0
GlyphClass: 1
Flags: HW
HStem: 0 21G<25 192.289 887.711 1055> 1495 20G<43 208.325 893.022 1058>
DStem2: 25 0 181 0 0.500991 0.865452<78.1546 808.438> 197 1515 43 1515 0.492795 -0.870145<0 728.586 933.886 1664.21> 556 881 630 750 0.500991 0.865452<0 723.042>
LayerCount: 2
Back
SplineSet
1142 0 m 1
 986 -0 l 1
 130 1515 l 1
 284 1515 l 1
 1142 0 l 1
639 657 m 1
 268 0 l 1
 112 0 l 1
 560 792 l 1
 629 857 l 1
 991 1515 l 1
 1145 1515 l 1
 696 713 l 1
 639 657 l 1
132 2 m 1
 288 2 l 1
 1144 1515 l 1
 990 1515 l 1
 132 2 l 1
EndSplineSet
Fore
SplineSet
25 0 m 1
 462 773 l 1
 43 1515 l 1
 197 1515 l 1
 556 881 l 1
 904 1515 l 1
 1058 1515 l 1
 630 750 l 1
 1055 0 l 1
 899 0 l 1
 540 636 l 1
 181 0 l 1
 25 0 l 1
EndSplineSet
EndChar

StartChar: three
Encoding: 51 51 13
Width: 1171
VWidth: 0
GlyphClass: 1
Flags: HW
HStem: -11 143<350.406 751.096> 721 141<366 736.968> 1384 143<352.663 728.11>
VStem: 851 141<974.073 1271.84> 899 142<260.219 579.968>
LayerCount: 2
Fore
SplineSet
70 237 m 5
 171 324 l 5xe8
 270 222 347 132 551 132 c 7
 731 132 899 219 899 407 c 7xe8
 899 602 768 721 579 721 c 6
 366 721 l 5
 366 862 l 5
 579 862 l 6
 762 862 851 983 851 1149 c 15
 851 1298 700 1384 551 1384 c 31
 404 1384 266 1309 207 1233 c 5
 111 1326 l 5
 192 1419 343 1527 567 1527 c 4
 789 1527 992 1355 992 1149 c 7xf0
 992 941 858 827 804 792 c 5
 894 737 1041 631 1041 417 c 7
 1041 131 837 -11 551 -11 c 7
 350 -11 195 78 70 237 c 5
EndSplineSet
EndChar

StartChar: five
Encoding: 53 53 14
AltUni2: 002075.ffffffff.0 002075.ffffffff.0 002075.ffffffff.0 002075.ffffffff.0 002075.ffffffff.0 002075.ffffffff.0 002075.ffffffff.0 002075.ffffffff.0 002075.ffffffff.0 002075.ffffffff.0 002075.ffffffff.0 002075.ffffffff.0 002075.ffffffff.0 002075.ffffffff.0 002075.ffffffff.0 002075.ffffffff.0 002075.ffffffff.0 002075.ffffffff.0 002075.ffffffff.0 002075.ffffffff.0 002075.ffffffff.0 002075.ffffffff.0 002075.ffffffff.0 002075.ffffffff.0 002075.ffffffff.0
Width: 1053
VWidth: 0
GlyphClass: 1
Flags: W
HStem: -11 130<325.646 617.701> 899 124<354.975 658.138> 1381 131<256 870>
VStem: 108 148<722 809.532 931 1381> 805 148<312.582 744.876>
LayerCount: 2
Back
SplineSet
400 1381 m 1
 400 675 l 5
EndSplineSet
Fore
SplineSet
60 276 m 1
 158 351 l 1
 176 295 297 119 474 119 c 3
 501 119 805 140 805 532 c 0
 805 840 613 899 492 899 c 0
 365 899 252 777 244 722 c 1
 108 722 l 1
 108 1512 l 1
 870 1512 l 1
 870 1381 l 1
 256 1381 l 1
 256 931 l 1
 257 932 345 1023 500 1023 c 3
 759 1023 953 827 953 532 c 3
 953 212 760 -11 479 -11 c 3
 240 -11 85 185 60 276 c 1
EndSplineSet
Validated: 1
EndChar

StartChar: six
Encoding: 54 54 15
AltUni2: 002076.ffffffff.0 002076.ffffffff.0 002076.ffffffff.0 002076.ffffffff.0 002076.ffffffff.0 002076.ffffffff.0 002076.ffffffff.0 002076.ffffffff.0 002076.ffffffff.0 002076.ffffffff.0 002076.ffffffff.0 002076.ffffffff.0 002076.ffffffff.0 002076.ffffffff.0 002076.ffffffff.0 002076.ffffffff.0 002076.ffffffff.0 002076.ffffffff.0 002076.ffffffff.0 002076.ffffffff.0 002076.ffffffff.0 002076.ffffffff.0 002076.ffffffff.0 002076.ffffffff.0 002076.ffffffff.0
Width: 1163
VWidth: 0
GlyphClass: 1
Flags: HW
HStem: -11 125<427.806 743.083> 816 124<419.412 753.405> 1382 132<519.353 854.518>
VStem: 904 138<289.629 661.063>
LayerCount: 2
Back
SplineSet
974 1424 m 5
 916 1317 l 5
 853 1362 784 1393 691 1393 c 7
 477 1393 250 1231 244 786 c 5
 270 821 365 951 598 951 c 7
 866 951 1053 770 1053 489 c 7
 1053 264 930 -11 598 -11 c 7
 276 -11 110 221 110 701 c 7
 110 1221 340 1525 710 1525 c 7
 804 1525 934 1473 974 1424 c 5
598 114 m 7
 750 114 915 204 915 489 c 7
 915 700 785 827 598 827 c 7
 312 827 254 587 249 577 c 5
 255 168 492 114 598 114 c 7
EndSplineSet
Fore
Refer: 22 57 S -1 0 0 -1 1152 1503 2
EndChar

StartChar: Q
Encoding: 81 81 16
Width: 1263
VWidth: 0
GlyphClass: 1
Flags: HW
HStem: -272 125<748.484 1119> 1408 124<467.481 805.109>
VStem: 80 148<449.393 1082.62> 582 148<-131.147 -6.65802> 1035 148<435.397 1076.97>
LayerCount: 2
Back
SplineSet
1099 759 m 4
 1099 1130 983 1406 699 1406 c 6
 697 1406 l 6
 415 1406 314 1130 309 759 c 5
 309 745 l 6
 309 377 445 125 703 123 c 5
 707 123 l 6
 967 123 1099 394 1099 759 c 4
152 763 m 6
 152 784 l 6
 152 1197 322 1529 699 1529 c 4
 1080 1529 1240 1233 1247 763 c 5
 1247 741 l 6
 1247 282 1015 -6 807 -7 c 5
 812 -85 818 -119 920 -130 c 5
 1191 -130 l 5
 1191 -290 l 5
 792 -280 l 6
 697 -278 642 -178 633 -6 c 5
 385 7 152 320 152 763 c 6
EndSplineSet
Fore
SplineSet
80 752 m 11
 80 1127 234 1532 641 1532 c 3
 1031 1532 1183 1117 1183 752 c 7
 1183 413 1047 55 730 -9 c 1
 733 -135 770 -147 855 -147 c 2
 1119 -147 l 1
 1119 -271 l 17
 990 -272 l 2
 638 -272 582 -248 582 -12 c 1
 249 35 80 405 80 752 c 11
228 752 m 3
 228 414 343 108 641 108 c 3
 951 108 1035 459 1035 752 c 7
 1035 1047 952 1408 641 1408 c 3
 332 1408 228 1093 228 752 c 3
EndSplineSet
EndChar

StartChar: one
Encoding: 49 49 18
Width: 839
VWidth: 0
GlyphClass: 1
Flags: HW
HStem: 0 142<147 391 539 759> 1495 20G<376.066 539>
VStem: 391 148<142 1352.13>
LayerCount: 2
Back
SplineSet
514 1417 m 25
 170 1296 l 25
EndSplineSet
Fore
SplineSet
106 1400.13 m 25
 433 1515 l 25
 539 1515 l 25
 539 142 l 29
 759 142 l 29
 759 0 l 25
 147 0 l 25
 147 142 l 29
 391 142 l 29
 391 1352.13 l 25
 154 1283.13 l 25
 106 1400.13 l 25
EndSplineSet
EndChar

StartChar: two
Encoding: 50 50 19
Width: 1180
VWidth: 0
GlyphClass: 1
Flags: W
HStem: 0 142<252 1029> 1395 132<437.431 787.071>
VStem: 133 148<1088 1235.2> 902 148<952.115 1278.66>
LayerCount: 2
Back
SplineSet
90 0 m 25
 90 184 90 345 564 696 c 0
 741 827 912 903 912 1116 c 27
 912 1277 816 1395 606 1395 c 3
 372 1395 288 1209 282 1088 c 9
 132 1088 l 17
 132 1347 369 1527 624 1527 c 3
 855 1527 1050 1347 1050 1116 c 27
 1050 854 831 726 648 579 c 0
 519 475 288 269 252 156 c 9
 1029 156 l 25
 1029 0 l 25
 90 0 l 25
EndSplineSet
Fore
SplineSet
90 0 m 21
 91 187 90 345 564 696 c 4
 741 827 902 906 902 1116 c 31
 902 1275 816 1395 606 1395 c 7
 372 1395 287 1209 281 1088 c 13
 133 1088 l 21
 133 1347 369 1527 624 1527 c 7
 855 1527 1050 1347 1050 1116 c 31
 1050 854 827 729 644 582 c 4
 515 478 267 270 252 142 c 13
 1029 142 l 29
 1029 0 l 29
 90 0 l 21
EndSplineSet
Validated: 1
EndChar

StartChar: seven
Encoding: 55 55 20
AltUni2: 002077.ffffffff.0 002077.ffffffff.0 002077.ffffffff.0 002077.ffffffff.0 002077.ffffffff.0 002077.ffffffff.0 002077.ffffffff.0 002077.ffffffff.0 002077.ffffffff.0 002077.ffffffff.0 002077.ffffffff.0 002077.ffffffff.0 002077.ffffffff.0 002077.ffffffff.0 002077.ffffffff.0 002077.ffffffff.0 002077.ffffffff.0 002077.ffffffff.0 002077.ffffffff.0 002077.ffffffff.0 002077.ffffffff.0 002077.ffffffff.0 002077.ffffffff.0 002077.ffffffff.0 002077.ffffffff.0
Width: 1057
VWidth: 0
GlyphClass: 1
Flags: HW
HStem: 0 21G<200 372.632> 1376 139<84 807>
DStem2: 200 0 364 0 0.403607 0.914932<66.1916 1503.94>
LayerCount: 2
Back
SplineSet
858 1374 m 25
 258 0 l 25
EndSplineSet
Fore
SplineSet
84 1376 m 29
 84 1515 l 29
 957 1515 l 25
 957 1374 l 25
 364 0 l 25
 200 0 l 25
 807 1376 l 25
 84 1376 l 29
EndSplineSet
EndChar

StartChar: eight
Encoding: 56 56 21
AltUni2: 002078.ffffffff.0 002078.ffffffff.0 002078.ffffffff.0 002078.ffffffff.0 002078.ffffffff.0 002078.ffffffff.0 002078.ffffffff.0 002078.ffffffff.0 002078.ffffffff.0 002078.ffffffff.0 002078.ffffffff.0 002078.ffffffff.0 002078.ffffffff.0 002078.ffffffff.0 002078.ffffffff.0 002078.ffffffff.0 002078.ffffffff.0 002078.ffffffff.0 002078.ffffffff.0 002078.ffffffff.0 002078.ffffffff.0 002078.ffffffff.0 002078.ffffffff.0 002078.ffffffff.0 002078.ffffffff.0
Width: 1204
VWidth: 0
GlyphClass: 1
Flags: HW
HStem: -11 124<408.664 798.983> 1401 124<439.589 779.981>
VStem: 110 132<256.435 535.704> 171 132<1019.15 1276.02> 907 132<1019.09 1283.92> 962 132<259.966 546.071>
LayerCount: 2
Back
SplineSet
954 389 m 1xe8
 954 393 954 399 954 403 c 0
 954 595 775 682 589 749 c 0
 377 826 175 882 164 1145 c 1xd4
 164 1382 369 1521 591 1523 c 16
 595 1523 l 0
 814 1523 1017 1370 1017 1151 c 11
 1017 920 751 785 578 751 c 0
 390 714 221 562 221 400 c 3
 221 211 414 105 603 105 c 3
 746 105 954 213 954 389 c 1xe8
606 -12 m 16
 342 -12 100 146 100 400 c 27
 100 671 407 811 613 865 c 0
 814 918 908 994 908 1157 c 27xe8
 908 1318 757 1424 596 1424 c 27
 426 1424 263 1315 263 1145 c 27
 263 973 459 896 588 849 c 0
 818 764 1070 657 1070 399 c 27
 1070 159 847 -12 606 -12 c 16
EndSplineSet
Fore
SplineSet
110 400 m 19xe4
 110 628 320 756 446 805 c 1
 295 857 171 974 171 1145 c 27
 171 1371 372 1525 610 1525 c 3
 849 1525 1039 1366 1039 1154 c 3
 1039 982 893 861 747 797 c 1
 898 732 1094 637 1094 399 c 11
 1094 155 866 -11 622 -11 c 19
 358 -11 110 144 110 400 c 19xe4
242 400 m 3
 242 211 430 113 619 113 c 3
 734 113 962 186 962 403 c 0
 962 597 774 675 598 744 c 1xe4
 426 699 242 562 242 400 c 3
303 1145 m 27xd8
 303 988 453 927 588 862 c 1
 777 939 907 985 907 1154 c 27
 907 1305 761 1401 610 1401 c 27
 454 1401 303 1301 303 1145 c 27xd8
EndSplineSet
EndChar

StartChar: nine
Encoding: 57 57 22
AltUni2: 002079.ffffffff.0 002079.ffffffff.0 002079.ffffffff.0 002079.ffffffff.0 002079.ffffffff.0 002079.ffffffff.0 002079.ffffffff.0 002079.ffffffff.0 002079.ffffffff.0 002079.ffffffff.0 002079.ffffffff.0 002079.ffffffff.0 002079.ffffffff.0 002079.ffffffff.0 002079.ffffffff.0 002079.ffffffff.0 002079.ffffffff.0 002079.ffffffff.0 002079.ffffffff.0 002079.ffffffff.0 002079.ffffffff.0 002079.ffffffff.0 002079.ffffffff.0 002079.ffffffff.0 002079.ffffffff.0
Width: 1163
VWidth: 0
GlyphClass: 1
Flags: HW
HStem: -11 132<297.482 632.647> 563 124<398.595 732.588> 1389 125<408.917 724.194>
VStem: 110 138<841.937 1213.37>
LayerCount: 2
Fore
SplineSet
110 1025 m 1
 116 1244 256 1514 566 1514 c 3
 862 1514 1042 1263 1042 825 c 0
 1042 291 821 -11 453 -11 c 3
 359 -11 229 41 189 90 c 1
 247 197 l 1
 310 152 379 121 472 121 c 3
 686 121 882 330 912 759 c 1
 886 724 798 563 565 563 c 3
 297 563 110 744 110 1025 c 1
248 1025 m 1
 248 814 378 687 565 687 c 3
 851 687 895 978 900 988 c 1
 879 1299 708 1389 566 1389 c 3
 430 1389 259 1293 248 1025 c 1
EndSplineSet
EndChar

StartChar: zero
Encoding: 48 48 23
AltUni2: 002070.ffffffff.0 002070.ffffffff.0 002070.ffffffff.0 002070.ffffffff.0 002070.ffffffff.0 002070.ffffffff.0 002070.ffffffff.0 002070.ffffffff.0 002070.ffffffff.0 002070.ffffffff.0 002070.ffffffff.0 002070.ffffffff.0 002070.ffffffff.0 002070.ffffffff.0 002070.ffffffff.0 002070.ffffffff.0 002070.ffffffff.0 002070.ffffffff.0 002070.ffffffff.0 002070.ffffffff.0 002070.ffffffff.0 002070.ffffffff.0 002070.ffffffff.0 002070.ffffffff.0 002070.ffffffff.0
Width: 1255
VWidth: 0
GlyphClass: 1
Flags: HW
HStem: -11 124<476.207 799.959> 1398 124<486.834 785.265>
VStem: 140 148<393.083 1103.97> 967 148<374.476 1110.82>
LayerCount: 2
Fore
SplineSet
140 739 m 27
 140 1101 249 1522 639 1522 c 3
 1008 1522 1115 1104 1115 739 c 3
 1115 381 1014 -11 639 -11 c 3
 256 -11 140 388 140 739 c 27
288 739 m 3
 288 401 357 113 639 113 c 3
 930 113 967 387 967 739 c 3
 967 1071 918 1398 639 1398 c 3
 357 1398 288 1080 288 739 c 3
EndSplineSet
EndChar

StartChar: ampersand
Encoding: 38 38 24
Width: 1407
VWidth: 0
GlyphClass: 1
Flags: HW
HStem: -11 124<396.581 724.558> -0 144<1131.79 1297> 1422 114<520.828 738.82>
VStem: 110 132<264.401 574.544> 320 132<1014.21 1347.74> 800 119<1100.3 1356.73> 1073 132<494.246 712>
LayerCount: 2
Back
SplineSet
551 -21 m 0xbe
 307 -21 110 171 110 412 c 27
 110 649 261 754 467 903 c 0
 611 1007 800 1045 800 1226 c 27
 800 1327 732 1422 631 1422 c 27
 522 1422 452 1319 452 1208 c 3
 452 858 1037 246 1136 186 c 0
 1203.24 144.853 1243 144 1297 144 c 9
 1297 0 l 17
 1231.76 0 1223.61 -0.201197 1215.45 -0.201197 c 0
 1170.25 -0.201197 1123.13 7.16312 1009 111 c 0
 967 149 320 785 320 1218 c 3
 320 1388 450 1536 620 1536 c 3
 808 1536 919 1390 919 1220 c 27
 919 969 665 901 473 755 c 0
 344 657 242 576 242 416 c 27
 242 243 382 103 555 103 c 27
 813 103 1022 445 1049 543 c 0
 1069 615 1073 703 1073 712 c 9
 1205 712 l 17
 1205 674 1197 553 1160 470 c 0
 1055 233 873 -21 551 -21 c 0xbe
EndSplineSet
Fore
SplineSet
110 412 m 19
 110 630 240 738 421 870 c 1
 361 990 320 1111 320 1218 c 3
 320 1388 450 1536 620 1536 c 3
 808 1536 919 1390 919 1220 c 19
 919 1019 752 932 588 832 c 1
 691 661 834 487 950 362 c 1
 1003 435 1039 507 1049 543 c 0
 1069 615 1073 703 1073 712 c 9
 1205 712 l 17
 1205 674 1197 553 1160 470 c 0
 1130 401 1090 328 1045 263 c 1
 1084 225 1119 196 1136 186 c 0
 1203 145 1243 144 1297 144 c 9
 1297 0 l 17
 1232 0 1224 -0 1215 -0 c 0x7e
 1159 0 1106 13 960 159 c 1
 858 55 724 -11 551 -11 c 0
 307 -11 110 174 110 412 c 19
242 416 m 27
 242 246 385 113 555 113 c 19xbe
 671 113 780 175 864 260 c 1
 752 383 596 570 481 761 c 1
 348 661 242 580 242 416 c 27
452 1208 m 3
 452 1130 482 1037 528 942 c 1x3e
 659 1019 800 1071 800 1226 c 11
 800 1327 732 1422 631 1422 c 27
 522 1422 452 1319 452 1208 c 3
EndSplineSet
EndChar

StartChar: A
Encoding: 65 65 25
AltUni2: 000410.ffffffff.0 000391.ffffffff.0 000410.ffffffff.0 000391.ffffffff.0 000410.ffffffff.0 000391.ffffffff.0 000410.ffffffff.0 000391.ffffffff.0 000410.ffffffff.0 000391.ffffffff.0 000410.ffffffff.0 000391.ffffffff.0 000410.ffffffff.0 000391.ffffffff.0 000410.ffffffff.0 000391.ffffffff.0 000410.ffffffff.0 000391.ffffffff.0 000410.ffffffff.0 000391.ffffffff.0 000410.ffffffff.0 000391.ffffffff.0 000410.ffffffff.0 000391.ffffffff.0 000410.ffffffff.0 000391.ffffffff.0 000391.ffffffff.0 000410.ffffffff.0 000391.ffffffff.0 000410.ffffffff.0 000391.ffffffff.0 000410.ffffffff.0 000391.ffffffff.0 000410.ffffffff.0 000391.ffffffff.0 000410.ffffffff.0 000391.ffffffff.0 000410.ffffffff.0 000391.ffffffff.0 000410.ffffffff.0 000391.ffffffff.0 000410.ffffffff.0 000391.ffffffff.0 000410.ffffffff.0 000391.ffffffff.0 000410.ffffffff.0 000391.ffffffff.0 000410.ffffffff.0 000391.ffffffff.0 000410.ffffffff.0 000391.ffffffff.0 000410.ffffffff.0 000391.ffffffff.0 000410.ffffffff.0
Width: 1130
VWidth: 0
GlyphClass: 1
Flags: HW
HStem: 0 21G<25 184.565 945.561 1105> 478 124<346 786> 1495 20G<451.297 678.703>
DStem2: 25 0 179 0 0.274218 0.961668<42.2296 538.378 666.948 1483.83> 673 1515 565 1389 0.274218 -0.961668<91.5546 908.989 1037.83 1533.16>
LayerCount: 2
Back
SplineSet
286 0 m 25
 672 1389 l 25
 1058 13 l 25
EndSplineSet
Fore
SplineSet
25 0 m 29
 457 1515 l 29
 673 1515 l 29
 1105 0 l 29
 951 0 l 29
 821 478 l 29
 312 478 l 29
 179 0 l 29
 25 0 l 29
346 602 m 29
 786 602 l 29
 565 1389 l 29
 346 602 l 29
EndSplineSet
EndChar

StartChar: B
Encoding: 66 66 26
AltUni2: 000412.ffffffff.0 000392.ffffffff.0 000412.ffffffff.0 000392.ffffffff.0 000412.ffffffff.0 000392.ffffffff.0 000412.ffffffff.0 000392.ffffffff.0 000412.ffffffff.0 000392.ffffffff.0 000412.ffffffff.0 000392.ffffffff.0 000412.ffffffff.0 000392.ffffffff.0 000412.ffffffff.0 000392.ffffffff.0 000412.ffffffff.0 000392.ffffffff.0 000412.ffffffff.0 000392.ffffffff.0 000412.ffffffff.0 000392.ffffffff.0 000412.ffffffff.0 000392.ffffffff.0 000412.ffffffff.0 000392.ffffffff.0 000392.ffffffff.0 000412.ffffffff.0 000392.ffffffff.0 000412.ffffffff.0 000392.ffffffff.0 000412.ffffffff.0 000392.ffffffff.0 000412.ffffffff.0 000392.ffffffff.0 000412.ffffffff.0 000392.ffffffff.0 000412.ffffffff.0 000392.ffffffff.0 000412.ffffffff.0 000392.ffffffff.0 000412.ffffffff.0 000392.ffffffff.0 000412.ffffffff.0 000392.ffffffff.0 000412.ffffffff.0 000392.ffffffff.0 000412.ffffffff.0 000392.ffffffff.0 000412.ffffffff.0 000392.ffffffff.0 000412.ffffffff.0 000392.ffffffff.0 000412.ffffffff.0
Width: 1132
VWidth: 0
GlyphClass: 1
Flags: HW
HStem: 0 124<283 807.5> 726 124<283 771.725> 1391 124<283 796.4>
VStem: 135 148<124 726 850 1391> 895 134<966.297 1295.7> 924 140<235.875 579.452>
LayerCount: 2
Back
SplineSet
238 726 m 25xf4
 238 124 l 25
 563 124 l 18
 677 124 879 140 879 410 c 3
 879 600 752 726 563 726 c 10
 238 726 l 25xf4
238 850 m 25
 563 853 l 18
 650 854 850 867 850 1152 c 3xf8
 850 1309 749 1391 563 1391 c 10
 238 1391 l 25
 238 850 l 25
90 0 m 25
 90 1515 l 25
 563 1515 l 18
 809 1515 984 1356 984 1152 c 3xf8
 984 891 827 848 729 800 c 1
 898 722 1019 637 1019 410 c 3xf4
 1019 192 818 0 563 0 c 10
 90 0 l 25
EndSplineSet
Fore
SplineSet
135 0 m 29
 135 1515 l 29
 608 1515 l 22
 854 1515 1029 1356 1029 1152 c 7xf8
 1029 891 903 837 774 800 c 5
 915 765 1064 637 1064 410 c 7xf4
 1064 168 912 0 608 0 c 14
 135 0 l 29
283 124 m 29
 608 124 l 22
 722 124 924 140 924 410 c 7
 924 600 797 726 608 726 c 14
 283 726 l 29xf4
 283 124 l 29
283 850 m 29
 608 853 l 22
 695 854 895 867 895 1152 c 7xf8
 895 1309 794 1391 608 1391 c 14
 283 1391 l 29
 283 850 l 29
EndSplineSet
EndChar

StartChar: C
Encoding: 67 67 27
AltUni2: 000421.ffffffff.0 000421.ffffffff.0 000421.ffffffff.0 000421.ffffffff.0 000421.ffffffff.0 000421.ffffffff.0 000421.ffffffff.0 000421.ffffffff.0 000421.ffffffff.0 000421.ffffffff.0 000421.ffffffff.0 000421.ffffffff.0 000421.ffffffff.0 000421.ffffffff.0 000421.ffffffff.0 000421.ffffffff.0 000421.ffffffff.0 000421.ffffffff.0 000421.ffffffff.0 000421.ffffffff.0 000421.ffffffff.0 000421.ffffffff.0 000421.ffffffff.0 000421.ffffffff.0 000421.ffffffff.0 000421.ffffffff.0 000421.ffffffff.0
Width: 1174
VWidth: 0
GlyphClass: 1
Flags: W
HStem: -16 124<449.182 785.995> 1408 124<449.699 773.352>
VStem: 80 148<415.146 1089.48> 932 152<1087 1215.12>
LayerCount: 2
Fore
SplineSet
80 759 m 31
 80 1126 224 1532 618 1532 c 7
 999 1532 1084 1088 1084 1088 c 4
 1084 1087 1084 1087 1084 1087 c 13
 932 1046 l 21
 918 1153 869 1408 618 1408 c 7
 287 1408 228 1055 228 759 c 7
 228 413 320 108 618 108 c 7
 892 108 956 359 960 463 c 13
 1106 440 l 21
 1060 316 993 -16 618 -16 c 7
 213 -16 80 391 80 759 c 31
EndSplineSet
Validated: 1
EndChar

StartChar: dollar
Encoding: 36 36 28
Width: 1201
VWidth: 0
GlyphClass: 1
Flags: HW
HStem: -10 124<654 815.995> 1391 126<401.527 506 654 765.705>
VStem: 157 148<987.803 1293.49> 506 148<-213 -10 130 689 887 1391 1513.4 1564> 923 148<225.23 550.666>
DStem2: 506 887 506 740 0.941646 -0.336606<-183.612 0 206.012 450.918>
LayerCount: 2
Back
SplineSet
506 1564 m 1
 654 1564 l 1
 654 -213 l 1
 506 -213 l 1
 506 1564 l 1
283 303 m 1
 289.454 303 343.835 114 647 114 c 3
 840 114 923 234 923 385 c 27
 923 517 877 599 727 661 c 0
 514.538 748.818 157 799.439 157 1143 c 3
 157 1324.59 316.664 1523 582 1523 c 3
 890.1 1523 964.601 1318.23 990 1275 c 9
 870 1211 l 17
 848 1278 774.065 1399 582 1399 c 3
 419 1399 305 1305.05 305 1143 c 3
 305 950 423 919 537 876 c 0
 708.475 809.94 1071 769.783 1071 385 c 3
 1071 271 981 -10 647 -10 c 3
 289.86 -10 171.162 225 165 225 c 1
 283 303 l 1
506 1548 m 1
 654 1548 l 1
 654 -213 l 1
 506 -213 l 1
 506 1548 l 1
260 416 m 1
 266.454 416 293.816 114 647 114 c 3
 840 114 923 234 923 385 c 27
 923 517 877 599 727 661 c 0
 514.538 748.818 157 799.439 157 1143 c 3
 157 1324.59 316.664 1523 582 1523 c 3
 938.615 1523 993.601 1208.23 1019 1165 c 9
 889 1115 l 17
 867 1182 827.6 1399 582 1399 c 3
 419 1399 305 1305.05 305 1143 c 3
 305 950 423 919 537 876 c 0
 708.475 809.94 1071 769.783 1071 385 c 3
 1071 271 981 -10 647 -10 c 3
 216.353 -10 129.162 368 123 368 c 1
 260 416 l 1
EndSplineSet
Fore
SplineSet
157 1143 m 3
 157 1306 288 1483 506 1517 c 1
 506 1564 l 1
 654 1564 l 1
 654 1519 l 1
 901 1490 967 1315 990 1275 c 9
 870 1211 l 17
 851 1269 792 1367 654 1393 c 1
 654 838 l 1
 835 782 1071 695 1071 385 c 3
 1071 271 988 -10 654 -10 c 3
 654 -213 l 1
 506 -213 l 1
 506 3 l 1
 261 54 170 225 165 225 c 1
 283 303 l 1
 288 303 325 176 506 130 c 1
 506 740 l 1
 330 807 157 905 157 1143 c 3
305 1143 m 3
 305 968 403 925 506 887 c 1
 506 1391 l 1
 385 1366 305 1278 305 1143 c 3
654 114 m 1
 841 117 923 236 923 385 c 11
 923 517 877 599 727 661 c 0
 704 670 679 680 654 689 c 1
 654 114 l 1
EndSplineSet
EndChar

StartChar: D
Encoding: 68 68 29
Width: 1214
VWidth: 0
GlyphClass: 1
Flags: HW
HStem: 0 124<283 717.445> 1391 124<283 716.849>
VStem: 135 148<124 1391> 998 148<447.951 1085.68>
LayerCount: 2
Fore
SplineSet
135 0 m 29
 135 1515 l 29
 496 1515 l 22
 1030 1515 1146 1138 1146 745 c 31
 1146 359 978 0 496 0 c 14
 135 0 l 29
283 124 m 29
 496 124 l 22
 937 124 998 513 998 745 c 7
 998 1065 928 1391 496 1391 c 14
 283 1391 l 29
 283 124 l 29
EndSplineSet
EndChar

StartChar: E
Encoding: 69 69 30
AltUni2: 000415.ffffffff.0 000395.ffffffff.0 000415.ffffffff.0 000395.ffffffff.0 000415.ffffffff.0 000395.ffffffff.0 000415.ffffffff.0 000395.ffffffff.0 000415.ffffffff.0 000395.ffffffff.0 000415.ffffffff.0 000395.ffffffff.0 000415.ffffffff.0 000395.ffffffff.0 000415.ffffffff.0 000395.ffffffff.0 000415.ffffffff.0 000395.ffffffff.0 000415.ffffffff.0 000395.ffffffff.0 000415.ffffffff.0 000395.ffffffff.0 000415.ffffffff.0 000395.ffffffff.0 000415.ffffffff.0 000395.ffffffff.0 000395.ffffffff.0 000415.ffffffff.0 000395.ffffffff.0 000415.ffffffff.0 000395.ffffffff.0 000415.ffffffff.0 000395.ffffffff.0 000415.ffffffff.0 000395.ffffffff.0 000415.ffffffff.0 000395.ffffffff.0 000415.ffffffff.0 000395.ffffffff.0 000415.ffffffff.0 000395.ffffffff.0 000415.ffffffff.0 000395.ffffffff.0 000415.ffffffff.0 000395.ffffffff.0 000415.ffffffff.0 000395.ffffffff.0 000415.ffffffff.0 000395.ffffffff.0 000415.ffffffff.0 000395.ffffffff.0 000415.ffffffff.0 000395.ffffffff.0 000415.ffffffff.0
Width: 1062
VWidth: 0
GlyphClass: 1
Flags: W
HStem: 0 133<283 994> 734 124<283 766> 1391 124<283 956>
VStem: 135 148<133 734 858 1391>
LayerCount: 2
Fore
SplineSet
135 0 m 29
 135 1515 l 29
 956 1515 l 29
 956 1391 l 29
 283 1391 l 29
 283 858 l 29
 766 858 l 29
 766 734 l 29
 283 734 l 29
 283 133 l 29
 994 133 l 29
 994 0 l 29
 135 0 l 29
EndSplineSet
Validated: 1
EndChar

StartChar: F
Encoding: 70 70 31
Width: 1024
VWidth: 0
GlyphClass: 1
Flags: W
HStem: 0 21G<135 283> 734 124<283 766> 1391 124<283 956>
VStem: 135 148<0 734 858 1391>
LayerCount: 2
Fore
SplineSet
135 0 m 25
 135 1515 l 25
 956 1515 l 25
 956 1391 l 25
 283 1391 l 25
 283 858 l 25
 766 858 l 29
 766 734 l 25
 283 734 l 25
 283 0 l 25
 135 0 l 25
EndSplineSet
Validated: 1
EndChar

StartChar: G
Encoding: 71 71 32
Width: 1246
VWidth: 0
GlyphClass: 1
Flags: HW
HStem: -16 124<451.79 814.658> 0 21G<998 1118> 591 124<636 973> 1063 21G<947.812 1047.56> 1408 124<464.72 795.21>
VStem: 80 148<435.301 1088.53> 973 145<295.033 591> 998 120<0 192>
LayerCount: 2
Back
SplineSet
1000 241 m 25
 1000 0 l 25
 1120 0 l 25
 1120 715 l 9
 638 715 l 17
 638 591 l 1
 972 591 l 1
 984.014 313.579 904.346 106 638 106 c 3
 303 106 230 422 230 768 c 3
 230 1087 327 1410 638 1410 c 3
 936.541 1410 968.984 1063.09 969 1063 c 10
 1114 1099 l 17
 1021.29 1446.65 806.766 1534 638 1534 c 3
 244 1534 82 1137 82 768 c 27
 82 393 233 -18 638 -18 c 3
 846 -18 942 107 1026 229 c 1
 1000 241 l 25
EndSplineSet
Fore
SplineSet
80 768 m 27
 80 1137 242 1532 636 1532 c 7
 805 1532 1019 1447 1112 1099 c 9
 967 1063 l 18
 967 1063 935 1408 636 1408 c 7
 325 1408 228 1087 228 768 c 3
 228 422 304 108 639 108 c 3
 901 108 972 308 973 591 c 1xbe
 636 591 l 1
 636 715 l 9
 1118 715 l 17
 1118 0 l 25
 998 0 l 17
 998 192 l 1x7d
 919 83 823 -16 636 -16 c 3
 231 -16 80 393 80 768 c 27
EndSplineSet
EndChar

StartChar: I
Encoding: 73 73 33
AltUni2: 0004c0.ffffffff.0 000406.ffffffff.0 000399.ffffffff.0 0004c0.ffffffff.0 000406.ffffffff.0 000399.ffffffff.0 0004c0.ffffffff.0 000406.ffffffff.0 000399.ffffffff.0 0004c0.ffffffff.0 000406.ffffffff.0 000399.ffffffff.0 0004c0.ffffffff.0 000406.ffffffff.0 000399.ffffffff.0 0004c0.ffffffff.0 000406.ffffffff.0 000399.ffffffff.0 0004c0.ffffffff.0 000406.ffffffff.0 000399.ffffffff.0 0004c0.ffffffff.0 000406.ffffffff.0 000399.ffffffff.0 0004c0.ffffffff.0 000406.ffffffff.0 000399.ffffffff.0 0004c0.ffffffff.0 000406.ffffffff.0 000399.ffffffff.0 0004c0.ffffffff.0 000406.ffffffff.0 000399.ffffffff.0 0004c0.ffffffff.0 000406.ffffffff.0 000399.ffffffff.0 0004c0.ffffffff.0 000406.ffffffff.0 000399.ffffffff.0 000399.ffffffff.0 000406.ffffffff.0 0004c0.ffffffff.0 000399.ffffffff.0 000406.ffffffff.0 0004c0.ffffffff.0 000399.ffffffff.0 000406.ffffffff.0 0004c0.ffffffff.0 000399.ffffffff.0 000406.ffffffff.0 0004c0.ffffffff.0 000399.ffffffff.0 000406.ffffffff.0 0004c0.ffffffff.0 000399.ffffffff.0 000406.ffffffff.0 0004c0.ffffffff.0 000399.ffffffff.0 000406.ffffffff.0 0004c0.ffffffff.0 000399.ffffffff.0 000406.ffffffff.0 0004c0.ffffffff.0 000399.ffffffff.0 000406.ffffffff.0 0004c0.ffffffff.0 000399.ffffffff.0 000406.ffffffff.0 0004c0.ffffffff.0 000399.ffffffff.0 000406.ffffffff.0 0004c0.ffffffff.0 000399.ffffffff.0 000406.ffffffff.0 0004c0.ffffffff.0 000399.ffffffff.0 000406.ffffffff.0 0004c0.ffffffff.0 000399.ffffffff.0 000406.ffffffff.0 0004c0.ffffffff.0
Width: 418
VWidth: 0
GlyphClass: 1
Flags: HW
HStem: 0 21G<135 283> 1495 20G<135 283>
VStem: 135 148<0 1515>
LayerCount: 2
Fore
SplineSet
135 0 m 5
 135 1515 l 5
 283 1515 l 5
 283 0 l 5
 135 0 l 5
EndSplineSet
EndChar

StartChar: K
Encoding: 75 75 34
AltUni2: 00041a.ffffffff.0 00039a.ffffffff.0 00041a.ffffffff.0 00039a.ffffffff.0 00041a.ffffffff.0 00039a.ffffffff.0 00041a.ffffffff.0 00039a.ffffffff.0 00041a.ffffffff.0 00039a.ffffffff.0 00041a.ffffffff.0 00039a.ffffffff.0 00041a.ffffffff.0 00039a.ffffffff.0 00041a.ffffffff.0 00039a.ffffffff.0 00041a.ffffffff.0 00039a.ffffffff.0 00041a.ffffffff.0 00039a.ffffffff.0 00041a.ffffffff.0 00039a.ffffffff.0 00041a.ffffffff.0 00039a.ffffffff.0 00041a.ffffffff.0 00039a.ffffffff.0 00039a.ffffffff.0 00041a.ffffffff.0 00039a.ffffffff.0 00041a.ffffffff.0 00039a.ffffffff.0 00041a.ffffffff.0 00039a.ffffffff.0 00041a.ffffffff.0 00039a.ffffffff.0 00041a.ffffffff.0 00039a.ffffffff.0 00041a.ffffffff.0 00039a.ffffffff.0 00041a.ffffffff.0 00039a.ffffffff.0 00041a.ffffffff.0 00039a.ffffffff.0 00041a.ffffffff.0 00039a.ffffffff.0 00041a.ffffffff.0 00039a.ffffffff.0 00041a.ffffffff.0 00039a.ffffffff.0 00041a.ffffffff.0 00039a.ffffffff.0 00041a.ffffffff.0 00039a.ffffffff.0 00041a.ffffffff.0
Width: 1140
VWidth: 0
GlyphClass: 1
Flags: HW
HStem: 0 21G<135 283.04 938.854 1115> 1495 20G<135 283 886 1060>
VStem: 135 148<0 495 691 1515>
DStem2: 283 691 284 495 0.605479 0.795861<0 255.022 410.624 1029.98> 626 946 532 822 0.459193 -0.888337<66.9896 988.686>
LayerCount: 2
Back
SplineSet
1064 1515 m 25
 297 507 l 25
EndSplineSet
Fore
SplineSet
135 0 m 25
 135 1515 l 25
 284 1515 l 25
 284 691 l 25
 901 1515 l 25
 1060 1515 l 25
 626 946 l 25
 1115 0 l 25
 949 0 l 25
 532 822 l 25
 284 495 l 25
 284 0 l 25
 135 0 l 25
EndSplineSet
EndChar

StartChar: L
Encoding: 76 76 35
Width: 980
VWidth: 0
GlyphClass: 1
Flags: HW
HStem: 0 142<283 955> 1495 20G<135 283>
VStem: 135 148<142 1515>
LayerCount: 2
Fore
SplineSet
135 0 m 29
 135 1515 l 29
 283 1515 l 29
 283 142 l 29
 955 142 l 29
 955 0 l 29
 135 0 l 29
EndSplineSet
EndChar

StartChar: N
Encoding: 78 78 36
AltUni2: 00039d.ffffffff.0 00039d.ffffffff.0 00039d.ffffffff.0 00039d.ffffffff.0 00039d.ffffffff.0 00039d.ffffffff.0 00039d.ffffffff.0 00039d.ffffffff.0 00039d.ffffffff.0 00039d.ffffffff.0 00039d.ffffffff.0 00039d.ffffffff.0 00039d.ffffffff.0 00039d.ffffffff.0 00039d.ffffffff.0 00039d.ffffffff.0 00039d.ffffffff.0 00039d.ffffffff.0 00039d.ffffffff.0 00039d.ffffffff.0 00039d.ffffffff.0 00039d.ffffffff.0 00039d.ffffffff.0 00039d.ffffffff.0 00039d.ffffffff.0 00039d.ffffffff.0 00039d.ffffffff.0
Width: 1251
VWidth: 0
GlyphClass: 1
Flags: HW
HStem: 0 21G<128 276 985.474 1123> 1495 20G<128 374.589 975 1123>
VStem: 128 148<0 1368> 975 148<361 1515>
DStem2: 364 1515 276 1368 0.465746 -0.884918<89.0973 1305.77>
LayerCount: 2
Back
SplineSet
368 1515 m 25
 1127 0 l 25
EndSplineSet
Fore
SplineSet
128 0 m 29
 128 1515 l 29
 364 1515 l 29
 975 361 l 29
 975 1515 l 29
 1123 1515 l 29
 1123 0 l 29
 996 0 l 29
 276 1368 l 29
 276 0 l 29
 128 0 l 29
EndSplineSet
EndChar

StartChar: P
Encoding: 80 80 37
AltUni2: 000420.ffffffff.0 0003a1.ffffffff.0 000420.ffffffff.0 0003a1.ffffffff.0 000420.ffffffff.0 0003a1.ffffffff.0 000420.ffffffff.0 0003a1.ffffffff.0 000420.ffffffff.0 0003a1.ffffffff.0 000420.ffffffff.0 0003a1.ffffffff.0 000420.ffffffff.0 0003a1.ffffffff.0 000420.ffffffff.0 0003a1.ffffffff.0 000420.ffffffff.0 0003a1.ffffffff.0 000420.ffffffff.0 0003a1.ffffffff.0 000420.ffffffff.0 0003a1.ffffffff.0 000420.ffffffff.0 0003a1.ffffffff.0 000420.ffffffff.0 0003a1.ffffffff.0 0003a1.ffffffff.0 000420.ffffffff.0 0003a1.ffffffff.0 000420.ffffffff.0 0003a1.ffffffff.0 000420.ffffffff.0 0003a1.ffffffff.0 000420.ffffffff.0 0003a1.ffffffff.0 000420.ffffffff.0 0003a1.ffffffff.0 000420.ffffffff.0 0003a1.ffffffff.0 000420.ffffffff.0 0003a1.ffffffff.0 000420.ffffffff.0 0003a1.ffffffff.0 000420.ffffffff.0 0003a1.ffffffff.0 000420.ffffffff.0 0003a1.ffffffff.0 000420.ffffffff.0 0003a1.ffffffff.0 000420.ffffffff.0 0003a1.ffffffff.0 000420.ffffffff.0 0003a1.ffffffff.0 000420.ffffffff.0
Width: 1136
VWidth: 0
GlyphClass: 1
Flags: HW
HStem: 0 21G<135 283> 692 124<283 778.246> 1391 124<283 777.009>
VStem: 135 148<0 692 816 1391> 920 148<946.342 1259.84>
LayerCount: 2
Fore
SplineSet
135 0 m 5
 135 1515 l 5
 664 1515 l 6
 957 1515 1068 1284 1068 1117 c 4
 1068 912 962 692 664 692 c 6
 283 692 l 5
 283 0 l 5
 135 0 l 5
283 816 m 5
 408 816 563 816 563 816 c 6
 764 816 920 896 920 1110 c 4
 920 1305 767 1391 563 1391 c 6
 283 1391 l 5
 283 816 l 5
EndSplineSet
EndChar

StartChar: S
Encoding: 83 83 38
AltUni2: 000405.ffffffff.0 000405.ffffffff.0 000405.ffffffff.0 000405.ffffffff.0 000405.ffffffff.0 000405.ffffffff.0 000405.ffffffff.0 000405.ffffffff.0 000405.ffffffff.0 000405.ffffffff.0 000405.ffffffff.0 000405.ffffffff.0 000405.ffffffff.0 000405.ffffffff.0 000405.ffffffff.0 000405.ffffffff.0 000405.ffffffff.0 000405.ffffffff.0 000405.ffffffff.0 000405.ffffffff.0 000405.ffffffff.0 000405.ffffffff.0 000405.ffffffff.0 000405.ffffffff.0 000405.ffffffff.0 000405.ffffffff.0 000405.ffffffff.0
Width: 1033
VWidth: 0
GlyphClass: 1
Flags: HW
HStem: -16 124<368.185 728.934> 1408 124<337.516 656.236>
VStem: 74 148<987.519 1297.69> 840 148<217.837 547.518>
LayerCount: 2
Fore
SplineSet
40 368 m 1
 177 416 l 1
 183 416 211 108 564 108 c 7
 757 108 840 232 840 385 c 27
 840 517 794 599 644 661 c 0
 432 749 74 799 74 1143 c 3
 74 1325 234 1532 499 1532 c 3
 856 1532 911 1208 936 1165 c 9
 806 1115 l 17
 784 1182 745 1408 499 1408 c 3
 336 1408 222 1305 222 1143 c 3
 222 950 340 919 454 876 c 0
 625 810 988 770 988 385 c 3
 988 271 898 -16 564 -16 c 7
 133 -16 46 368 40 368 c 1
EndSplineSet
EndChar

StartChar: T
Encoding: 84 84 39
AltUni2: 000422.ffffffff.0 0003a4.ffffffff.0 000422.ffffffff.0 0003a4.ffffffff.0 000422.ffffffff.0 0003a4.ffffffff.0 000422.ffffffff.0 0003a4.ffffffff.0 000422.ffffffff.0 0003a4.ffffffff.0 000422.ffffffff.0 0003a4.ffffffff.0 000422.ffffffff.0 0003a4.ffffffff.0 000422.ffffffff.0 0003a4.ffffffff.0 000422.ffffffff.0 0003a4.ffffffff.0 000422.ffffffff.0 0003a4.ffffffff.0 000422.ffffffff.0 0003a4.ffffffff.0 000422.ffffffff.0 0003a4.ffffffff.0 000422.ffffffff.0 0003a4.ffffffff.0 0003a4.ffffffff.0 000422.ffffffff.0 0003a4.ffffffff.0 000422.ffffffff.0 0003a4.ffffffff.0 000422.ffffffff.0 0003a4.ffffffff.0 000422.ffffffff.0 0003a4.ffffffff.0 000422.ffffffff.0 0003a4.ffffffff.0 000422.ffffffff.0 0003a4.ffffffff.0 000422.ffffffff.0 0003a4.ffffffff.0 000422.ffffffff.0 0003a4.ffffffff.0 000422.ffffffff.0 0003a4.ffffffff.0 000422.ffffffff.0 0003a4.ffffffff.0 000422.ffffffff.0 0003a4.ffffffff.0 000422.ffffffff.0 0003a4.ffffffff.0 000422.ffffffff.0 0003a4.ffffffff.0 000422.ffffffff.0
Width: 1062
VWidth: 0
GlyphClass: 1
Flags: HW
HStem: 0 21G<457 605> 1391 124<25 457 605 1037>
VStem: 457 148<0 1391>
LayerCount: 2
Fore
SplineSet
25 1391 m 29
 25 1515 l 29
 1037 1515 l 29
 1037 1391 l 29
 605 1391 l 29
 605 0 l 29
 457 0 l 29
 457 1391 l 29
 25 1391 l 29
EndSplineSet
EndChar

StartChar: U
Encoding: 85 85 40
Width: 1213
VWidth: 0
GlyphClass: 1
Flags: HW
HStem: -16 124<436.757 790.996> 1495 20G<135 283 931 1085>
VStem: 135 148<266.063 1515> 937 148<260.897 1515>
LayerCount: 2
Fore
SplineSet
135 455 m 10
 135 1515 l 25
 283 1515 l 25
 283 455 l 18
 283 394 295 108 609 108 c 3
 914 108 937 362 937 455 c 10
 931 1515 l 25
 1085 1515 l 25
 1085 455 l 18
 1085 399 1067 -16 609 -16 c 3
 146 -16 135 406 135 455 c 10
EndSplineSet
EndChar

StartChar: V
Encoding: 86 86 41
Width: 1104
VWidth: 0
GlyphClass: 1
Flags: HW
HStem: 0 21G<469.059 634.941> 1495 20G<25 184.939 919.06 1079>
DStem2: 179 1515 25 1515 0.284735 -0.958606<0 1310.22> 552 259 629 0 0.284735 0.958606<0 1310.22>
LayerCount: 2
Fore
SplineSet
25 1515 m 25
 179 1515 l 17
 552 259 l 25
 925 1515 l 9
 1079 1515 l 25
 629 0 l 17
 475 0 l 9
 25 1515 l 25
EndSplineSet
EndChar

StartChar: W
Encoding: 87 87 42
Width: 1614
VWidth: 0
GlyphClass: 1
Flags: HW
HStem: 0 21G<371.366 532.574 1081.43 1242.63> 1495 20G<25 183.324 717.426 896.574 1430.68 1589>
DStem2: 179 1515 25 1515 0.225705 -0.974196<0 1225.54> 448 317 528 0 0.222957 0.974828<0 937.751> 892 1515 812 1198 0.222957 -0.974828<291.184 1228.93> 1176 317 1238 0 0.225705 0.974196<0 1225.54>
LayerCount: 2
Fore
SplineSet
25 1515 m 25
 179 1515 l 25
 438 317 l 1
 448 317 l 1
 722 1515 l 25
 892 1515 l 25
 1166 317 l 1
 1176 317 l 1
 1435 1515 l 25
 1589 1515 l 25
 1238 0 l 25
 1086 0 l 25
 812 1198 l 1
 802 1198 l 1
 528 0 l 25
 376 0 l 25
 25 1515 l 25
EndSplineSet
EndChar

StartChar: Y
Encoding: 89 89 43
AltUni2: 0004ae.ffffffff.0 0003d2.ffffffff.0 0003a5.ffffffff.0 0004ae.ffffffff.0 0003d2.ffffffff.0 0003a5.ffffffff.0 0004ae.ffffffff.0 0003d2.ffffffff.0 0003a5.ffffffff.0 0004ae.ffffffff.0 0003d2.ffffffff.0 0003a5.ffffffff.0 0004ae.ffffffff.0 0003d2.ffffffff.0 0003a5.ffffffff.0 0004ae.ffffffff.0 0003d2.ffffffff.0 0003a5.ffffffff.0 0004ae.ffffffff.0 0003d2.ffffffff.0 0003a5.ffffffff.0 0004ae.ffffffff.0 0003d2.ffffffff.0 0003a5.ffffffff.0 0004ae.ffffffff.0 0003d2.ffffffff.0 0003a5.ffffffff.0 0004ae.ffffffff.0 0003d2.ffffffff.0 0003a5.ffffffff.0 0004ae.ffffffff.0 0003d2.ffffffff.0 0003a5.ffffffff.0 0004ae.ffffffff.0 0003d2.ffffffff.0 0003a5.ffffffff.0 0004ae.ffffffff.0 0003d2.ffffffff.0 0003a5.ffffffff.0 0003a5.ffffffff.0 0003d2.ffffffff.0 0004ae.ffffffff.0 0003a5.ffffffff.0 0003d2.ffffffff.0 0004ae.ffffffff.0 0003a5.ffffffff.0 0003d2.ffffffff.0 0004ae.ffffffff.0 0003a5.ffffffff.0 0003d2.ffffffff.0 0004ae.ffffffff.0 0003a5.ffffffff.0 0003d2.ffffffff.0 0004ae.ffffffff.0 0003a5.ffffffff.0 0003d2.ffffffff.0 0004ae.ffffffff.0 0003a5.ffffffff.0 0003d2.ffffffff.0 0004ae.ffffffff.0 0003a5.ffffffff.0 0003d2.ffffffff.0 0004ae.ffffffff.0 0003a5.ffffffff.0 0003d2.ffffffff.0 0004ae.ffffffff.0 0003a5.ffffffff.0 0003d2.ffffffff.0 0004ae.ffffffff.0 0003a5.ffffffff.0 0003d2.ffffffff.0 0004ae.ffffffff.0 0003a5.ffffffff.0 0003d2.ffffffff.0 0004ae.ffffffff.0 0003a5.ffffffff.0 0003d2.ffffffff.0 0004ae.ffffffff.0 0003a5.ffffffff.0 0003d2.ffffffff.0 0004ae.ffffffff.0
Width: 1122
VWidth: 0
GlyphClass: 1
Flags: HW
HStem: 0 21G<487 635> 1495 20G<25 189.715 932.285 1097>
VStem: 487 148<0 660>
DStem2: 179 1515 25 1515 0.475388 -0.879776<0 808.879> 561 802 635 660 0.475388 0.879776<0 808.879>
LayerCount: 2
Fore
SplineSet
25 1515 m 29
 179 1515 l 29
 561 802 l 29
 943 1515 l 29
 1097 1515 l 29
 635 660 l 29
 635 0 l 29
 487 0 l 29
 487 660 l 29
 25 1515 l 29
EndSplineSet
EndChar

StartChar: quotesingle
Encoding: 39 39 44
AltUni2: 002032.ffffffff.0 002019.ffffffff.0 0002c8.ffffffff.0 0002bc.ffffffff.0 0002b9.ffffffff.0 002032.ffffffff.0 002019.ffffffff.0 0002c8.ffffffff.0 0002bc.ffffffff.0 0002b9.ffffffff.0 002032.ffffffff.0 002019.ffffffff.0 0002c8.ffffffff.0 0002bc.ffffffff.0 0002b9.ffffffff.0 002032.ffffffff.0 002019.ffffffff.0 0002c8.ffffffff.0 0002bc.ffffffff.0 0002b9.ffffffff.0 002032.ffffffff.0 002019.ffffffff.0 0002c8.ffffffff.0 0002bc.ffffffff.0 0002b9.ffffffff.0 002032.ffffffff.0 002019.ffffffff.0 0002c8.ffffffff.0 0002bc.ffffffff.0 0002b9.ffffffff.0 002032.ffffffff.0 002019.ffffffff.0 0002c8.ffffffff.0 0002bc.ffffffff.0 0002b9.ffffffff.0 002032.ffffffff.0 002019.ffffffff.0 0002c8.ffffffff.0 0002bc.ffffffff.0 0002b9.ffffffff.0 002032.ffffffff.0 002019.ffffffff.0 0002c8.ffffffff.0 0002bc.ffffffff.0 0002b9.ffffffff.0 002032.ffffffff.0 002019.ffffffff.0 0002c8.ffffffff.0 0002bc.ffffffff.0 0002b9.ffffffff.0 002032.ffffffff.0 002019.ffffffff.0 0002c8.ffffffff.0 0002bc.ffffffff.0 0002b9.ffffffff.0 002032.ffffffff.0 002019.ffffffff.0 0002c8.ffffffff.0 0002bc.ffffffff.0 0002b9.ffffffff.0 0002c8.ffffffff.0 0002bc.ffffffff.0 0002b9.ffffffff.0 0002b9.ffffffff.0 0002bc.ffffffff.0 0002c8.ffffffff.0 0002b9.ffffffff.0 0002bc.ffffffff.0 0002c8.ffffffff.0 002019.ffffffff.0 002032.ffffffff.0 0002b9.ffffffff.0 0002bc.ffffffff.0 0002c8.ffffffff.0 002019.ffffffff.0 002032.ffffffff.0 0002b9.ffffffff.0 0002bc.ffffffff.0 0002c8.ffffffff.0 002019.ffffffff.0 002032.ffffffff.0 0002b9.ffffffff.0 0002bc.ffffffff.0 0002c8.ffffffff.0 002019.ffffffff.0 002032.ffffffff.0 0002b9.ffffffff.0 0002bc.ffffffff.0 0002c8.ffffffff.0 002019.ffffffff.0 002032.ffffffff.0 0002b9.ffffffff.0 0002bc.ffffffff.0 0002c8.ffffffff.0 002019.ffffffff.0 002032.ffffffff.0 0002b9.ffffffff.0 0002bc.ffffffff.0 0002c8.ffffffff.0 002019.ffffffff.0 002032.ffffffff.0 0002b9.ffffffff.0 0002bc.ffffffff.0 0002c8.ffffffff.0 002019.ffffffff.0 002032.ffffffff.0 0002b9.ffffffff.0 0002bc.ffffffff.0 0002c8.ffffffff.0 002019.ffffffff.0 002032.ffffffff.0 0002b9.ffffffff.0 0002bc.ffffffff.0 0002c8.ffffffff.0 002019.ffffffff.0 002032.ffffffff.0 0002b9.ffffffff.0 0002bc.ffffffff.0 0002c8.ffffffff.0 002019.ffffffff.0 002032.ffffffff.0 0002b9.ffffffff.0 0002bc.ffffffff.0 0002c8.ffffffff.0 002019.ffffffff.0 002032.ffffffff.0 0002b9.ffffffff.0 0002bc.ffffffff.0 0002c8.ffffffff.0 002019.ffffffff.0 002032.ffffffff.0
Width: 334
VWidth: 0
GlyphClass: 1
Flags: HW
HStem: 1296 150<92 157>
VStem: 92 150<1296 1446>
LayerCount: 2
Back
SplineSet
242 1296 m 1
 204 1217 118 1050 114 1046 c 1
 70 1046 l 17
 157 1296 l 1
 92 1296 l 1
 92 1446 l 1
 242 1446 l 1
 242 1296 l 1
EndSplineSet
Fore
Refer: 70 44 S 1 0 0 1 0 1296 2
EndChar

StartChar: f
Encoding: 102 102 45
AltUni2: 001da0.ffffffff.0 001da0.ffffffff.0 001da0.ffffffff.0 001da0.ffffffff.0 001da0.ffffffff.0 001da0.ffffffff.0 001da0.ffffffff.0 001da0.ffffffff.0 001da0.ffffffff.0 001da0.ffffffff.0 001da0.ffffffff.0 001da0.ffffffff.0 001da0.ffffffff.0 001da0.ffffffff.0 001da0.ffffffff.0 001da0.ffffffff.0 001da0.ffffffff.0 001da0.ffffffff.0 001da0.ffffffff.0 001da0.ffffffff.0 001da0.ffffffff.0 001da0.ffffffff.0 001da0.ffffffff.0 001da0.ffffffff.0 001da0.ffffffff.0
Width: 570
VWidth: 0
GlyphClass: 1
Flags: HW
HStem: 0 21G<186 318> 943 112<13 186 318 557> 1405 119<347.62 557>
VStem: 186 132<0 943 1055 1378.68>
LayerCount: 2
Fore
SplineSet
13 943 m 25
 13 1055 l 25
 186 1055 l 25
 186 1278 l 18
 186 1488 366 1524 475 1524 c 0
 522 1524 556 1517 557 1515 c 9
 557 1404 l 17
 468 1404 l 0
 402 1403 318 1389 318 1278 c 10
 318 1055 l 25
 557 1055 l 25
 557 943 l 25
 318 943 l 25
 318 0 l 25
 186 0 l 25
 186 943 l 25
 13 943 l 25
EndSplineSet
EndChar

StartChar: g
Encoding: 103 103 46
Width: 1005
VWidth: 0
GlyphClass: 1
Flags: HW
HStem: -445 112<250.625 766.985> 305 112<347.773 640.633> 954 112<351.626 647.468 803.673 973>
VStem: 42 132<-264.94 -71.7184> 98 132<169.205 292.694 542.764 830.159> 744 132<524.417 853.484> 838 132<-266.848 -68.4493>
LayerCount: 2
Fore
SplineSet
42 -168 m 31xf2
 42 -47 197 9 264 47 c 5
 211 58 98 104 98 189 c 31
 98 286 201 345 257 381 c 5
 189 439 106 555 106 689 c 31
 106 903 290 1066 504 1066 c 31
 600 1066 667 1029 735 983 c 5
 840 1068 912 1066 973 1068 c 13
 973 948 l 21
 973 948 973 948 971 948 c 4
 825 948 800 929 800 917 c 5
 846 833 876 783 876 689 c 31
 876 480 729 305 504 305 c 7
 433 305 374 323 326 343 c 5
 295 313 230 289 230 232 c 31xec
 230 151 331 156 416 139 c 5
 496 130 536 149 750 98 c 4
 875 68 970 -28 970 -159 c 7
 970 -358 795 -445 491 -445 c 7
 285 -445 42 -374 42 -168 c 31xf2
174 -169 m 7xf2
 174 -305 350 -333 488 -333 c 31
 640 -333 838 -330 838 -159 c 7
 838 29 449 0 395 16 c 5
 293 -22 174 -57 174 -169 c 7xf2
238 689 m 7
 238 540 330 417 504 417 c 7
 666 417 744 548 744 689 c 31xe4
 744 828 669 954 504 954 c 7
 349 954 238 845 238 689 c 7
EndSplineSet
EndChar

StartChar: k
Encoding: 107 107 47
Width: 911
VWidth: 0
GlyphClass: 1
Flags: W
HStem: 0 21G<130 271 730.309 886> 1035 20G<650.54 824> 1495 20G<130 271>
VStem: 130 141<0 350 544 1515>
DStem2: 271 544 458 582 0.617181 0.786822<0 145.312 290.556 645.852> 548 696 458 582 0.436844 -0.899537<63.2313 709.952>
LayerCount: 2
Back
SplineSet
546 693 m 29
 884 -3 l 29
271 544 m 25
 680 1073 l 25
 838 1073 l 25
 548 696 l 25
458 582 m 25
 271 350 l 25
EndSplineSet
Fore
SplineSet
130 0 m 29
 130 1515 l 29
 271 1515 l 29
 271 544 l 29
 666 1055 l 29
 824 1055 l 29
 548 696 l 29
 886 0 l 29
 740 0 l 29
 458 582 l 29
 271 350 l 29
 271 0 l 29
 130 0 l 29
EndSplineSet
EndChar

StartChar: l
Encoding: 108 108 48
AltUni2: 0002e1.ffffffff.0 0002e1.ffffffff.0 0002e1.ffffffff.0 0002e1.ffffffff.0 0002e1.ffffffff.0 0002e1.ffffffff.0 0002e1.ffffffff.0 0002e1.ffffffff.0 0002e1.ffffffff.0 0002e1.ffffffff.0 0002e1.ffffffff.0 0002e1.ffffffff.0 0002e1.ffffffff.0 0002e1.ffffffff.0 0002e1.ffffffff.0 0002e1.ffffffff.0 0002e1.ffffffff.0 0002e1.ffffffff.0 0002e1.ffffffff.0 0002e1.ffffffff.0 0002e1.ffffffff.0 0002e1.ffffffff.0 0002e1.ffffffff.0 0002e1.ffffffff.0 0002e1.ffffffff.0 0002e1.ffffffff.0 0002e1.ffffffff.0
Width: 392
VWidth: 0
GlyphClass: 1
Flags: HW
HStem: -2 21G<129 261> 1495 20G<129 261>
VStem: 129 132<-2 1515>
LayerCount: 2
Fore
SplineSet
129 -2 m 5
 129 1515 l 5
 261 1515 l 5
 261 -2 l 5
 129 -2 l 5
EndSplineSet
EndChar

StartChar: m
Encoding: 109 109 49
Width: 1577
VWidth: 0
GlyphClass: 1
Flags: HW
HStem: 0 21G<120 252 728 860 1335 1467> 954 112<430.264 671.792 1035.29 1276.55>
VStem: 120 132<0 824.632 881 1055> 728 132<0 824.227> 1335 132<0 892.583>
LayerCount: 2
Back
SplineSet
900 786 m 1
 900 984 779 1066 637 1066 c 3
 467 1066 355 943 252 842 c 1
 292 865 l 1
 292 1055 l 1
 160 1055 l 1
 160 0 l 1
 292 0 l 1
 292 781 l 1
 370 866 480 954 599 954 c 3
 673 954 768 894 768 786 c 2
 768 0 l 1
 900 0 l 1
 900 781 l 1
 978 866 1087 954 1206 954 c 3
 1280 954 1375 894 1375 786 c 2
 1375 0 l 1
 1507 0 l 1
 1507 786 l 2
 1507 984 1386 1066 1244 1066 c 3
 1074 1066 962 943 859 842 c 1
 900 786 l 1
EndSplineSet
Fore
SplineSet
120 0 m 1
 120 1055 l 1
 252 1055 l 1
 252 881 l 1
 344 972 449 1066 597 1066 c 3
 716 1066 820 1008 851 873 c 1
 946 967 1051 1066 1204 1066 c 3
 1346 1066 1467 984 1467 786 c 6
 1467 0 l 1
 1335 0 l 1
 1335 786 l 2
 1335 894 1240 954 1166 954 c 3
 1047 954 938 866 860 781 c 1
 860 0 l 1
 728 0 l 1
 728 786 l 2
 728 894 633 954 559 954 c 3
 440 954 330 866 252 781 c 1
 252 0 l 1
 120 0 l 1
EndSplineSet
EndChar

StartChar: p
Encoding: 112 112 50
AltUni2: 000440.ffffffff.0 0003f1.ffffffff.0 0003c1.ffffffff.0 000440.ffffffff.0 0003f1.ffffffff.0 0003c1.ffffffff.0 000440.ffffffff.0 0003f1.ffffffff.0 0003c1.ffffffff.0 000440.ffffffff.0 0003f1.ffffffff.0 0003c1.ffffffff.0 000440.ffffffff.0 0003f1.ffffffff.0 0003c1.ffffffff.0 000440.ffffffff.0 0003f1.ffffffff.0 0003c1.ffffffff.0 000440.ffffffff.0 0003f1.ffffffff.0 0003c1.ffffffff.0 000440.ffffffff.0 0003f1.ffffffff.0 0003c1.ffffffff.0 000440.ffffffff.0 0003f1.ffffffff.0 0003c1.ffffffff.0 000440.ffffffff.0 0003f1.ffffffff.0 0003c1.ffffffff.0 000440.ffffffff.0 0003f1.ffffffff.0 0003c1.ffffffff.0 000440.ffffffff.0 0003f1.ffffffff.0 0003c1.ffffffff.0 000440.ffffffff.0 0003f1.ffffffff.0 0003c1.ffffffff.0 000440.ffffffff.0 0003c1.ffffffff.0 0003f1.ffffffff.0 0003c1.ffffffff.0 0003f1.ffffffff.0 000440.ffffffff.0 0003c1.ffffffff.0 0003f1.ffffffff.0 000440.ffffffff.0 0003c1.ffffffff.0 0003f1.ffffffff.0 000440.ffffffff.0 0003c1.ffffffff.0 0003f1.ffffffff.0 000440.ffffffff.0 0003c1.ffffffff.0 0003f1.ffffffff.0 000440.ffffffff.0 0003c1.ffffffff.0 0003f1.ffffffff.0 000440.ffffffff.0 0003c1.ffffffff.0 0003f1.ffffffff.0 000440.ffffffff.0 0003c1.ffffffff.0 0003f1.ffffffff.0 000440.ffffffff.0 0003c1.ffffffff.0 0003f1.ffffffff.0 000440.ffffffff.0 0003c1.ffffffff.0 0003f1.ffffffff.0 000440.ffffffff.0 0003c1.ffffffff.0 0003f1.ffffffff.0 000440.ffffffff.0 0003c1.ffffffff.0 0003f1.ffffffff.0 000440.ffffffff.0 0003c1.ffffffff.0 0003f1.ffffffff.0 000440.ffffffff.0
Width: 1015
VWidth: 0
GlyphClass: 1
Flags: HW
HStem: -411 21G<129 261> -11 112<386.133 663.352> 954 112<398.127 677.677>
VStem: 129 132<-411 140 199.753 835.263 891 1055> 808 132<274.548 789.803>
LayerCount: 2
Back
SplineSet
272 -411 m 5xec
 140 -411 l 5
 140 1055 l 5
 260 1055 l 5xdc
 272 891.001 l 5
 299 938.001 403 1070 568 1072 c 5
 845 1066 947 765 951 547 c 5
 951 220.666 797.716 -15 555 -15 c 4
 416 -15 290 102 272 140 c 5
 272 -411 l 5xec
521 97.001 m 7
 669 97.001 818.99 186.987 818.99 547 c 7
 818.99 776 742 959.995 547 959.995 c 7xec
 415.475 959.995 342.953 876.386 272 779 c 5
 272 254 l 5
 328 174 419.955 97.001 521 97.001 c 7
EndSplineSet
Fore
SplineSet
129 -411 m 1
 129 1055 l 1
 261 1055 l 5
 261 891 l 1
 288 938 396 1066 557 1066 c 3
 808 1066 940 793 940 547 c 3
 940 277 824 -11 544 -11 c 3
 405 -11 279 102 261 140 c 1
 261 -411 l 1
 129 -411 l 1
261 254 m 1
 317 174 409 101 510 101 c 3
 658 101 808 187 808 547 c 3
 808 776 731 954 536 954 c 3
 404 954 332 876 261 779 c 1
 261 254 l 1
EndSplineSet
EndChar

StartChar: r
Encoding: 114 114 51
AltUni2: 0002b3.ffffffff.0 0002b3.ffffffff.0 0002b3.ffffffff.0 0002b3.ffffffff.0 0002b3.ffffffff.0 0002b3.ffffffff.0 0002b3.ffffffff.0 0002b3.ffffffff.0 0002b3.ffffffff.0 0002b3.ffffffff.0 0002b3.ffffffff.0 0002b3.ffffffff.0 0002b3.ffffffff.0 0002b3.ffffffff.0 0002b3.ffffffff.0 0002b3.ffffffff.0 0002b3.ffffffff.0 0002b3.ffffffff.0 0002b3.ffffffff.0 0002b3.ffffffff.0 0002b3.ffffffff.0 0002b3.ffffffff.0 0002b3.ffffffff.0 0002b3.ffffffff.0 0002b3.ffffffff.0 0002b3.ffffffff.0 0002b3.ffffffff.0
Width: 639
VWidth: 0
GlyphClass: 1
Flags: HW
HStem: 0 21G<120 252> 952 112<578.517 614>
VStem: 120 132<0 711.512 771 1055>
LayerCount: 2
Back
SplineSet
160 1055 m 1
 292 1055 l 1
 292 753 l 0
 292 750 277 724 277 727 c 1
 317.964 795.591 383.433 1062.03 617.793 1062.03 c 0
 629.439 1062.03 641.502 1061.37 654 1060 c 1
 654 948 l 1
 484 925 408 862 293 613 c 1
 292 0 l 1
 160 0 l 1
 160 411 160 317 160 1055 c 1
EndSplineSet
Fore
SplineSet
120 0 m 1
 120 411 120 317 120 1055 c 1
 252 1055 l 5
 252 771 l 5
 295 866 370 1066 578 1066 c 0
 589 1066 602 1065 614 1064 c 1
 614 952 l 1
 444 929 367 876 252 627 c 5
 252 0 l 5
 120 0 l 1
EndSplineSet
EndChar

StartChar: t
Encoding: 116 116 52
Width: 606
VWidth: 0
GlyphClass: 1
Flags: HW
HStem: -13 112<373.317 586.621> 943 112<36 214 346 588>
VStem: 214 132<128.258 943 1055 1440>
LayerCount: 2
Fore
SplineSet
36 943 m 5
 36 1055 l 5
 214 1055 l 5
 214 1440 l 5
 346 1440 l 5
 346 1055 l 5
 588 1055 l 5
 588 943 l 5
 346 943 l 5
 346 274 l 6
 346 134 388 99 479 99 c 4
 511 99 588 109 588 110 c 5
 588 11 l 5
 530 -10 494 -13 431 -13 c 7
 344 -13 214 -2 214 274 c 6
 214 943 l 5
 155 943 95 943 36 943 c 5
EndSplineSet
EndChar

StartChar: u
Encoding: 117 117 53
Width: 979
VWidth: 0
GlyphClass: 1
Flags: HW
HStem: -11 112<319.45 558.581> 1035 20G<129 261 737 869>
VStem: 129 132<162.417 1055> 737 132<0 174 230.368 1055>
LayerCount: 2
Back
SplineSet
900 0 m 1
 768 0 l 1
 768 190 l 1
 808 213 l 1
 705 112 593 -11 423 -11 c 3
 281 -11 160 71 160 269 c 2
 160 1055 l 1
 292 1055 l 1
 292 269 l 2
 292 161 387 101 461 101 c 3
 580 101 690 189 768 274 c 1
 768 1055 l 1
 900 1055 l 1
 900 0 l 1
EndSplineSet
Fore
SplineSet
129 269 m 6
 129 1055 l 5
 261 1055 l 5
 261 269 l 6
 261 161 356 101 430 101 c 7
 549 101 659 189 737 274 c 5
 737 1055 l 5
 869 1055 l 5
 869 0 l 5
 737 0 l 5
 737 174 l 5
 644 83 540 -11 392 -11 c 7
 250 -11 129 71 129 269 c 6
EndSplineSet
EndChar

StartChar: v
Encoding: 118 118 54
Width: 901
VWidth: 0
GlyphClass: 1
Flags: HW
HStem: 0 21G<342.858 558.142> 1035 20G<25 169.117 731.883 876>
DStem2: 163 1055 25 1055 0.293576 -0.955936<0 950.56> 460 146 552 0 0.293576 0.955936<0 950.56>
LayerCount: 2
Back
SplineSet
652 0 m 25
 449 0 l 25
 125 1055 l 25
 263 1055 l 25
 541 146 l 25
 560 146 l 25
 838 1055 l 25
 976 1055 l 25
 652 0 l 25
EndSplineSet
Fore
SplineSet
25 1055 m 29
 163 1055 l 29
 441 146 l 29
 460 146 l 29
 738 1055 l 29
 876 1055 l 29
 552 0 l 29
 349 0 l 29
 25 1055 l 29
EndSplineSet
EndChar

StartChar: y
Encoding: 121 121 55
AltUni2: 000443.ffffffff.0 0002b8.ffffffff.0 000443.ffffffff.0 0002b8.ffffffff.0 000443.ffffffff.0 0002b8.ffffffff.0 000443.ffffffff.0 0002b8.ffffffff.0 000443.ffffffff.0 0002b8.ffffffff.0 000443.ffffffff.0 0002b8.ffffffff.0 000443.ffffffff.0 0002b8.ffffffff.0 000443.ffffffff.0 0002b8.ffffffff.0 000443.ffffffff.0 0002b8.ffffffff.0 000443.ffffffff.0 0002b8.ffffffff.0 000443.ffffffff.0 0002b8.ffffffff.0 000443.ffffffff.0 0002b8.ffffffff.0 000443.ffffffff.0 0002b8.ffffffff.0 000443.ffffffff.0 0002b8.ffffffff.0 0002b8.ffffffff.0 000443.ffffffff.0 0002b8.ffffffff.0 000443.ffffffff.0 0002b8.ffffffff.0 000443.ffffffff.0 0002b8.ffffffff.0 000443.ffffffff.0 0002b8.ffffffff.0 000443.ffffffff.0 0002b8.ffffffff.0 000443.ffffffff.0 0002b8.ffffffff.0 000443.ffffffff.0 0002b8.ffffffff.0 000443.ffffffff.0 0002b8.ffffffff.0 000443.ffffffff.0 0002b8.ffffffff.0 000443.ffffffff.0 0002b8.ffffffff.0 000443.ffffffff.0 0002b8.ffffffff.0 000443.ffffffff.0 0002b8.ffffffff.0 000443.ffffffff.0
Width: 905
VWidth: 0
GlyphClass: 1
Flags: W
HStem: -393 112<32.6147 279.527> 1035 20G<25 173.962 739.481 880>
DStem2: 167 1055 25 1055 0.337238 -0.941419<0 909.513> 466 196 512 -64 0.312405 0.949949<0 903.48>
LayerCount: 2
Back
SplineSet
25 1055 m 29
 167 1055 l 25
 466 196 l 17
 746 1055 l 9
 880 1055 l 25
 512 -64 l 26
 450 -252 369 -425 154 -425 c 0
 86 -425 26 -417 24 -417 c 9
 34 -296 l 17
 61 -309 101 -313 145 -313 c 3
 355 -313 404 -3 404 -3 c 10
 25 1055 l 29
EndSplineSet
Fore
SplineSet
25 1055 m 29
 167 1055 l 29
 466 196 l 21
 746 1055 l 13
 880 1055 l 29
 512 -64 l 30
 453 -243 385 -393 157 -393 c 4
 89 -393 29 -385 27 -385 c 13
 37 -264 l 21
 60 -275 104 -281 148 -281 c 7
 370 -281 404 -3 404 -3 c 14
 25 1055 l 29
EndSplineSet
EndChar

StartChar: z
Encoding: 122 122 56
AltUni2: 001dbb.ffffffff.0 001dbb.ffffffff.0 001dbb.ffffffff.0 001dbb.ffffffff.0 001dbb.ffffffff.0 001dbb.ffffffff.0 001dbb.ffffffff.0 001dbb.ffffffff.0 001dbb.ffffffff.0 001dbb.ffffffff.0 001dbb.ffffffff.0 001dbb.ffffffff.0 001dbb.ffffffff.0 001dbb.ffffffff.0 001dbb.ffffffff.0 001dbb.ffffffff.0 001dbb.ffffffff.0 001dbb.ffffffff.0 001dbb.ffffffff.0 001dbb.ffffffff.0 001dbb.ffffffff.0 001dbb.ffffffff.0 001dbb.ffffffff.0 001dbb.ffffffff.0 001dbb.ffffffff.0
Width: 779
VWidth: 0
GlyphClass: 1
Flags: HW
HStem: 0 120<186 754> 943 112<78 585>
DStem2: 25 85 186 120 0.550667 0.834725<117.873 1024.57>
LayerCount: 2
Back
SplineSet
919 1048 m 25
 367 195 l 25
716 964 m 25
 164 111 l 25
EndSplineSet
Fore
SplineSet
25 0 m 29
 25 85 l 29
 585 943 l 29
 78 943 l 29
 78 1055 l 29
 754 1055 l 29
 754 981 l 29
 186 120 l 29
 754 120 l 29
 754 0 l 29
 25 0 l 29
EndSplineSet
EndChar

StartChar: x
Encoding: 120 120 57
AltUni2: 000445.ffffffff.0 0003c7.ffffffff.0 0002e3.ffffffff.0 000445.ffffffff.0 0003c7.ffffffff.0 0002e3.ffffffff.0 000445.ffffffff.0 0003c7.ffffffff.0 0002e3.ffffffff.0 000445.ffffffff.0 0003c7.ffffffff.0 0002e3.ffffffff.0 000445.ffffffff.0 0003c7.ffffffff.0 0002e3.ffffffff.0 000445.ffffffff.0 0003c7.ffffffff.0 0002e3.ffffffff.0 000445.ffffffff.0 0003c7.ffffffff.0 0002e3.ffffffff.0 000445.ffffffff.0 0003c7.ffffffff.0 0002e3.ffffffff.0 000445.ffffffff.0 0003c7.ffffffff.0 0002e3.ffffffff.0 000445.ffffffff.0 0003c7.ffffffff.0 0002e3.ffffffff.0 000445.ffffffff.0 0003c7.ffffffff.0 0002e3.ffffffff.0 000445.ffffffff.0 0003c7.ffffffff.0 0002e3.ffffffff.0 000445.ffffffff.0 0003c7.ffffffff.0 0002e3.ffffffff.0 000445.ffffffff.0 0002e3.ffffffff.0 0003c7.ffffffff.0 0002e3.ffffffff.0 0003c7.ffffffff.0 000445.ffffffff.0 0002e3.ffffffff.0 0003c7.ffffffff.0 000445.ffffffff.0 0002e3.ffffffff.0 0003c7.ffffffff.0 000445.ffffffff.0 0002e3.ffffffff.0 0003c7.ffffffff.0 000445.ffffffff.0 0002e3.ffffffff.0 0003c7.ffffffff.0 000445.ffffffff.0 0002e3.ffffffff.0 0003c7.ffffffff.0 000445.ffffffff.0 0002e3.ffffffff.0 0003c7.ffffffff.0 000445.ffffffff.0 0002e3.ffffffff.0 0003c7.ffffffff.0 000445.ffffffff.0 0002e3.ffffffff.0 0003c7.ffffffff.0 000445.ffffffff.0 0002e3.ffffffff.0 0003c7.ffffffff.0 000445.ffffffff.0 0002e3.ffffffff.0 0003c7.ffffffff.0 000445.ffffffff.0 0002e3.ffffffff.0 0003c7.ffffffff.0 000445.ffffffff.0 0002e3.ffffffff.0 0003c7.ffffffff.0 000445.ffffffff.0
Width: 870
VWidth: 0
GlyphClass: 1
Flags: HW
HStem: 0 21G<25 185.094 684.435 845> 1035 20G<35 195.564 670.872 832>
DStem2: 25 0 173 0 0.529782 0.848134<78.4078 575.019 777.511 1243.91> 183 1055 35 1055 0.531514 -0.84705<0 460.57 664.925 1166.84>
LayerCount: 2
Back
SplineSet
65 0 m 29
 398 549 l 29
 462 656 l 29
 724 1055 l 29
 872 1055 l 29
 535 542 l 29
 478 438 l 29
 213 0 l 29
 65 0 l 29
75 1055 m 29
 223 1055 l 29
 885 0 l 29
 737 0 l 29
 75 1055 l 29
604 647 m 29
 866 1046 l 29
159 -88 m 29
 492 461 l 29
 548 568 l 29
EndSplineSet
Fore
SplineSet
25 0 m 25
 355 544 l 17
 35 1055 l 9
 183 1055 l 17
 428 665 l 9
 684 1055 l 25
 832 1055 l 25
 500 550 l 17
 845 0 l 9
 697 0 l 17
 430 425 l 13
 173 0 l 25
 25 0 l 25
EndSplineSet
EndChar

StartChar: b
Encoding: 98 98 58
Width: 994
VWidth: 0
GlyphClass: 1
Flags: HW
HStem: -11 112<380.449 655.932> 954 112<369.74 641.142> 1495 20G<120 252>
VStem: 120 132<221.523 856.969 917 1515> 787 132<268.081 782.711>
LayerCount: 2
Fore
SplineSet
94 0 m 1
 115 42 120 142 120 146 c 2
 120 1515 l 1
 252 1515 l 1
 252 917 l 1
 270 955 384 1066 523 1066 c 0
 766 1066 919 836 919 510 c 1
 915 292 813 -5 536 -11 c 1
 371 -9 279 119 252 166 c 1
 248 121 250 11 227 0 c 1
 94 0 l 1
252 278 m 1
 323 181 383 101 515 101 c 3
 710 101 787 281 787 510 c 3
 787 870 637 954 489 954 c 3
 388 954 308 883 252 803 c 1
 252 278 l 1
EndSplineSet
EndChar

StartChar: c
Encoding: 99 99 59
AltUni2: 001d9c.ffffffff.0 000441.ffffffff.0 001d9c.ffffffff.0 000441.ffffffff.0 001d9c.ffffffff.0 000441.ffffffff.0 001d9c.ffffffff.0 000441.ffffffff.0 001d9c.ffffffff.0 000441.ffffffff.0 001d9c.ffffffff.0 000441.ffffffff.0 001d9c.ffffffff.0 000441.ffffffff.0 001d9c.ffffffff.0 000441.ffffffff.0 001d9c.ffffffff.0 000441.ffffffff.0 001d9c.ffffffff.0 000441.ffffffff.0 001d9c.ffffffff.0 000441.ffffffff.0 001d9c.ffffffff.0 000441.ffffffff.0 000441.ffffffff.0 000441.ffffffff.0 000441.ffffffff.0 001d9c.ffffffff.0 000441.ffffffff.0 001d9c.ffffffff.0 000441.ffffffff.0 001d9c.ffffffff.0 000441.ffffffff.0 001d9c.ffffffff.0 000441.ffffffff.0 001d9c.ffffffff.0 000441.ffffffff.0 001d9c.ffffffff.0 000441.ffffffff.0 001d9c.ffffffff.0 000441.ffffffff.0 001d9c.ffffffff.0 000441.ffffffff.0 001d9c.ffffffff.0 000441.ffffffff.0 001d9c.ffffffff.0 000441.ffffffff.0 001d9c.ffffffff.0 000441.ffffffff.0 001d9c.ffffffff.0 000441.ffffffff.0 001d9c.ffffffff.0
Width: 926
VWidth: 0
GlyphClass: 1
Flags: W
HStem: -11 112<350.201 625.283> 954 112<345.266 629.039>
VStem: 75 132<274.337 792.176> 720 106<806.508 861.781> 741 104<224.615 258>
LayerCount: 2
Fore
SplineSet
75 520 m 3xe8
 75 849 192 1066 500 1066 c 3
 757 1066 826 813 826 813 c 1
 720 765 l 1xf0
 720 765 684 954 500 954 c 3
 272 954 207 765 207 529 c 3
 207 251 318 101 500 101 c 3
 669 101 741 308 741 308 c 1
 845 258 l 2
 845 257 751 -11 500 -11 c 7
 199 -11 75 198 75 520 c 3xe8
EndSplineSet
Validated: 1
EndChar

StartChar: j
Encoding: 106 106 60
AltUni2: 000458.ffffffff.0 0002b2.ffffffff.0 000458.ffffffff.0 0002b2.ffffffff.0 000458.ffffffff.0 0002b2.ffffffff.0 000458.ffffffff.0 0002b2.ffffffff.0 000458.ffffffff.0 0002b2.ffffffff.0 000458.ffffffff.0 0002b2.ffffffff.0 000458.ffffffff.0 0002b2.ffffffff.0 000458.ffffffff.0 0002b2.ffffffff.0 000458.ffffffff.0 0002b2.ffffffff.0 000458.ffffffff.0 0002b2.ffffffff.0 000458.ffffffff.0 0002b2.ffffffff.0 000458.ffffffff.0 0002b2.ffffffff.0 000458.ffffffff.0 0002b2.ffffffff.0 000458.ffffffff.0 0002b2.ffffffff.0 0002b2.ffffffff.0 000458.ffffffff.0 0002b2.ffffffff.0 000458.ffffffff.0 0002b2.ffffffff.0 000458.ffffffff.0 0002b2.ffffffff.0 000458.ffffffff.0 0002b2.ffffffff.0 000458.ffffffff.0 0002b2.ffffffff.0 000458.ffffffff.0 0002b2.ffffffff.0 000458.ffffffff.0 0002b2.ffffffff.0 000458.ffffffff.0 0002b2.ffffffff.0 000458.ffffffff.0 0002b2.ffffffff.0 000458.ffffffff.0 0002b2.ffffffff.0 000458.ffffffff.0 0002b2.ffffffff.0 000458.ffffffff.0 0002b2.ffffffff.0 000458.ffffffff.0
Width: 362
VWidth: 0
GlyphClass: 1
Flags: HW
HStem: -337 112<-55 82.7582> 1035 20<120 252> 1188 150<111 261>
VStem: 111 150<1188 1338> 120 132<-188.103 1055>
LayerCount: 2
Back
SplineSet
293 1515 m 1
 293 1365 l 1
 143 1365 l 1
 143 1515 l 1
 293 1515 l 1
284 0 m 2
 284 1055 l 1
 152 1055 l 1
 152 0 l 2
 152 -156 153 -216 -31 -225 c 1
 -23 -337 l 1
 149 -339 284 -343 284 0 c 2
EndSplineSet
Fore
Refer: 254 729 N 1 0 0 1 186 1066 2
Refer: 213 567 N 1 0 0 1 0 0 3
EndChar

StartChar: q
Encoding: 113 113 61
Width: 996
VWidth: 0
GlyphClass: 1
Flags: HW
HStem: -411 21G<754 886> -11 112<351.648 628.867> 954 112<337.323 616.873>
VStem: 75 132<274.548 789.803> 754 132<-411 140 199.753 835.263> 771 115<916.7 1055>
LayerCount: 2
Back
SplineSet
811 -410 m 1xf0
 943 -410 l 1
 943 1055 l 1
 823 1055 l 1xe8
 811 891.001 l 1
 784 938.001 680 1070 515 1072 c 1
 238 1066 136 765 132 547 c 1
 132 220.666 285.284 -15 528 -15 c 0
 667 -15 793 102 811 140 c 1
 811 -410 l 1xf0
562 97.001 m 3
 414 97.001 264.01 186.987 264.01 547 c 3
 264.01 776 341 959.995 536 959.995 c 3
 667.525 959.995 740.047 876.386 811 779 c 1
 811 254 l 1xf0
 755 174 663.045 97.001 562 97.001 c 3
EndSplineSet
Fore
SplineSet
75 547 m 7
 75 793 207 1066 458 1066 c 7
 619 1066 727 938 754 891 c 5xf8
 771 1055 l 5
 886 1055 l 5xf4
 886 -411 l 5
 754 -411 l 5xf8
 754 140 l 5
 736 102 610 -11 471 -11 c 7
 191 -11 75 277 75 547 c 7
207 547 m 7
 207 187 357 101 505 101 c 7
 606 101 698 174 754 254 c 5
 754 779 l 5
 683 876 611 954 479 954 c 7
 284 954 207 776 207 547 c 7
EndSplineSet
EndChar

StartChar: J
Encoding: 74 74 62
AltUni2: 000408.ffffffff.0 000408.ffffffff.0 000408.ffffffff.0 000408.ffffffff.0 000408.ffffffff.0 000408.ffffffff.0 000408.ffffffff.0 000408.ffffffff.0 000408.ffffffff.0 000408.ffffffff.0 000408.ffffffff.0 000408.ffffffff.0 000408.ffffffff.0 000408.ffffffff.0 000408.ffffffff.0 000408.ffffffff.0 000408.ffffffff.0 000408.ffffffff.0 000408.ffffffff.0 000408.ffffffff.0 000408.ffffffff.0 000408.ffffffff.0 000408.ffffffff.0 000408.ffffffff.0 000408.ffffffff.0 000408.ffffffff.0 000408.ffffffff.0
Width: 896
VWidth: 0
GlyphClass: 1
Flags: HW
HStem: -16 124<246.792 524.333> 1495 20G<613 761>
VStem: 613 148<207.326 1515>
LayerCount: 2
Back
SplineSet
166 303 m 17
 167 302 244 108 427 108 c 3
 598 108 654 237 654 429 c 10
 654 1515 l 25
 802 1515 l 25
 802 429 l 18
 802 237 736 -16 427 -16 c 3
 145 -16 70 234 70 234 c 10
 166 303 l 17
EndSplineSet
Fore
SplineSet
25 244 m 9
 128 297 l 17
 129 296 203 108 386 108 c 3
 557 108 613 237 613 429 c 10
 613 1515 l 25
 761 1515 l 25
 761 429 l 18
 761 237 695 -16 386 -16 c 3
 104 -16 29 229 25 244 c 9
EndSplineSet
EndChar

StartChar: Z
Encoding: 90 90 63
AltUni2: 000396.ffffffff.0 000396.ffffffff.0 000396.ffffffff.0 000396.ffffffff.0 000396.ffffffff.0 000396.ffffffff.0 000396.ffffffff.0 000396.ffffffff.0 000396.ffffffff.0 000396.ffffffff.0 000396.ffffffff.0 000396.ffffffff.0 000396.ffffffff.0 000396.ffffffff.0 000396.ffffffff.0 000396.ffffffff.0 000396.ffffffff.0 000396.ffffffff.0 000396.ffffffff.0 000396.ffffffff.0 000396.ffffffff.0 000396.ffffffff.0 000396.ffffffff.0 000396.ffffffff.0 000396.ffffffff.0 000396.ffffffff.0 000396.ffffffff.0
Width: 1142
VWidth: 0
GlyphClass: 1
Flags: HW
HStem: 0 142<280 1068> 1387 132<122 893>
DStem2: 68 107 280 142 0.541753 0.840538<144.27 1522.83>
LayerCount: 2
Back
SplineSet
1190 1515.17 m 29
 227 0.000976562 l 29
52 23 m 25
 1019 1523.17 l 25
EndSplineSet
Fore
SplineSet
68 0 m 29
 68 107 l 29
 893 1387 l 25
 122 1387 l 25
 122 1519 l 25
 1074 1515 l 25
 1074 1392 l 25
 280 142 l 29
 1068 142 l 29
 1068 0 l 29
 68 0 l 29
EndSplineSet
EndChar

StartChar: w
Encoding: 119 119 64
AltUni2: 0002b7.ffffffff.0 0002b7.ffffffff.0 0002b7.ffffffff.0 0002b7.ffffffff.0 0002b7.ffffffff.0 0002b7.ffffffff.0 0002b7.ffffffff.0 0002b7.ffffffff.0 0002b7.ffffffff.0 0002b7.ffffffff.0 0002b7.ffffffff.0 0002b7.ffffffff.0 0002b7.ffffffff.0 0002b7.ffffffff.0 0002b7.ffffffff.0 0002b7.ffffffff.0 0002b7.ffffffff.0 0002b7.ffffffff.0 0002b7.ffffffff.0 0002b7.ffffffff.0 0002b7.ffffffff.0 0002b7.ffffffff.0 0002b7.ffffffff.0 0002b7.ffffffff.0 0002b7.ffffffff.0 0002b7.ffffffff.0 0002b7.ffffffff.0
Width: 1316
VWidth: 0
GlyphClass: 1
Flags: W
HStem: 0 21G<306.559 451.969 866.462 995.706> 1035 20G<25 153.836 582.767 713.65 1150.45 1291>
DStem2: 148 1055 25 1055 0.262498 -0.964933<0 828.021> 380 260 447 0 0.241124 0.970494<0 597.423> 708 1055 648 809 0.266845 -0.963739<221.069 831.299> 934 255 990 0 0.27436 0.961627<0 830.21>
LayerCount: 2
Back
SplineSet
132 1060.73 m 25
 255.199 1060.73 l 25
 487.6 260.4 l 25
 694.8 1060.73 l 25
 815.199 1060.73 l 25
 1042 254.8 l 25
 1263.2 1060.73 l 25
 1397.6 1060.73 l 25
 1098 0 l 25
 980.399 0 l 25
 756.399 809.2 l 25
 554.8 0 l 25
 420.399 0 l 25
 132 1060.73 l 25
EndSplineSet
Fore
SplineSet
25 1055 m 25
 148 1055 l 25
 380 260 l 25
 588 1055 l 25
 708 1055 l 25
 934 255 l 25
 1156 1055 l 25
 1291 1055 l 25
 990 0 l 25
 872 0 l 25
 648 809 l 25
 447 0 l 25
 312 0 l 25
 25 1055 l 25
EndSplineSet
Validated: 1
EndChar

StartChar: four
Encoding: 52 52 65
AltUni2: 002074.ffffffff.0 002074.ffffffff.0 002074.ffffffff.0 002074.ffffffff.0 002074.ffffffff.0 002074.ffffffff.0 002074.ffffffff.0 002074.ffffffff.0 002074.ffffffff.0 002074.ffffffff.0 002074.ffffffff.0 002074.ffffffff.0 002074.ffffffff.0 002074.ffffffff.0 002074.ffffffff.0 002074.ffffffff.0 002074.ffffffff.0 002074.ffffffff.0 002074.ffffffff.0 002074.ffffffff.0 002074.ffffffff.0 002074.ffffffff.0 002074.ffffffff.0 002074.ffffffff.0 002074.ffffffff.0
Width: 1225
VWidth: 0
GlyphClass: 1
Flags: HW
HStem: 0 21G<756 904> 390 124<221 756 904 1135> 1495 20G<712.945 904>
VStem: 756 148<0 390 514 1340>
DStem2: 70 510 221 514 0.546598 0.837395<85.8859 1070>
LayerCount: 2
Back
SplineSet
786 1340 m 25
 262 530 l 25
-51 411 m 25
 670 1515.15 l 25
700 1340 m 25
 159 504 l 25
EndSplineSet
Fore
SplineSet
70 390 m 25
 70 510 l 25
 726 1515 l 25
 904 1515 l 25
 904 514 l 25
 1135 514 l 25
 1135 390 l 25
 904 390 l 25
 904 0 l 25
 756 0 l 25
 756 390 l 25
 70 390 l 25
221 514 m 25
 756 514 l 25
 756 1340 l 25
 221 514 l 25
EndSplineSet
EndChar

StartChar: Eth
Encoding: 208 208 66
AltUni2: 000189.ffffffff.0 000189.ffffffff.0 000189.ffffffff.0 000189.ffffffff.0 000189.ffffffff.0 000189.ffffffff.0 000189.ffffffff.0 000189.ffffffff.0 000189.ffffffff.0 000189.ffffffff.0 000189.ffffffff.0 000189.ffffffff.0 000189.ffffffff.0 000189.ffffffff.0 000189.ffffffff.0 000189.ffffffff.0 000189.ffffffff.0 000189.ffffffff.0 000189.ffffffff.0 000189.ffffffff.0 000189.ffffffff.0 000189.ffffffff.0 000189.ffffffff.0 000189.ffffffff.0 000189.ffffffff.0 000189.ffffffff.0 000189.ffffffff.0 000189.ffffffff.0 000189.ffffffff.0
Width: 1284
VWidth: 0
GlyphClass: 1
Flags: HW
HStem: 0 124<285 720.073> 676 136<9 137 285 609> 1391 124<285 719.374>
VStem: 137 148<124 676 812 1391> 1008 148<453.935 1079.57>
LayerCount: 2
Back
SplineSet
144 676 m 5
 9 676 l 5
 9 811 l 5
 144 811 l 5
284 811 m 5
 609 811 l 5
 609 676 l 5
 284 676 l 5
EndSplineSet
Fore
SplineSet
9 676 m 25
 9 812 l 25
 137 812 l 17
 137 1515 l 9
 498 1515 l 18
 1032 1515 1156 1140 1156 745 c 27
 1156 357 980 0 498 0 c 10
 137 0 l 17
 137 676 l 9
 9 676 l 25
285 124 m 9
 498 124 l 18
 939 124 1008 513 1008 745 c 3
 1008 1065 930 1391 498 1391 c 10
 285 1391 l 17
 285 812 l 9
 609 812 l 25
 609 676 l 25
 285 676 l 17
 285 124 l 9
EndSplineSet
EndChar

StartChar: parenright
Encoding: 41 41 67
Width: 546
VWidth: 0
GlyphClass: 1
Flags: HW
VStem: 387 148<373.589 1003.97>
LayerCount: 2
Fore
SplineSet
92 1575 m 9
 208 1653 l 17
 211 1649 535 1230 535 693 c 3
 535 192 215 -285 213 -288 c 13
 97 -210 l 17
 98 -208 387 225 387 693 c 3
 387 1155 99 1565 92 1575 c 9
EndSplineSet
EndChar

StartChar: at
Encoding: 64 64 68
Width: 1609
VWidth: 0
GlyphClass: 1
Flags: HW
HStem: -118 114.185<595.038 1047.34> 153.973 112<1147.48 1321.9> 249 112<647.894 886.003> 866.057 118.85<705.275 969.273> 1232 101.64<582.36 1045.28>
VStem: 79.8408 119.318<385.333 851.763> 451.159 132<429.294 732.911> 994.159 131.001<291.041 407 458.121 837.823> 1015.16 110<946.12 998> 1412.16 117<387.485 871.562>
LayerCount: 2
Back
SplineSet
506 716 m 5
 518.922 746.558 l 5
 534.966 775.598 l 5
 553.959 802.801 l 5
 575.691 827.87 l 5
 599.924 850.531 l 5
 626.394 870.534 l 5
 654.809 887.661 l 5
 684.859 901.723 l 5
 716.214 912.568 l 5
 748.531 920.076 l 5
 781.455 924.164 l 5
 814.627 924.789 l 5
 847.682 921.942 l 5
 880.259 915.657 l 5
 912 906 l 5
 942.558 893.078 l 5
 971.598 877.034 l 5
 998.801 858.041 l 5
 1023.87 836.309 l 5
 1046.53 812.076 l 5
 1066.53 785.606 l 5
 1083.66 757.191 l 5
 1097.72 727.141 l 5
 1108.57 695.786 l 5
 1116.08 663.469 l 5
 1120.16 630.545 l 5
 1120.79 597.373 l 5
 1117.94 564.318 l 5
 1111.66 531.741 l 5
 1102 500 l 5
 1089.08 469.442 l 5
 1073.03 440.402 l 5
 1054.04 413.199 l 5
 1032.31 388.13 l 5
 1008.08 365.469 l 5
 981.606 345.466 l 5
 953.191 328.339 l 5
 923.141 314.277 l 5
 891.786 303.432 l 5
 859.469 295.924 l 5
 826.545 291.836 l 5
 793.373 291.211 l 5
 760.318 294.058 l 5
 727.741 300.343 l 5
 696 310 l 5
 665.442 322.922 l 5
 636.402 338.966 l 5
 609.199 357.959 l 5
 584.13 379.691 l 5
 561.469 403.924 l 5
 541.466 430.394 l 5
 524.339 458.809 l 5
 510.277 488.859 l 5
 499.432 520.214 l 5
 491.924 552.531 l 5
 487.836 585.455 l 5
 487.211 618.627 l 5
 490.058 651.682 l 5
 496.343 684.259 l 5
 506 716 l 5
384.353 1138.58 m 5
 441.228 1179.83 l 5
 502.104 1214.91 l 5
 566.313 1243.44 l 5
 633.152 1265.09 l 5
 701.89 1279.65 l 5
 771.771 1286.93 l 5
 842.031 1286.88 l 5
 911.9 1279.47 l 5
 980.614 1264.81 l 5
 1047.42 1243.04 l 5
 1111.58 1214.41 l 5
 1172.4 1179.23 l 5
 1229.21 1137.89 l 5
 1281.38 1090.83 l 5
 1328.35 1038.58 l 5
 1369.6 981.705 l 5
 1404.68 920.83 l 5
 1433.21 856.62 l 5
 1454.87 789.781 l 5
 1469.42 721.044 l 5
 1476.71 651.162 l 5
 1476.65 580.902 l 5
 1469.25 511.032 l 5
 1454.58 442.319 l 5
 1432.82 375.516 l 5
 1404.19 311.354 l 5
 1369 250.535 l 5
 1327.66 193.727 l 5
 1280.6 141.552 l 5
 1228.35 94.5811 l 5
 1171.48 53.3301 l 5
 1110.6 18.249 l 5
 1046.39 -10.2754 l 5
 979.552 -31.9326 l 5
 910.814 -46.4844 l 5
 840.934 -53.7715 l 5
 770.673 -53.7139 l 5
 700.804 -46.3125 l 5
 632.091 -31.6475 l 5
 565.287 -9.88184 l 5
 501.124 18.748 l 5
 440.306 53.9287 l 5
 383.498 95.2734 l 5
 331.323 142.329 l 5
 284.353 194.581 l 5
 243.101 251.457 l 5
 208.021 312.333 l 5
 179.495 376.542 l 5
 157.839 443.382 l 5
 143.287 512.118 l 5
 136 582 l 5
 136.058 652.261 l 5
 143.459 722.13 l 5
 158.123 790.843 l 5
 179.89 857.646 l 5
 208.52 921.81 l 5
 243.699 982.628 l 5
 285.044 1039.44 l 5
 332.101 1091.61 l 5
 384.353 1138.58 l 5
EndSplineSet
Fore
SplineSet
79.8408 615.021 m 3
 79.8408 1124.5 489.13 1333.64 816.457 1333.64 c 3
 1193.58 1333.64 1529.16 1032.78 1529.16 656 c 11
 1529 425 1476.02 153.973 1212.65 153.973 c 0
 1059.8 153.973 994.159 277.749 994.159 407 c 1xdf40
 985.159 399 930.159 249 737.159 249 c 3
 499.159 249 451.159 452.889 451.159 566 c 3
 451.159 782.475 637.68 984.907 825.682 984.907 c 0
 883.494 984.907 941.447 965.764 994.159 922 c 1xbf40
 1015.16 998 l 25
 1125.16 998 l 25xbec0
 1125 755 1125.16 811.245 1125.16 375.484 c 0
 1125.16 300.675 1194.04 265.973 1241.42 265.973 c 0
 1360.87 265.973 1412.16 484.083 1412.16 656 c 11
 1412 978 1149.21 1232 821.159 1232 c 3
 615.12 1232 199.159 1118.56 199.159 602 c 3
 199.159 302.32 436.967 3 824 3 c 7
 990.108 3 1067 69 1066.75 68.8154 c 9
 1126.75 -21.1846 l 17
 1128 -22 1030.03 -111.185 850.745 -111.185 c 3
 304.152 -111.185 79.8408 277.013 79.8408 615.021 c 3
583.159 570 m 3
 583.159 464 650.159 361 756.159 361 c 27
 864.159 361 958.159 462 994.159 504 c 1
 994.159 810 l 1
 941.514 849.035 888.35 866.057 838.523 866.057 c 0
 697.461 866.057 583.159 729.625 583.159 570 c 3
EndSplineSet
EndChar

StartChar: period
Encoding: 46 46 69
AltUni2: 002024.ffffffff.0 002024.ffffffff.0 002024.ffffffff.0 002024.ffffffff.0 002024.ffffffff.0 002024.ffffffff.0 002024.ffffffff.0 002024.ffffffff.0 002024.ffffffff.0 002024.ffffffff.0 002024.ffffffff.0 002024.ffffffff.0 002024.ffffffff.0 002024.ffffffff.0 002024.ffffffff.0 002024.ffffffff.0 002024.ffffffff.0 002024.ffffffff.0 002024.ffffffff.0 002024.ffffffff.0 002024.ffffffff.0 002024.ffffffff.0 002024.ffffffff.0 002024.ffffffff.0 002024.ffffffff.0
Width: 334
VWidth: 0
GlyphClass: 1
Flags: HWO
HStem: 0 150<92 242>
VStem: 92 150<0 150>
LayerCount: 2
Fore
SplineSet
92 0 m 5
 92 150 l 5
 242 150 l 5
 242 0 l 5
 92 0 l 5
EndSplineSet
EndChar

StartChar: comma
Encoding: 44 44 70
Width: 334
VWidth: 0
GlyphClass: 1
Flags: HW
HStem: 0 150<92 157>
VStem: 92 150<0 150>
LayerCount: 2
Fore
SplineSet
70 -250 m 21
 157 0 l 5
 92 0 l 5
 92 150 l 5
 242 150 l 5
 242 0 l 5
 204 -79 118 -246 114 -250 c 5
 70 -250 l 21
EndSplineSet
EndChar

StartChar: semicolon
Encoding: 59 59 71
AltUni2: 00037e.ffffffff.0 00037e.ffffffff.0 00037e.ffffffff.0 00037e.ffffffff.0 00037e.ffffffff.0 00037e.ffffffff.0 00037e.ffffffff.0 00037e.ffffffff.0 00037e.ffffffff.0 00037e.ffffffff.0 00037e.ffffffff.0 00037e.ffffffff.0 00037e.ffffffff.0 00037e.ffffffff.0 00037e.ffffffff.0 00037e.ffffffff.0 00037e.ffffffff.0 00037e.ffffffff.0 00037e.ffffffff.0 00037e.ffffffff.0 00037e.ffffffff.0 00037e.ffffffff.0 00037e.ffffffff.0 00037e.ffffffff.0 00037e.ffffffff.0 00037e.ffffffff.0 00037e.ffffffff.0
Width: 334
VWidth: 0
GlyphClass: 1
Flags: HW
HStem: 0 150<92 157> 905 150<92 242>
VStem: 92 150<0 150 905 1055>
LayerCount: 2
Fore
SplineSet
70 -250 m 21
 157 0 l 5
 92 0 l 5
 92 150 l 5
 242 150 l 5
 242 0 l 5
 204 -79 118 -246 114 -250 c 5
 70 -250 l 21
92 905 m 5
 92 1055 l 5
 242 1055 l 5
 242 905 l 5
 92 905 l 5
EndSplineSet
EndChar

StartChar: colon
Encoding: 58 58 72
Width: 334
VWidth: 0
GlyphClass: 1
Flags: HW
HStem: 0 150<92 242> 905 150<92 242>
VStem: 92 150<0 150 905 1055>
LayerCount: 2
Fore
SplineSet
92 0 m 1
 92 150 l 1
 242 150 l 1
 242 0 l 1
 92 0 l 1
92 905 m 1
 92 1055 l 1
 242 1055 l 1
 242 905 l 1
 92 905 l 1
EndSplineSet
EndChar

StartChar: acute
Encoding: 180 180 73
AltUni2: 001ffd.ffffffff.0 000341.ffffffff.0 000301.ffffffff.0 001ffd.ffffffff.0 000341.ffffffff.0 000301.ffffffff.0 001ffd.ffffffff.0 000341.ffffffff.0 000301.ffffffff.0 001ffd.ffffffff.0 000341.ffffffff.0 000301.ffffffff.0 001ffd.ffffffff.0 000341.ffffffff.0 000301.ffffffff.0 001ffd.ffffffff.0 000341.ffffffff.0 000301.ffffffff.0 001ffd.ffffffff.0 000341.ffffffff.0 000301.ffffffff.0 001ffd.ffffffff.0 000341.ffffffff.0 000301.ffffffff.0 001ffd.ffffffff.0 000341.ffffffff.0 000301.ffffffff.0 001ffd.ffffffff.0 000341.ffffffff.0 000301.ffffffff.0 001ffd.ffffffff.0 000341.ffffffff.0 000301.ffffffff.0 001ffd.ffffffff.0 000341.ffffffff.0 000301.ffffffff.0 000341.ffffffff.0 000301.ffffffff.0 000301.ffffffff.0 000341.ffffffff.0 000301.ffffffff.0 000341.ffffffff.0 001ffd.ffffffff.0 000301.ffffffff.0 000341.ffffffff.0 001ffd.ffffffff.0 000301.ffffffff.0 000341.ffffffff.0 001ffd.ffffffff.0 000301.ffffffff.0 000341.ffffffff.0 001ffd.ffffffff.0 000301.ffffffff.0 000341.ffffffff.0 001ffd.ffffffff.0 000301.ffffffff.0 000341.ffffffff.0 001ffd.ffffffff.0 000301.ffffffff.0 000341.ffffffff.0 001ffd.ffffffff.0 000301.ffffffff.0 000341.ffffffff.0 001ffd.ffffffff.0 000301.ffffffff.0 000341.ffffffff.0 001ffd.ffffffff.0 000301.ffffffff.0 000341.ffffffff.0 001ffd.ffffffff.0 000301.ffffffff.0 000341.ffffffff.0 001ffd.ffffffff.0 000301.ffffffff.0 000341.ffffffff.0 001ffd.ffffffff.0 000301.ffffffff.0 000341.ffffffff.0 001ffd.ffffffff.0
Width: 683
VWidth: 0
GlyphClass: 1
Flags: HW
HStem: 1095 360
VStem: 122 382
LayerCount: 2
Back
SplineSet
188 1095 m 1
 122 1160 l 1
 417 1455 l 5
 483 1390 l 5
 188 1095 l 1
188 1095 m 5
 122 1160 l 5
 495 1533 l 5
 561 1468 l 5
 188 1095 l 5
278 1393 m 5
 324 1313 l 5
 54 1157 l 5
 8 1237 l 5
 278 1393 l 5
EndSplineSet
Fore
SplineSet
122 1160 m 1
 417 1455 l 1
 504 1368 l 1
 188 1095 l 1
 122 1160 l 1
EndSplineSet
EndChar

StartChar: grave
Encoding: 96 96 74
AltUni2: 002035.ffffffff.0 002018.ffffffff.0 001fef.ffffffff.0 002035.ffffffff.0 002018.ffffffff.0 001fef.ffffffff.0 002035.ffffffff.0 002018.ffffffff.0 001fef.ffffffff.0 002035.ffffffff.0 002018.ffffffff.0 001fef.ffffffff.0 002035.ffffffff.0 002018.ffffffff.0 001fef.ffffffff.0 002035.ffffffff.0 002018.ffffffff.0 001fef.ffffffff.0 002035.ffffffff.0 002018.ffffffff.0 001fef.ffffffff.0 002035.ffffffff.0 002018.ffffffff.0 001fef.ffffffff.0 002035.ffffffff.0 002018.ffffffff.0 001fef.ffffffff.0 002035.ffffffff.0 002018.ffffffff.0 001fef.ffffffff.0 002035.ffffffff.0 002018.ffffffff.0 001fef.ffffffff.0 002035.ffffffff.0 002018.ffffffff.0 001fef.ffffffff.0 002018.ffffffff.0 002035.ffffffff.0 001fef.ffffffff.0 001fef.ffffffff.0 002018.ffffffff.0 002035.ffffffff.0 001fef.ffffffff.0 002018.ffffffff.0 002035.ffffffff.0 001fef.ffffffff.0 002018.ffffffff.0 002035.ffffffff.0 001fef.ffffffff.0 002018.ffffffff.0 002035.ffffffff.0 001fef.ffffffff.0 002018.ffffffff.0 002035.ffffffff.0 001fef.ffffffff.0 002018.ffffffff.0 002035.ffffffff.0 001fef.ffffffff.0 002018.ffffffff.0 002035.ffffffff.0 001fef.ffffffff.0 002018.ffffffff.0 002035.ffffffff.0 001fef.ffffffff.0 002018.ffffffff.0 002035.ffffffff.0 001fef.ffffffff.0 002018.ffffffff.0 002035.ffffffff.0 001fef.ffffffff.0 002018.ffffffff.0 002035.ffffffff.0 001fef.ffffffff.0 002018.ffffffff.0 002035.ffffffff.0
Width: 683
VWidth: 0
GlyphClass: 1
Flags: HW
HStem: 1095 360
VStem: 179 382
LayerCount: 2
Back
SplineSet
178 1367 m 29
 266 1455 l 29
EndSplineSet
Fore
SplineSet
179 1368 m 5
 266 1455 l 5
 561 1160 l 5
 495 1095 l 5
 179 1368 l 5
EndSplineSet
EndChar

StartChar: dieresis
Encoding: 168 168 75
AltUni2: 000308.ffffffff.0 000308.ffffffff.0 000308.ffffffff.0 000308.ffffffff.0 000308.ffffffff.0 000308.ffffffff.0 000308.ffffffff.0 000308.ffffffff.0 000308.ffffffff.0 000308.ffffffff.0 000308.ffffffff.0 000308.ffffffff.0 000308.ffffffff.0 000308.ffffffff.0 000308.ffffffff.0 000308.ffffffff.0 000308.ffffffff.0 000308.ffffffff.0 000308.ffffffff.0 000308.ffffffff.0 000308.ffffffff.0 000308.ffffffff.0 000308.ffffffff.0 000308.ffffffff.0 000308.ffffffff.0 000308.ffffffff.0 000308.ffffffff.0
Width: 653
VWidth: 0
GlyphClass: 1
Flags: HW
HStem: 1203 150<92 242 411 561>
VStem: 92 150<1203 1353> 411 150<1203 1353>
LayerCount: 2
Fore
SplineSet
92 1203 m 5
 92 1353 l 5
 242 1353 l 5
 242 1203 l 5
 92 1203 l 5
411 1203 m 5
 411 1353 l 5
 561 1353 l 5
 561 1203 l 5
 411 1203 l 5
EndSplineSet
EndChar

StartChar: exclam
Encoding: 33 33 76
Width: 334
VWidth: 0
GlyphClass: 1
Flags: HW
HStem: 0 150<92 242>
VStem: 92 150<0 150 731.693 1446> 115 104<300 1014.31>
LayerCount: 2
Back
SplineSet
92 300 m 1
 92 1446 l 1
EndSplineSet
Fore
SplineSet
92 0 m 5
 92 150 l 5
 242 150 l 5
 242 0 l 5
 92 0 l 5
92 1446 m 5xc0
 242 1446 l 5xc0
 219 300 l 5
 115 300 l 5xa0
 92 1446 l 5xc0
EndSplineSet
EndChar

StartChar: question
Encoding: 63 63 77
Width: 863
VWidth: 0
GlyphClass: 1
Flags: HW
HStem: 0 150<273 423> 1386 129.13<266.266 534.495>
VStem: 273 150<0 150> 288 132<320 590.273> 636 136<975.476 1275.18>
LayerCount: 2
Fore
SplineSet
93 1314.13 m 5xd8
 158 1436.13 241.831 1515.13 425 1515.13 c 7
 633 1515.13 772 1330 772 1127 c 31
 772 836 420 669 420 469 c 6
 420 320 l 5
 288 320 l 5
 288 469 l 6
 288 717 636 881 636 1127 c 7
 636 1282 513 1386 425 1386 c 7
 285.91 1386 253 1347 193 1246 c 5
 93 1314.13 l 5xd8
273 0 m 1
 273 150 l 1
 423 150 l 1xe8
 423 0 l 1
 273 0 l 1
EndSplineSet
EndChar

StartChar: asciitilde
Encoding: 126 126 78
AltUni2: 000303.ffffffff.0 000303.ffffffff.0 000303.ffffffff.0 000303.ffffffff.0 000303.ffffffff.0 000303.ffffffff.0 000303.ffffffff.0 000303.ffffffff.0 000303.ffffffff.0 000303.ffffffff.0 000303.ffffffff.0 000303.ffffffff.0 000303.ffffffff.0 000303.ffffffff.0 000303.ffffffff.0 000303.ffffffff.0 000303.ffffffff.0 000303.ffffffff.0 000303.ffffffff.0 000303.ffffffff.0 000303.ffffffff.0 000303.ffffffff.0 000303.ffffffff.0 000303.ffffffff.0 000303.ffffffff.0 000303.ffffffff.0 000303.ffffffff.0
Width: 789
VWidth: 0
GlyphClass: 1
Flags: HW
HStem: 1115 84<426.233 601.484> 1228 84<187.516 363.135>
VStem: 92 605
LayerCount: 2
Back
SplineSet
408.213 1254.79 m 5
 363.001 1292.87 315.535 1312 267 1312 c 4
 199.889 1312 134.675 1272.67 92 1182.09 c 5
 161.193 1142 l 5
 184.697 1198.01 222.836 1228 267 1228 c 4
 303.27 1228 342.061 1208.06 380.886 1172.65 c 5
 424.196 1136.01 473.564 1115.44 522.099 1115.44 c 4
 589.209 1115.44 654.424 1154.77 697.099 1245.35 c 5
 627.905 1285.44 l 5
 604.401 1229.43 566.263 1199.44 522.099 1199.44 c 4
 485.829 1199.44 445.137 1220.82 408.213 1254.79 c 5
EndSplineSet
Fore
SplineSet
92 1182 m 5
 135 1273 200 1312 267 1312 c 4
 395 1312 427 1199 522 1199 c 4
 566 1199 604 1229 628 1285 c 5
 697 1245 l 5
 654 1155 589 1115 522 1115 c 4
 395 1115 362 1228 267 1228 c 4
 223 1228 185 1198 161 1142 c 5
 92 1182 l 5
EndSplineSet
EndChar

StartChar: macron
Encoding: 175 175 79
Width: 707
VWidth: 0
GlyphClass: 1
Flags: HW
HStem: 1231 92<90 617>
VStem: 90 527<1231 1323>
LayerCount: 2
Back
SplineSet
92 1321 m 5
 405 1321 l 5
 405 1229 l 5
 92 1229 l 5
 92 1321 l 5
EndSplineSet
Fore
SplineSet
90 1231 m 1
 90 1323 l 1
 617 1323 l 1
 617 1231 l 1
 90 1231 l 1
EndSplineSet
EndChar

StartChar: periodcentered
Encoding: 183 183 80
AltUni2: 000387.ffffffff.0 000387.ffffffff.0 000387.ffffffff.0 000387.ffffffff.0 000387.ffffffff.0 000387.ffffffff.0 000387.ffffffff.0 000387.ffffffff.0 000387.ffffffff.0 000387.ffffffff.0 000387.ffffffff.0 000387.ffffffff.0 000387.ffffffff.0 000387.ffffffff.0 000387.ffffffff.0 000387.ffffffff.0 000387.ffffffff.0 000387.ffffffff.0 000387.ffffffff.0 000387.ffffffff.0 000387.ffffffff.0 000387.ffffffff.0 000387.ffffffff.0 000387.ffffffff.0 000387.ffffffff.0 000387.ffffffff.0 000387.ffffffff.0
Width: 653
VWidth: 0
GlyphClass: 1
Flags: HW
HStem: 786 150<92 242>
VStem: 92 150<786 936>
LayerCount: 2
Fore
SplineSet
92 786 m 5
 92 936 l 5
 242 936 l 5
 242 786 l 5
 92 786 l 5
EndSplineSet
EndChar

StartChar: questiondown
Encoding: 191 191 81
Width: 863
VWidth: 0
GlyphClass: 1
Flags: HW
HStem: 0 115<322.873 604.187> 1347 150<442 592>
VStem: 93 136<212.721 522.197> 442 150<1347 1497> 445 132<900.721 1177>
LayerCount: 2
Fore
SplineSet
93 370 m 31
 93 661 445 828 445 1028 c 6
 445 1177 l 5
 577 1177 l 5
 577 1028 l 6
 577 792 229 616 229 370 c 7
 229 215 337 115 425 115 c 7
 564 115 630 155 682 258 c 5
 772 201 l 5xe8
 707 79 581 0 425 0 c 7
 217 0 93 176 93 370 c 31
442 1347 m 5xf0
 442 1497 l 5
 592 1497 l 5
 592 1347 l 5
 442 1347 l 5xf0
EndSplineSet
EndChar

StartChar: uni2011
Encoding: 8209 8209 82
AltUni2: 002015.ffffffff.0 002014.ffffffff.0 002013.ffffffff.0 002012.ffffffff.0 002010.ffffffff.0 002015.ffffffff.0 002014.ffffffff.0 002013.ffffffff.0 002012.ffffffff.0 002010.ffffffff.0 002015.ffffffff.0 002014.ffffffff.0 002013.ffffffff.0 002012.ffffffff.0 002010.ffffffff.0 002015.ffffffff.0 002014.ffffffff.0 002013.ffffffff.0 002012.ffffffff.0 002010.ffffffff.0 002015.ffffffff.0 002014.ffffffff.0 002013.ffffffff.0 002012.ffffffff.0 002010.ffffffff.0 002015.ffffffff.0 002014.ffffffff.0 002013.ffffffff.0 002012.ffffffff.0 002011.ffffffff.0 002010.ffffffff.0 002015.ffffffff.0 002014.ffffffff.0 002013.ffffffff.0 002012.ffffffff.0 002011.ffffffff.0 002010.ffffffff.0 002015.ffffffff.0 002014.ffffffff.0 002013.ffffffff.0 002012.ffffffff.0 002011.ffffffff.0 002010.ffffffff.0 002015.ffffffff.0 002014.ffffffff.0 002013.ffffffff.0 002012.ffffffff.0 002011.ffffffff.0 002010.ffffffff.0 002015.ffffffff.0 002014.ffffffff.0 002013.ffffffff.0 002012.ffffffff.0 002011.ffffffff.0 002010.ffffffff.0 002015.ffffffff.0 002014.ffffffff.0 002013.ffffffff.0 002012.ffffffff.0 002011.ffffffff.0 002010.ffffffff.0 002015.ffffffff.0 002014.ffffffff.0 002013.ffffffff.0 002012.ffffffff.0 002011.ffffffff.0 002010.ffffffff.0 002014.ffffffff.0 002013.ffffffff.0 002013.ffffffff.0 002014.ffffffff.0 002013.ffffffff.0 002014.ffffffff.0 002013.ffffffff.0 002014.ffffffff.0 002010.ffffffff.0 002011.ffffffff.0 002012.ffffffff.0 002015.ffffffff.0 002010.ffffffff.0 002011.ffffffff.0 002012.ffffffff.0 002013.ffffffff.0 002014.ffffffff.0 002015.ffffffff.0 002010.ffffffff.0 002011.ffffffff.0 002012.ffffffff.0 002013.ffffffff.0 002014.ffffffff.0 002015.ffffffff.0 002010.ffffffff.0 002011.ffffffff.0 002012.ffffffff.0 002013.ffffffff.0 002014.ffffffff.0 002015.ffffffff.0 002010.ffffffff.0 002011.ffffffff.0 002012.ffffffff.0 002013.ffffffff.0 002014.ffffffff.0 002015.ffffffff.0 002010.ffffffff.0 002011.ffffffff.0 002012.ffffffff.0 002013.ffffffff.0 002014.ffffffff.0 002015.ffffffff.0 002010.ffffffff.0 002011.ffffffff.0 002012.ffffffff.0 002013.ffffffff.0 002014.ffffffff.0 002015.ffffffff.0 002010.ffffffff.0 002011.ffffffff.0 002012.ffffffff.0 002013.ffffffff.0 002014.ffffffff.0 002015.ffffffff.0 002011.ffffffff.0 002012.ffffffff.0 002013.ffffffff.0 002014.ffffffff.0 002015.ffffffff.0 002010.ffffffff.0 002012.ffffffff.0 002013.ffffffff.0 002014.ffffffff.0 002015.ffffffff.0 002010.ffffffff.0 002012.ffffffff.0 002013.ffffffff.0 002014.ffffffff.0 002015.ffffffff.0 002010.ffffffff.0 002012.ffffffff.0 002013.ffffffff.0 002014.ffffffff.0 002015.ffffffff.0 002010.ffffffff.0 002012.ffffffff.0 002013.ffffffff.0 002014.ffffffff.0 002015.ffffffff.0
Width: 708
VWidth: 0
GlyphClass: 1
Flags: HW
HStem: 694 92<92 616>
VStem: 92 524<694 786>
LayerCount: 2
Back
SplineSet
92 636 m 1
 405 636 l 1
 405 544 l 1
 92 544 l 1
 92 636 l 1
EndSplineSet
Fore
SplineSet
92 694 m 5
 92 786 l 5
 616 786 l 5
 616 694 l 5
 92 694 l 5
EndSplineSet
EndChar

StartChar: underscore
Encoding: 95 95 83
Width: 1112
VWidth: 0
GlyphClass: 1
Flags: HW
HStem: 0 92<92 1020>
LayerCount: 2
Fore
SplineSet
92 0 m 1
 92 92 l 1
 1020 92 l 1
 1020 0 l 1
 92 0 l 1
EndSplineSet
EndChar

StartChar: parenleft
Encoding: 40 40 84
Width: 546
VWidth: 0
GlyphClass: 1
Flags: HW
VStem: 92 148<373.589 1003.97>
LayerCount: 2
Back
SplineSet
240 693 m 3
 240 225 539 -223 540 -225 c 9
 414 -288 l 17
 412 -285 92 192 92 693 c 3
 92 1230 416 1649 419 1653 c 9
 545 1590 l 17
 538 1580 240 1155 240 693 c 3
EndSplineSet
Fore
SplineSet
92 693 m 7
 92 1230 416 1649 419 1653 c 13
 535 1575 l 21
 528 1565 240 1155 240 693 c 7
 240 225 529 -208 530 -210 c 13
 414 -288 l 21
 412 -285 92 192 92 693 c 7
EndSplineSet
EndChar

StartChar: sterling
Encoding: 163 163 85
Width: 1153
VWidth: 0
GlyphClass: 1
Flags: HW
HStem: 0 138<285 881.899> 633 135<42 177 317 642> 1405 120<459.012 750>
VStem: 177 140<140.106 633 768 1239.49>
LayerCount: 2
Back
SplineSet
317 633 m 1
 317 138 l 9
 590 138 l 2
 882 138 922 220 922 221 c 1
 1000 133 l 1
 994 125 945 3.10351e-05 590 0 c 2
 177 0 l 17
 177 633 l 1
 42 633 l 1
 42 768 l 1
 177 768 l 1
 177 879 l 2
 177 1239 239 1525 627 1525 c 0
 665 1525 748 1519 750 1515 c 9
 750 1403 l 17
 716 1404 683 1405 647 1405 c 0
 379 1405 317 1254 317 879 c 2
 317 768 l 1
 642 768 l 1
 642 633 l 1
 317 633 l 1
42 767.999 m 1
 42 633 l 1
 642 633 l 1
 641.999 768 l 1
 42 767.999 l 1
EndSplineSet
Fore
SplineSet
42 633 m 5
 42 768 l 5
 177 768 l 5
 177 879 l 2
 177 1239 239 1525 627 1525 c 0
 665 1525 748 1519 750 1515 c 9
 750 1403 l 17
 716 1404 683 1405 647 1405 c 0
 379 1405 317 1254 317 879 c 2
 317 768 l 5
 642 768 l 5
 642 633 l 5
 317 633 l 5
 317 507 l 2
 317 411 308 180 285 138 c 9
 612 138 l 2
 904 138 922 220 922 221 c 1
 1000 133 l 1
 994 125 967 0 612 0 c 2
 145 0 l 17
 145 138 l 0
 164 187 177 396 177 507 c 10
 177 633 l 5
 42 633 l 5
EndSplineSet
EndChar

StartChar: germandbls
Encoding: 223 223 89
Width: 1226
VWidth: 0
GlyphClass: 1
Flags: W
HStem: -11 112<618.598 929.907> 1405 120<417.378 728.522>
VStem: 160 140<0 1254.36> 422 128<701.894 894.858> 795 125<1100.18 1338.42> 994 132<162.103 389.503>
LayerCount: 2
Back
SplineSet
160 0 m 17
 160 879 l 2
 160 1239 171.995 1525 580 1525 c 3
 789 1525 920.142 1394.6 920.142 1232 c 3
 920.142 1095.74 841 988 739.518 948.713 c 0
 618.393 901.822 550 898.882 550 804 c 3
 550 690 660 646 788 608 c 0
 944 561 1126 505 1126 292 c 3
 1126 110 963 -7 786 -7 c 27
 635 -7 536 25 444 173 c 1
 543 237 l 1
 611 132 654 105 784 105 c 3
 864 105 994 137 994 277 c 3
 994 416 856 462 744 488 c 0
 605 520 422 600 422 784 c 3
 422 959 502.609 1023.63 656.621 1067.11 c 4
 720 1085 780 1106.37 780 1232 c 7
 780 1349 680 1405 580 1405 c 24
 346 1405 300 1254 300 879 c 2
 300 0 l 9
 160 0 l 17
EndSplineSet
Fore
SplineSet
160 0 m 21
 160 879 l 6
 160 1239 172 1525 580 1525 c 7
 789 1525 920 1392 920 1229 c 7
 920 1093 833 992 732 953 c 4
 611 906 550 899 550 804 c 7
 550 690 660 646 788 608 c 4
 944 561 1126 505 1126 292 c 7
 1126 110 964 -11 786 -11 c 31
 635 -11 536 25 444 173 c 5
 543 237 l 5
 611 132 654 101 784 101 c 7
 864 101 994 137 994 277 c 7
 994 416 856 462 744 488 c 4
 605 520 422 600 422 784 c 7
 422 959 518 1018 672 1061 c 4
 735 1079 795 1103 795 1229 c 7
 795 1346 688 1405 580 1405 c 31
 348 1405 300 1254 300 879 c 6
 300 0 l 13
 160 0 l 21
EndSplineSet
Validated: 1
EndChar

StartChar: thorn
Encoding: 254 254 90
Width: 1081
VWidth: 0
GlyphClass: 1
Flags: HW
HStem: -411 21G<160 292> -11 112<417.133 694.352> 954 112<429.127 708.677> 1495 20G<160.99 293>
VStem: 160 132<-411 140 199.753 835.263 891 1515> 839 132<274.548 789.803>
LayerCount: 2
Fore
SplineSet
160 -411 m 1
 160 1515 l 1
 292 1515 l 1
 292 891 l 1
 319 938 427 1066 588 1066 c 3
 839 1066 971 793 971 547 c 3
 971 277 855 -11 575 -11 c 3
 436 -11 310 102 292 140 c 1
 292 -411 l 1
 160 -411 l 1
292 254 m 1
 348 174 440 101 541 101 c 3
 689 101 839 187 839 547 c 3
 839 776 762 954 567 954 c 3
 435 954 363 876 292 779 c 1
 292 254 l 1
EndSplineSet
EndChar

StartChar: eth
Encoding: 240 240 91
AltUni2: 001d9e.ffffffff.0 001d9e.ffffffff.0 001d9e.ffffffff.0 001d9e.ffffffff.0 001d9e.ffffffff.0 001d9e.ffffffff.0 001d9e.ffffffff.0 001d9e.ffffffff.0 001d9e.ffffffff.0 001d9e.ffffffff.0 001d9e.ffffffff.0 001d9e.ffffffff.0 001d9e.ffffffff.0 001d9e.ffffffff.0 001d9e.ffffffff.0 001d9e.ffffffff.0 001d9e.ffffffff.0 001d9e.ffffffff.0 001d9e.ffffffff.0 001d9e.ffffffff.0 001d9e.ffffffff.0 001d9e.ffffffff.0 001d9e.ffffffff.0 001d9e.ffffffff.0 001d9e.ffffffff.0
Width: 1022
VWidth: 0
GlyphClass: 1
Flags: HW
HStem: -11 112<365.54 657.792> 954 112<363.393 663.636> 1495 20G<418 562.5>
VStem: 100 132<265.63 797.871> 790 132<263.65 802.573>
DStem2: 387 1222 433 1142 0.865902 0.500214<0 229.339 348.354 527.588>
LayerCount: 2
Back
SplineSet
748 1430 m 5
 794 1350 l 5
 524 1194 l 5
 478 1274 l 5
 748 1430 l 5
800 942 m 5
 800 942 787 899 781 912 c 20
 736 1009 723.693 1053.37 675 1176 c 4
 594 1380 448 1483 417 1515 c 5
 558 1515 l 5
 577 1502 717 1398 807 1176 c 4
 903.522 937.913 922 744 922 527 c 7
 922 214 776 -16 512 -16 c 7
 246 -16 100 220 100 528 c 7
 100 854 246 1071 512 1071 c 23
 589 1071 657 1052 713 1018 c 5
 743 999 773 975 800 942 c 5
790 527 m 7
 790 773 724 959 512 959 c 7
 304 959 232 781 232 528 c 7
 232 332 286 96 512 96 c 7
 738 96 790 330 790 527 c 7
EndSplineSet
Fore
SplineSet
100 528 m 7
 100 854 248 1066 512 1066 c 23
 589 1066 657 1052 713 1018 c 5
 723 1012 734 1004 744 996 c 5
 670 1189 665 1204 636 1258 c 5
 433 1142 l 5
 387 1222 l 5
 586 1336 l 5
 515 1433 439 1493 418 1515 c 5
 557 1515 l 5
 568 1508 623 1466 682 1392 c 5
 844 1486 l 5
 890 1406 l 5
 735 1316 l 5
 897 1055 922 742 922 527 c 7
 922 214 776 -11 512 -11 c 7
 246 -11 100 220 100 528 c 7
232 528 m 7
 232 332 286 101 512 101 c 7
 738 101 790 330 790 527 c 7
 790 773 724 954 512 954 c 7
 304 954 232 781 232 528 c 7
EndSplineSet
EndChar

StartChar: Oslash
Encoding: 216 216 92
Width: 1251
VWidth: 0
GlyphClass: 1
Flags: HW
HStem: -16 124<457.075 796.107> 1408 124<457.481 799.69>
VStem: 70 148<439.263 1082.62> 1033 148<428.535 1076.93>
DStem2: 132 28 247 -38 0.500363 0.865816<0.397897 152.713 340.112 1410.31 1608.01 1756.62>
LayerCount: 2
Back
SplineSet
952 1447 m 5
 1066 1381 l 5
 308 67 l 5
 193 133 l 5
 952 1447 l 5
70 752 m 27
 70 1127 224 1532 631 1532 c 3
 1021 1532 1181 1117 1181 752 c 3
 1181 378 1024 -16 631 -16 c 3
 248 -16 70 381 70 752 c 27
1033 752 m 3
 1033 1047 942 1408 631 1408 c 3
 322 1408 218 1093 218 752 c 3
 218 414 333 108 631 108 c 3
 941 108 1033 459 1033 752 c 3
EndSplineSet
Fore
SplineSet
70 752 m 11
 70 1127 224 1532 631 1532 c 3
 754 1532 857 1488 937 1420 c 1
 1011 1549 l 1
 1125 1483 l 1
 1028 1316 l 1
 1132 1163 1181 949 1181 752 c 3
 1181 378 1024 -16 631 -16 c 3
 508 -16 404 27 323 94 c 1
 247 -38 l 1
 132 28 l 1
 229 196 l 1
 122 345 70 553 70 752 c 11
218 752 m 3
 218 593 245 438 303 322 c 1
 871 1306 l 1
 812 1368 732 1408 631 1408 c 3
 322 1408 218 1093 218 752 c 3
387 204 m 1
 449 145 530 108 631 108 c 3
 941 108 1033 459 1033 752 c 3
 1033 896 1010 1057 952 1183 c 1
 387 204 l 1
EndSplineSet
EndChar

StartChar: uni00B5
Encoding: 181 181 93
Width: 979
VWidth: 0
GlyphClass: 1
Flags: HW
HStem: -411 21G<129 265> -11 112<317.618 558.581> 1035 20G<129 261 737 869>
VStem: 129 132<-411 15 155.817 1055> 737 132<0 174 230.368 1055>
LayerCount: 2
Back
SplineSet
247.43 46.5762 m 5
 294.467 7.02398 356.426 -11 423 -11 c 7
 571 -11 675 83 768 174 c 5
 768 0 l 5
 900 0 l 5
 900 1055 l 5
 768 1055 l 5
 768 274 l 5
 690 189 580 101 461 101 c 7
 387 101 292 161 292 269 c 6
 292 1055 l 5
 160 1055 l 5
 160 269 l 6
 160 -411 l 5
 296 -411 l 5
 296 63 l 5
 247.43 46.5762 l 5
EndSplineSet
Fore
SplineSet
129 269 m 2
 129 1055 l 1
 261 1055 l 1
 261 269 l 2
 261 161 356 101 430 101 c 3
 549 101 659 189 737 274 c 1
 737 1055 l 1
 869 1055 l 1
 869 0 l 1
 737 0 l 1
 737 174 l 1
 644 83 540 -11 392 -11 c 3
 347 -11 302 -2 265 15 c 1
 265 -411 l 1
 129 -411 l 1
 129 269 l 2
EndSplineSet
EndChar

StartChar: Thorn
Encoding: 222 222 94
Width: 1113
VWidth: 0
GlyphClass: 1
Flags: HW
HStem: 0 21G<90 238> 357 124<238 733.246> 1056 124<238 732.009> 1495.12 20G<90 238>
VStem: 90 148<0 357 481 1056 1180 1515.12> 875 148<611.342 924.839>
LayerCount: 2
Back
SplineSet
238 1515.12 m 5
 90 1515.12 l 5
247.526 1180 m 5
 619 1180 l 6
 912 1180 1023 949 1023 782 c 4
 1023 577 917 357 619 357 c 6
 238 357 l 5
 238 0 l 5
 90 0 l 5
 90 1180 l 5
 247.526 1180 l 5
875 775 m 4
 875 970 722 1056 518 1056 c 6
 238 1056 l 5
 238 481 l 5
 363 481 518 481 518 481 c 6
 719 481 875 561 875 775 c 4
EndSplineSet
Fore
SplineSet
90 0 m 1
 90 1180 l 1
 90 1515.12 l 1
 238 1515.12 l 1
 238 1180 l 1
 619 1180 l 2
 912 1180 1023 949 1023 782 c 0
 1023 577 917 357 619 357 c 2
 238 357 l 1
 238 0 l 1
 90 0 l 1
238 481 m 1
 363 481 518 481 518 481 c 2
 719 481 875 561 875 775 c 0
 875 970 722 1056 518 1056 c 2
 238 1056 l 1
 238 481 l 1
EndSplineSet
EndChar

StartChar: oslash
Encoding: 248 248 95
Width: 1022
VWidth: 0
GlyphClass: 1
Flags: HW
HStem: -12 112<366.721 657.792> 954 112<363.393 647.116>
VStem: 100 132<275.603 797.871> 790 132<263.319 799.949>
DStem2: 134 30 249 -36 0.500049 0.865997<0.349788 100.694 278.212 982.837 1137.61 1237.73>
LayerCount: 2
Back
SplineSet
808.382 928 m 1
 882.831 833.396 922 694.82 922 527 c 3
 922 214 776 -12 512 -12 c 3
 246 -12 100 220 100 528 c 3
 100 854 248 1066 512 1066 c 19
 584.141 1066 647.47 1049.95 701.417 1020 c 5
645 921.803 m 1
 608.977 942.661 565.061 954 512 954 c 3
 304 954 232 781 232 528 c 3
 232 332 286 100 512 100 c 3
 738 100 790 330 790 527 c 3
 790 639.69 776.15 738.741 740.76 813 c 1
706.229 1021 m 1
 753 1102 l 1
 867 1036 l 1
 808.198 934 l 1
737.866 812 m 1
 249 -36 l 1
 134 30 l 1
 646.754 918 l 1
753 1102 m 5
 867 1036 l 5
 249 -36 l 5
 134 30 l 5
 753 1102 l 5
922 527 m 7
 922 214 776 -16 512 -16 c 7
 246 -16 100 220 100 528 c 7
 100 854 246 1071 512 1071 c 31
 778 1071 922 851 922 527 c 7
790 527 m 7
 790 773 724 959 512 959 c 7
 304 959 232 781 232 528 c 7
 232 332 286 96 512 96 c 7
 738 96 790 330 790 527 c 7
EndSplineSet
Fore
SplineSet
100 528 m 3
 100 854 248 1066 512 1066 c 19
 584 1066 651 1048 705 1018 c 1
 753 1102 l 1
 867 1036 l 1
 807 930 l 1
 881 835 922 695 922 527 c 3
 922 214 776 -12 512 -12 c 3
 430 -12 357 12 299 51 c 1
 249 -36 l 1
 134 30 l 1
 202 148 l 1
 136 244 100 378 100 528 c 3
232 528 m 3
 232 443 243 348 273 271 c 1
 648 920 l 1
 612 941 565 954 512 954 c 3
 304 954 232 781 232 528 c 3
357 152 m 1
 396 121 448 100 512 100 c 3
 738 100 790 330 790 527 c 3
 790 640 775 741 740 815 c 1
 357 152 l 1
EndSplineSet
EndChar

StartChar: ae
Encoding: 230 230 96
AltUni2: 0004d5.ffffffff.0 0004d5.ffffffff.0 0004d5.ffffffff.0 0004d5.ffffffff.0 0004d5.ffffffff.0 0004d5.ffffffff.0 0004d5.ffffffff.0 0004d5.ffffffff.0 0004d5.ffffffff.0 0004d5.ffffffff.0 0004d5.ffffffff.0 0004d5.ffffffff.0 0004d5.ffffffff.0 0004d5.ffffffff.0 0004d5.ffffffff.0 0004d5.ffffffff.0 0004d5.ffffffff.0 0004d5.ffffffff.0 0004d5.ffffffff.0 0004d5.ffffffff.0 0004d5.ffffffff.0 0004d5.ffffffff.0 0004d5.ffffffff.0 0004d5.ffffffff.0 0004d5.ffffffff.0 0004d5.ffffffff.0 0004d5.ffffffff.0
Width: 1527
VWidth: 0
GlyphClass: 1
Flags: HW
HStem: -11 112<252.488 527.551 953.111 1228.37> 513 112<815 1311> 584 112<514.9 681> 954 112<313.077 614.419 930.463 1204.05>
VStem: 72 132<147.423 399.291> 678 131<296.629 513 688.928 811.563> 1311 132<625 813.461>
LayerCount: 2
Back
SplineSet
1385 295 m 5
 1476 232 l 5
1105 1073 m 3
 1393 1073 1471 769 1471 539 c 0
 1471 530 1471 522 1471 513 c 1
 837 513 l 1
 837 175 1007 105 1121 104 c 0
 1275 104 1371 242 1390 287 c 1
 1474 229 l 1
 1432 146 1307 -8 1121 -8 c 3
 835 -8 705 240 705 502 c 3
 705 970 945 1073 1105 1073 c 3
1339 625 m 1
 1337 740 1295 961 1105 961 c 3
 881 961 847 746 843 625 c 1
 1339 625 l 1
100 265 m 3
 100 534 331 621 709 696 c 1
 709 847 677 953 491 953 c 3
 323 953 234 816 220 788 c 1
 125 851 l 1
 176 949 278 1065 506 1065 c 3
 680 1065 841 997 841 699 c 2
 841 150 l 2
 841 146 851 44 872 2 c 1
 739 2 l 1
 715 14 709 110 709 170 c 1
 700 162 591 -13 398 -13 c 3
 160 -13 100 156 100 265 c 3
417 99 m 27
 548 99 673 225 709 267 c 1
 709 584 l 1
 483 526 232 483 232 269 c 3
 232 142 319 99 417 99 c 27
EndSplineSet
Fore
SplineSet
72 265 m 3
 72 534 303 621 681 696 c 1xbe
 681 847 649 954 463 954 c 3
 295 954 206 816 192 788 c 1
 97 851 l 1
 148 949 250 1066 478 1066 c 3
 600 1066 716 1031 774 909 c 1
 858 1036 982 1066 1077 1066 c 3
 1223 1066 1443 988 1443 513 c 1
 809 513 l 1xde
 809 175 979 102 1093 101 c 0
 1247 101 1337 247 1356 292 c 1
 1446 229 l 1
 1404 146 1279 -11 1093 -11 c 3
 922 -11 797 85 730 232 c 1
 693 177 563 -11 370 -11 c 3
 132 -11 72 156 72 265 c 3
204 269 m 3
 204 142 292 101 389 101 c 27
 533 101 668 252 704 294 c 1
 683 350 678 411 678 474 c 0
 678 510 680 547 681 584 c 1xbe
 455 526 204 483 204 269 c 3
815 625 m 1
 1311 625 l 1xde
 1309 740 1267 954 1077 954 c 3
 853 954 819 746 815 625 c 1
EndSplineSet
EndChar

StartChar: AE
Encoding: 198 198 97
AltUni2: 0004d4.ffffffff.0 0004d4.ffffffff.0 0004d4.ffffffff.0 0004d4.ffffffff.0 0004d4.ffffffff.0 0004d4.ffffffff.0 0004d4.ffffffff.0 0004d4.ffffffff.0 0004d4.ffffffff.0 0004d4.ffffffff.0 0004d4.ffffffff.0 0004d4.ffffffff.0 0004d4.ffffffff.0 0004d4.ffffffff.0 0004d4.ffffffff.0 0004d4.ffffffff.0 0004d4.ffffffff.0 0004d4.ffffffff.0 0004d4.ffffffff.0 0004d4.ffffffff.0 0004d4.ffffffff.0 0004d4.ffffffff.0 0004d4.ffffffff.0 0004d4.ffffffff.0 0004d4.ffffffff.0 0004d4.ffffffff.0 0004d4.ffffffff.0
Width: 1600
VWidth: 0
GlyphClass: 1
Flags: HW
HStem: 0 133<821 1532> 478 124<346 673> 734 124<821 1304> 1391 124<565 673 821 1494>
VStem: 673 148<133 478 602 734 858 1389>
DStem2: 25 0 179 0 0.274218 0.961668<42.2296 538.378 666.948 1483.83>
LayerCount: 2
Back
SplineSet
738 0 m 25
 738 1515 l 25
 1559 1515 l 25
 1559 1391 l 25
 886 1391 l 25
 886 858 l 25
 1369 858 l 25
 1369 734 l 25
 886 734 l 25
 886 133 l 25
 1597 133 l 25
 1597 0 l 25
 738 0 l 25
851 602 m 25
 630 1389 l 25
 411 602 l 25
 851 602 l 25
886 478 m 25
 377 478 l 25
 244 0 l 25
 90 0 l 25
 522 1515 l 25
 738 1515 l 25
 1170 0 l 25
 1016 0 l 25
 886 478 l 25
EndSplineSet
Fore
SplineSet
25 0 m 25
 457 1515 l 17
 1494 1515 l 9
 1494 1391 l 25
 821 1391 l 25
 821 858 l 25
 1304 858 l 25
 1304 734 l 25
 821 734 l 25
 821 133 l 25
 1532 133 l 25
 1532 0 l 25
 673 0 l 17
 673 478 l 1
 312 478 l 9
 179 0 l 25
 25 0 l 25
346 602 m 17
 673 602 l 1
 673 1389 l 1
 565 1389 l 9
 346 602 l 17
EndSplineSet
EndChar

StartChar: asciicircum
Encoding: 94 94 99
AltUni2: 000302.ffffffff.0 0002c6.ffffffff.0 0002c4.ffffffff.0 000302.ffffffff.0 0002c6.ffffffff.0 0002c4.ffffffff.0 000302.ffffffff.0 0002c6.ffffffff.0 0002c4.ffffffff.0 000302.ffffffff.0 0002c6.ffffffff.0 0002c4.ffffffff.0 000302.ffffffff.0 0002c6.ffffffff.0 0002c4.ffffffff.0 000302.ffffffff.0 0002c6.ffffffff.0 0002c4.ffffffff.0 000302.ffffffff.0 0002c6.ffffffff.0 0002c4.ffffffff.0 000302.ffffffff.0 0002c6.ffffffff.0 0002c4.ffffffff.0 000302.ffffffff.0 0002c6.ffffffff.0 0002c4.ffffffff.0 000302.ffffffff.0 0002c6.ffffffff.0 0002c4.ffffffff.0 000302.ffffffff.0 0002c6.ffffffff.0 0002c4.ffffffff.0 000302.ffffffff.0 0002c6.ffffffff.0 0002c4.ffffffff.0 000302.ffffffff.0 0002c6.ffffffff.0 0002c4.ffffffff.0 0002c6.ffffffff.0 0002c6.ffffffff.0 000302.ffffffff.0 0002c4.ffffffff.0 0002c4.ffffffff.0 0002c6.ffffffff.0 000302.ffffffff.0 0002c4.ffffffff.0 0002c6.ffffffff.0 000302.ffffffff.0 0002c4.ffffffff.0 0002c6.ffffffff.0 000302.ffffffff.0 0002c4.ffffffff.0 0002c6.ffffffff.0 000302.ffffffff.0 0002c4.ffffffff.0 0002c6.ffffffff.0 000302.ffffffff.0 0002c4.ffffffff.0 0002c6.ffffffff.0 000302.ffffffff.0 0002c4.ffffffff.0 0002c6.ffffffff.0 000302.ffffffff.0 0002c4.ffffffff.0 0002c6.ffffffff.0 000302.ffffffff.0 0002c4.ffffffff.0 0002c6.ffffffff.0 000302.ffffffff.0 0002c4.ffffffff.0 0002c6.ffffffff.0 000302.ffffffff.0 0002c4.ffffffff.0 0002c6.ffffffff.0 000302.ffffffff.0 0002c4.ffffffff.0 0002c6.ffffffff.0 000302.ffffffff.0 0002c4.ffffffff.0 0002c6.ffffffff.0 000302.ffffffff.0
Width: 624
VWidth: 0
GlyphClass: 1
Flags: HW
HStem: 1132 287
VStem: 90 444
DStem2: 90 1197 155 1132 0.707107 0.707107<0 222.032> 312 1419 312 1289 0.707107 -0.707107<91.9239 312.541>
LayerCount: 2
Back
SplineSet
327 1419 m 1
 549 1197 l 1
 483 1133 l 1
 263 1355 l 5
 327 1419 l 1
170 1132 m 1
 105 1197 l 1
EndSplineSet
Fore
SplineSet
90 1197 m 5
 312 1419 l 5
 534 1197 l 5
 468 1133 l 5
 312 1289 l 5
 155 1132 l 5
 90 1197 l 5
EndSplineSet
EndChar

StartChar: exclamdown
Encoding: 161 161 100
Width: 334
VWidth: 0
GlyphClass: 1
Flags: HW
HStem: 1128 150<92 242>
VStem: 92 150<-168 546.307 1128 1278> 115 104<263.693 978>
LayerCount: 2
Fore
SplineSet
92 -168 m 5xc0
 115 978 l 5
 219 978 l 5xa0
 242 -168 l 5xc0
 92 -168 l 5xc0
92 1128 m 5
 92 1278 l 5
 242 1278 l 5
 242 1128 l 5
 92 1128 l 5
EndSplineSet
EndChar

StartChar: backslash
Encoding: 92 92 101
Width: 783
VWidth: 0
GlyphClass: 1
Flags: HW
DStem2: -31 1579 -139 1528 0.423602 -0.905848<0.449224 1756.36>
LayerCount: 2
Fore
SplineSet
-139 1528 m 1
 -31 1579 l 1
 713 -12 l 1
 604 -63 l 1
 -139 1528 l 1
EndSplineSet
EndChar

StartChar: bar
Encoding: 124 124 102
AltUni2: 0001c0.ffffffff.0 0001c0.ffffffff.0 0001c0.ffffffff.0 0001c0.ffffffff.0 0001c0.ffffffff.0 0001c0.ffffffff.0 0001c0.ffffffff.0 0001c0.ffffffff.0 0001c0.ffffffff.0 0001c0.ffffffff.0 0001c0.ffffffff.0 0001c0.ffffffff.0 0001c0.ffffffff.0 0001c0.ffffffff.0 0001c0.ffffffff.0 0001c0.ffffffff.0 0001c0.ffffffff.0 0001c0.ffffffff.0 0001c0.ffffffff.0 0001c0.ffffffff.0 0001c0.ffffffff.0 0001c0.ffffffff.0 0001c0.ffffffff.0 0001c0.ffffffff.0 0001c0.ffffffff.0 0001c0.ffffffff.0 0001c0.ffffffff.0
Width: 348
VWidth: 0
GlyphClass: 1
Flags: HW
VStem: 100 148<-132 1563>
LayerCount: 2
Fore
SplineSet
100 -132 m 5
 100 1563 l 5
 248 1563 l 5
 248 -132 l 5
 100 -132 l 5
EndSplineSet
EndChar

StartChar: slash
Encoding: 47 47 103
Width: 1003
VWidth: 0
GlyphClass: 1
Flags: HW
DStem2: 70 -12 179 -63 0.423602 0.905848<0 1755.92>
LayerCount: 2
Back
SplineSet
814 1579 m 1
 933 1523 l 5
 190 -68 l 5
 70 -12 l 1
 814 1579 l 1
EndSplineSet
Fore
SplineSet
70 -12 m 5
 814 1579 l 5
 922 1528 l 5
 179 -63 l 5
 70 -12 l 5
EndSplineSet
EndChar

StartChar: equal
Encoding: 61 61 104
Width: 797
VWidth: 0
GlyphClass: 1
Flags: HW
HStem: 542 92<90 707> 808 92<90 707>
VStem: 90 617<542 634 808 900>
LayerCount: 2
Back
SplineSet
90 900 m 1
 707 900 l 1
 707 808 l 1
 90 808 l 1
 90 900 l 1
90 634 m 1
 707 634 l 1
 707 542 l 1
 90 542 l 1
 90 634 l 1
EndSplineSet
Fore
SplineSet
90 542 m 5
 90 634 l 5
 707 634 l 5
 707 542 l 5
 90 542 l 5
90 808 m 5
 90 900 l 5
 707 900 l 5
 707 808 l 5
 90 808 l 5
EndSplineSet
EndChar

StartChar: percent
Encoding: 37 37 105
Width: 1075
VWidth: 0
GlyphClass: 1
Flags: HW
HStem: 0 21G<147.152 193.539> 5 101<660.834 871.622> 427 101<661 870.994> 980 101<229.834 440.622> 1402 101<230 439.994> 1495 20G<892.447 938.545>
VStem: 80 100<1132 1351.83> 489 102<1132 1351.67> 511 100<156.997 376.826> 920 102<156.997 376.666>
DStem2: 67 66 182 0 0.500188 0.865917<0.371107 1673.24>
LayerCount: 2
Back
SplineSet
613 270 m 7
 613 181 669 106 773 106 c 7
 870 106 917 185 917 270 c 31xe4
 917 353 872 429 773 429 c 7
 680 429 613 364 613 270 c 7
511 270 m 31
 511 411 633 519 774 519 c 31
 907 519 1019 401 1019 270 c 31
 1019 132 922 16 774 16 c 7
 597 16 511 162 511 270 c 31
178 1244 m 7
 178 1155 234 1080 338 1080 c 7
 435 1080 482 1159 482 1244 c 31xe4
 482 1327 437 1403 338 1403 c 7
 245 1403 178 1338 178 1244 c 7
76 1244 m 31
 76 1385 198 1493 339 1493 c 31
 472 1493 584 1375 584 1244 c 31
 584 1106 487 990 339 990 c 7
 162 990 76 1136 76 1244 c 31
923 1548 m 1
 1037 1482 l 1
 159 -39 l 1
 44 27 l 1
 923 1548 l 1
274.746 898.41 m 1
 297.12 923.336 l 1
 321.978 945.787 l 1
 349.046 965.518 l 1
 378.027 982.31 l 1
 408.605 995.981 l 1
 440.445 1006.38 l 1
 473.198 1013.4 l 1
 506.505 1016.95 l 1
 540 1017 l 1
 573.317 1013.55 l 1
 606.092 1006.64 l 1
 637.963 996.335 l 1
 668.584 982.759 l 1
 697.617 966.056 l 1
 724.746 946.41 l 1
 749.673 924.035 l 1
 772.124 899.179 l 1
 791.854 872.11 l 1
 808.646 843.129 l 1
 822.317 812.55 l 1
 832.717 780.71 l 1
 839.731 747.958 l 1
 843.284 714.651 l 1
 843.336 681.156 l 1
 839.887 647.839 l 1
 832.973 615.064 l 1
 822.672 583.192 l 1
 809.095 552.572 l 1
 792.393 523.539 l 1
 772.746 496.41 l 1
 750.372 471.483 l 1
 725.515 449.032 l 1
 698.446 429.303 l 1
 669.465 412.51 l 1
 638.887 398.839 l 1
 607.047 388.438 l 1
 574.294 381.424 l 1
 540.987 377.871 l 1
 507.492 377.82 l 1
 474.175 381.27 l 1
 441.4 388.183 l 1
 409.529 398.484 l 1
 378.908 412.061 l 1
 349.875 428.764 l 1
 322.746 448.41 l 1
 297.819 470.784 l 1
 275.368 495.642 l 1
 255.639 522.709 l 1
 238.846 551.691 l 1
 225.175 582.27 l 1
 214.775 614.109 l 1
 207.761 646.862 l 1
 204.208 680.169 l 1
 204.156 713.664 l 1
 207.605 746.981 l 1
 214.52 779.755 l 1
 224.82 811.627 l 1
 238.397 842.248 l 1
 255.1 871.281 l 1
 274.746 898.41 l 1
EndSplineSet
Fore
SplineSet
81 1242 m 4
 81 1383 195 1497 336 1497 c 4
 477 1497 591 1383 591 1242 c 4
 591 1101 477 987 336 987 c 4
 195 987 81 1101 81 1242 c 4
177 1242 m 0
 177 1155 248 1084 335 1084 c 0
 422 1084 493 1155 493 1242 c 0
 493 1329 422 1400 335 1400 c 0
 248 1400 177 1329 177 1242 c 0
512 267 m 4
 512 408 626 522 767 522 c 4
 908 522 1022 408 1022 267 c 4
 1022 126 908 12 767 12 c 4
 626 12 512 126 512 267 c 4
608 267 m 0
 608 180 679 109 766 109 c 0
 853 109 924 180 924 267 c 0
 924 354 853 425 766 425 c 0
 679 425 608 354 608 267 c 0
67 66 m 1
 904 1515 l 1xb640
 1018 1449 l 1
 182 0 l 1
 67 66 l 1
EndSplineSet
EndChar

StartChar: plus
Encoding: 43 43 106
AltUni2: 00207a.ffffffff.0 00207a.ffffffff.0 00207a.ffffffff.0 00207a.ffffffff.0 00207a.ffffffff.0 00207a.ffffffff.0 00207a.ffffffff.0 00207a.ffffffff.0 00207a.ffffffff.0 00207a.ffffffff.0 00207a.ffffffff.0 00207a.ffffffff.0 00207a.ffffffff.0 00207a.ffffffff.0 00207a.ffffffff.0 00207a.ffffffff.0 00207a.ffffffff.0 00207a.ffffffff.0 00207a.ffffffff.0 00207a.ffffffff.0 00207a.ffffffff.0 00207a.ffffffff.0 00207a.ffffffff.0 00207a.ffffffff.0 00207a.ffffffff.0
Width: 707
VWidth: 0
GlyphClass: 1
Flags: HW
HStem: 694 92<90 308 400 617>
VStem: 308 92<476 694 786 1004>
LayerCount: 2
Back
SplineSet
400 692 m 1
 400 476 l 1
 308 476 l 1
 308 692 l 1
308 788 m 1
 308 1004 l 1
 400 1004 l 1
 400 788 l 1
403 786 m 1
 617 786 l 1
 617 694 l 1
 403 694 l 1
306 694 m 1
 90 694 l 1
 90 786 l 1
 306 786 l 1
EndSplineSet
Fore
SplineSet
90 694 m 5
 90 786 l 1
 308 786 l 1
 308 1004 l 1
 400 1004 l 1
 400 786 l 1
 617 786 l 1
 617 694 l 1
 400 694 l 1
 400 476 l 1
 308 476 l 1
 308 694 l 1
 90 694 l 5
EndSplineSet
EndChar

StartChar: numbersign
Encoding: 35 35 107
Width: 1328
VWidth: 0
GlyphClass: 1
Flags: HW
HStem: 0 21G<384 516 798 930> 488 124<147 384 516 798 930 1176> 931 124<147 384 516 798 930 1176> 1497 20G<384 516 798 930>
VStem: 384 132<0 488 612 931 1055 1517> 798 132<0 488 612 931 1055 1517>
LayerCount: 2
Back
SplineSet
1176 612 m 1
 1176 488 l 1
 147 488 l 1
 147 612 l 1
 1176 612 l 1
1176 1055 m 1
 1176 931 l 1
 147 931 l 1
 147 1055 l 1
 1176 1055 l 1
798 1517 m 1
 930 1517 l 1
 930 0 l 1
 798 0 l 1
 798 1517 l 1
384 1517 m 1
 516 1517 l 1
 516 0 l 1
 384 0 l 1
 384 1517 l 1
EndSplineSet
Fore
SplineSet
147 488 m 1
 147 612 l 1
 384 612 l 1
 384 931 l 1
 147 931 l 1
 147 1055 l 1
 384 1055 l 1
 384 1517 l 1
 516 1517 l 1
 516 1055 l 1
 798 1055 l 1
 798 1517 l 1
 930 1517 l 1
 930 1055 l 1
 1176 1055 l 1
 1176 931 l 1
 930 931 l 1
 930 612 l 1
 1176 612 l 1
 1176 488 l 1
 930 488 l 1
 930 0 l 1
 798 0 l 1
 798 488 l 1
 516 488 l 1
 516 0 l 1
 384 0 l 1
 384 488 l 1
 147 488 l 1
516 612 m 1
 798 612 l 1
 798 931 l 1
 516 931 l 1
 516 612 l 1
EndSplineSet
EndChar

StartChar: asterisk
Encoding: 42 42 108
Width: 688
VWidth: 0
GlyphClass: 1
Flags: HW
HStem: 446 484
VStem: 298 92<742 930>
DStem2: 119 800 90 712 0.951307 -0.308245<0 187.7> 158 501 233 446 0.587228 0.809422<0 188.548> 419 654 344 599 0.587228 -0.809422<0.476128 189.024> 390 742 419 654 0.951307 0.308245<0.462365 188.162>
LayerCount: 2
Back
SplineSet
125 879 m 5
 304 821 l 5
 275 733 l 5
 96 791 l 5
 125 879 l 5
350 678 m 1
 239 525 l 1
 164 580 l 1
 275 733 l 1
 350 678 l 1
461 525 m 1
 350 678 l 1
 425 733 l 1
 536 580 l 1
 461 525 l 1
396 821 m 1
 575 879 l 1
 604 791 l 1
 425 733 l 1
 396 821 l 1
396 1009 m 1
 396 821 l 1
 304 821 l 1
 304 1009 l 1
 396 1009 l 1
EndSplineSet
Fore
SplineSet
90 712 m 1
 119 800 l 1
 298 742 l 1
 298 930 l 1
 390 930 l 1
 390 742 l 1
 569 800 l 1
 598 712 l 1
 419 654 l 1
 530 501 l 1
 455 446 l 1
 344 599 l 1
 233 446 l 1
 158 501 l 1
 269 654 l 1
 90 712 l 1
EndSplineSet
EndChar

StartChar: quotedbl
Encoding: 34 34 109
AltUni2: 00201d.ffffffff.0 00201c.ffffffff.0 00030e.ffffffff.0 00030b.ffffffff.0 0002ba.ffffffff.0 00201d.ffffffff.0 00201c.ffffffff.0 00030e.ffffffff.0 00030b.ffffffff.0 0002ba.ffffffff.0 00201d.ffffffff.0 00201c.ffffffff.0 00030e.ffffffff.0 00030b.ffffffff.0 0002ba.ffffffff.0 00201d.ffffffff.0 00201c.ffffffff.0 00030e.ffffffff.0 00030b.ffffffff.0 0002ba.ffffffff.0 00201d.ffffffff.0 00201c.ffffffff.0 00030e.ffffffff.0 00030b.ffffffff.0 0002ba.ffffffff.0 00201d.ffffffff.0 00201c.ffffffff.0 00030e.ffffffff.0 00030b.ffffffff.0 0002ba.ffffffff.0 00201d.ffffffff.0 00201c.ffffffff.0 00030e.ffffffff.0 00030b.ffffffff.0 0002ba.ffffffff.0 00201d.ffffffff.0 00201c.ffffffff.0 00030e.ffffffff.0 00030b.ffffffff.0 0002ba.ffffffff.0 00201d.ffffffff.0 00201c.ffffffff.0 00030e.ffffffff.0 00030b.ffffffff.0 0002ba.ffffffff.0 00201d.ffffffff.0 00201c.ffffffff.0 00030e.ffffffff.0 00030b.ffffffff.0 0002ba.ffffffff.0 00201d.ffffffff.0 00201c.ffffffff.0 00030e.ffffffff.0 00030b.ffffffff.0 0002ba.ffffffff.0 00201d.ffffffff.0 00201c.ffffffff.0 00030e.ffffffff.0 00030b.ffffffff.0 0002ba.ffffffff.0 00030e.ffffffff.0 00030b.ffffffff.0 0002ba.ffffffff.0 00030b.ffffffff.0 00030e.ffffffff.0 0002ba.ffffffff.0 0002ba.ffffffff.0 00030b.ffffffff.0 00030e.ffffffff.0 00201c.ffffffff.0 00201d.ffffffff.0 0002ba.ffffffff.0 00030b.ffffffff.0 00030e.ffffffff.0 00201c.ffffffff.0 00201d.ffffffff.0 0002ba.ffffffff.0 00030b.ffffffff.0 00030e.ffffffff.0 00201c.ffffffff.0 00201d.ffffffff.0 0002ba.ffffffff.0 00030b.ffffffff.0 00030e.ffffffff.0 00201c.ffffffff.0 00201d.ffffffff.0 0002ba.ffffffff.0 00030b.ffffffff.0 00030e.ffffffff.0 00201c.ffffffff.0 00201d.ffffffff.0 0002ba.ffffffff.0 00030b.ffffffff.0 00030e.ffffffff.0 00201c.ffffffff.0 00201d.ffffffff.0 0002ba.ffffffff.0 00030b.ffffffff.0 00030e.ffffffff.0 00201c.ffffffff.0 00201d.ffffffff.0 0002ba.ffffffff.0 00030b.ffffffff.0 00030e.ffffffff.0 00201c.ffffffff.0 00201d.ffffffff.0 0002ba.ffffffff.0 00030b.ffffffff.0 00030e.ffffffff.0 00201c.ffffffff.0 00201d.ffffffff.0 0002ba.ffffffff.0 00030b.ffffffff.0 00030e.ffffffff.0 00201c.ffffffff.0 00201d.ffffffff.0 0002ba.ffffffff.0 00030b.ffffffff.0 00030e.ffffffff.0 00201c.ffffffff.0 00201d.ffffffff.0 0002ba.ffffffff.0 00030b.ffffffff.0 00030e.ffffffff.0 00201c.ffffffff.0 00201d.ffffffff.0 0002ba.ffffffff.0 00030b.ffffffff.0 00030e.ffffffff.0 00201c.ffffffff.0 00201d.ffffffff.0
Width: 577
VWidth: 0
GlyphClass: 1
Flags: HW
HStem: 1296 150<92 157 357 422>
VStem: 92 150<1296 1446> 357 150<1296 1446>
LayerCount: 2
Back
SplineSet
507 1296 m 1
 469 1217 383 1050 379 1046 c 1
 335 1046 l 17
 422 1296 l 1
 357 1296 l 1
 357 1446 l 1
 507 1446 l 1
 507 1296 l 1
242 1296 m 1
 204 1217 118 1050 114 1046 c 1
 70 1046 l 17
 157 1296 l 1
 92 1296 l 1
 92 1446 l 1
 242 1446 l 1
 242 1296 l 1
EndSplineSet
Fore
Refer: 70 44 N 1 0 0 1 265 1296 2
Refer: 70 44 N 1 0 0 1 0 1296 2
EndChar

StartChar: brokenbar
Encoding: 166 166 110
Width: 348
VWidth: 0
GlyphClass: 1
Flags: HW
VStem: 100 148<-132 646 778 1563>
LayerCount: 2
Fore
SplineSet
100 -132 m 1
 100 646 l 1
 248 646 l 1
 248 -132 l 1
 100 -132 l 1
100 778 m 5
 100 1563 l 1
 248 1563 l 1
 248 778 l 1
 100 778 l 5
EndSplineSet
EndChar

StartChar: paragraph
Encoding: 182 182 111
Width: 1115
VWidth: 0
GlyphClass: 1
Flags: HW
HStem: -0 21G<466 614 832 980> 692 124<363.34 466 614 832> 1391 124<358.991 466 614 832>
VStem: 68 148<945.234 1261.06> 466 148<0 692 825 1382> 832 148<0 692 816 1391>
LayerCount: 2
Back
SplineSet
488 1515 m 1
 636 1515 l 1
 636 -0.000976562 l 1
 488 -0.000976562 l 1
 488 1515 l 1
494 692 m 2
 830 692 l 1
 830 0 l 1
 978 0 l 1
 978 1515 l 1
 494 1515 l 2
 201 1515 90 1284 90 1117 c 0
 90 912 196 692 494 692 c 2
238 1110 m 4
 238 1305 391 1391 595 1391 c 6
 830 1391 l 1
 830 816 l 1
 705 816 595 816 595 816 c 6
 394 816 238 896 238 1110 c 4
EndSplineSet
Fore
SplineSet
68 1117 m 0
 68 1284 179 1515 472 1515 c 2
 980 1515 l 1
 980 0 l 1
 832 0 l 1
 832 692 l 1
 614 692 l 1
 614 -0 l 1
 466 -0 l 1
 466 692 l 2
 168 692 68 912 68 1117 c 0
216 1110 m 0
 216 936 319 850 466 825 c 1
 466 1382 l 1
 318 1356 216 1269 216 1110 c 0
614 816 m 1
 832 816 l 1
 832 1391 l 1
 614 1391 l 1
 614 816 l 1
EndSplineSet
EndChar

StartChar: cedilla
Encoding: 184 184 112
AltUni2: 000327.ffffffff.0 000327.ffffffff.0 000327.ffffffff.0 000327.ffffffff.0 000327.ffffffff.0 000327.ffffffff.0 000327.ffffffff.0 000327.ffffffff.0 000327.ffffffff.0 000327.ffffffff.0 000327.ffffffff.0 000327.ffffffff.0 000327.ffffffff.0 000327.ffffffff.0 000327.ffffffff.0 000327.ffffffff.0 000327.ffffffff.0 000327.ffffffff.0 000327.ffffffff.0 000327.ffffffff.0 000327.ffffffff.0 000327.ffffffff.0 000327.ffffffff.0 000327.ffffffff.0 000327.ffffffff.0 000327.ffffffff.0 000327.ffffffff.0
Width: 350
VWidth: 0
GlyphClass: 1
Flags: HW
HStem: -303 76<22 171.265> -20 20G<96 191>
VStem: 175 79<-212.762 -54.2175>
LayerCount: 2
Back
SplineSet
172 0 m 9
 96 0 l 17
 96 -121 l 1
 108 -123 240 -111 240 -206 c 3
 240 -280 115 -280 97 -280 c 1
 98 -356 l 1
 134 -355 319 -367 319 -206 c 3
 319 -72 189 -66 172 -64 c 1
 172 0 l 9
EndSplineSet
Fore
SplineSet
22 -227 m 5
 40 -227 175 -227 175 -183 c 7
 175 -85 109 -16 96 0 c 13
 186 0 l 21
 196 -14 254 -83 254 -183 c 7
 254 -313 58 -302 22 -303 c 5
 22 -227 l 5
EndSplineSet
EndChar

StartChar: bracketleft
Encoding: 91 91 114
Width: 607
VWidth: 0
GlyphClass: 1
Flags: HW
HStem: -285 92<248 537> 1546 92<248 537>
VStem: 100 148<-193 1546>
LayerCount: 2
Fore
SplineSet
100 -285 m 5
 100 1638 l 5
 537 1638 l 5
 537 1546 l 5
 248 1546 l 5
 248 -193 l 5
 537 -193 l 5
 537 -285 l 5
 100 -285 l 5
EndSplineSet
EndChar

StartChar: bracketright
Encoding: 93 93 115
Width: 607
VWidth: 0
GlyphClass: 1
Flags: HW
HStem: -285 92<100 389> 1546 92<100 389>
VStem: 389 148<-193 1546>
LayerCount: 2
Fore
SplineSet
100 -193 m 1
 389 -193 l 1
 389 1546 l 1
 100 1546 l 1
 100 1638 l 1
 537 1638 l 1
 537 -285 l 1
 100 -285 l 1
 100 -193 l 1
EndSplineSet
EndChar

StartChar: braceleft
Encoding: 123 123 116
Width: 772
VWidth: 0
GlyphClass: 1
Flags: W
HStem: -288 105<446.039 594> 614 122<80 206.822> 1533 105<446.039 594>
VStem: 213 114<-66.3646 244.8 1105.2 1416.36> 273 114<210.064 546.099 803.901 1139.94>
CounterMasks: 1 e0
LayerCount: 2
Fore
SplineSet
80 614 m 5xe8
 80 736 l 5
 213 736 273 823 273 981 c 7xe8
 273 1072 213 1100 213 1266 c 7
 213 1487 317 1635 594 1638 c 5
 594 1533 l 5
 409 1533 327 1382 327 1283 c 7xf0
 327 1223 387 1113 387 984 c 7
 387 796 332 719 207 675 c 5
 332 631 387 554 387 366 c 7xe8
 387 237 327 127 327 67 c 7
 327 -32 409 -183 594 -183 c 5
 594 -288 l 5
 317 -285 213 -137 213 84 c 7xf0
 213 250 273 278 273 369 c 7
 273 527 213 614 80 614 c 5xe8
EndSplineSet
Validated: 1
EndChar

StartChar: braceright
Encoding: 125 125 117
Width: 772
VWidth: 0
GlyphClass: 1
Flags: HW
HStem: -288 105<80 227.961> 614 122<467.178 594> 1533 105<80 227.961>
VStem: 287 114<210.064 546.099 803.901 1139.94> 347 114<-66.3646 244.8 1105.2 1416.36>
CounterMasks: 1 e0
LayerCount: 2
Fore
SplineSet
80 -183 m 1
 265 -183 347 -32 347 67 c 3xe8
 347 127 287 237 287 366 c 3
 287 554 342 631 467 675 c 1
 342 719 287 796 287 984 c 3xf0
 287 1113 347 1223 347 1283 c 3
 347 1382 265 1533 80 1533 c 1
 80 1638 l 1
 357 1635 461 1487 461 1266 c 3xe8
 461 1100 401 1072 401 981 c 3
 401 823 461 736 594 736 c 1
 594 614 l 1xf0
 461 614 401 527 401 369 c 3xf0
 401 278 461 250 461 84 c 3
 461 -137 357 -285 80 -288 c 1
 80 -183 l 1
EndSplineSet
EndChar

StartChar: less
Encoding: 60 60 118
AltUni2: 002039.ffffffff.0 002039.ffffffff.0 002039.ffffffff.0 002039.ffffffff.0 002039.ffffffff.0 002039.ffffffff.0 002039.ffffffff.0 002039.ffffffff.0 002039.ffffffff.0 002039.ffffffff.0 002039.ffffffff.0 002039.ffffffff.0 002039.ffffffff.0 002039.ffffffff.0 002039.ffffffff.0 002039.ffffffff.0 002039.ffffffff.0 002039.ffffffff.0 002039.ffffffff.0 002039.ffffffff.0 002039.ffffffff.0 002039.ffffffff.0 002039.ffffffff.0 002039.ffffffff.0 002039.ffffffff.0 002039.ffffffff.0 002039.ffffffff.0 002039.ffffffff.0
Width: 960
VWidth: 0
GlyphClass: 1
Flags: W
DStem2: 232 744 64 744 0.765744 -0.643145<0 863.868> 64 744 232 744 0.765744 0.643145<128.645 992.513>
LayerCount: 2
Back
SplineSet
80 731 m 1
 826 104 l 1
 894 189 l 1
 232 744 l 1
 894 1299 l 1
 826 1384 l 1
 80 757 l 1
566 410 m 5
 501 345 l 5
 102 744 l 1
 500 1142 l 1
 564 1076 l 1
 232 744 l 1
 566 410 l 5
EndSplineSet
Fore
SplineSet
64 744 m 5
 826 1384 l 5
 894 1299 l 5
 232 744 l 5
 894 189 l 5
 826 104 l 5
 64 744 l 5
EndSplineSet
Validated: 1
EndChar

StartChar: greater
Encoding: 62 62 119
AltUni2: 00203a.ffffffff.0 00203a.ffffffff.0 00203a.ffffffff.0 00203a.ffffffff.0 00203a.ffffffff.0 00203a.ffffffff.0 00203a.ffffffff.0 00203a.ffffffff.0 00203a.ffffffff.0 00203a.ffffffff.0 00203a.ffffffff.0 00203a.ffffffff.0 00203a.ffffffff.0 00203a.ffffffff.0 00203a.ffffffff.0 00203a.ffffffff.0 00203a.ffffffff.0 00203a.ffffffff.0 00203a.ffffffff.0 00203a.ffffffff.0 00203a.ffffffff.0 00203a.ffffffff.0 00203a.ffffffff.0 00203a.ffffffff.0 00203a.ffffffff.0 00203a.ffffffff.0 00203a.ffffffff.0 00203a.ffffffff.0
Width: 960
VWidth: 0
GlyphClass: 1
Flags: HW
DStem2: 132 1384 64 1299 0.765744 -0.643145<2.5967 866.465> 64 189 132 104 0.765744 0.643145<0 863.868>
LayerCount: 2
Fore
SplineSet
64 189 m 1
 726 744 l 1
 64 1299 l 1
 132 1384 l 1
 894 744 l 1
 132 104 l 1
 64 189 l 1
EndSplineSet
EndChar

StartChar: section
Encoding: 167 167 120
Width: 918
VWidth: 0
GlyphClass: 1
Flags: HW
HStem: -11 112<312.396 621.907> 1248 112<298.053 597.18>
VStem: 114 128<701.894 852.552 993.586 1194.68> 686 132<162.103 391.317 529.541 683.503>
LayerCount: 2
Back
SplineSet
274 1022 m 3
 274 908 384 864 512 826 c 0
 668 779 850 723 850 510 c 3
 850 328 688 207 510 207 c 27
 341 207 224 270 132 418 c 1
 231 482 l 1
 299 377 378 319 508 319 c 3
 588 319 718 355 718 495 c 3
 718 634 580 680 468 706 c 0
 329 738 146 818 146 1002 c 3
 146 1177 289 1284 478 1284 c 3
 674 1284 776 1158 804 1116 c 1
 713 1048 l 1
 641 1122 612 1172 470 1172 c 3
 354 1172 274 1105 274 1022 c 3
242 804 m 3
 242 690 352 646 480 608 c 0
 636 561 818 505 818 292 c 3
 818 110 656 -11 478 -11 c 27
 309 -11 192 52 100 200 c 1
 199 264 l 1
 267 159 346 101 476 101 c 3
 556 101 686 137 686 277 c 3
 686 416 548 462 436 488 c 0
 297 520 114 600 114 784 c 3
 114 959 257 1066 446 1066 c 3
 642 1066 744 940 772 898 c 1
 681 830 l 1
 609 904 580 954 438 954 c 3
 322 954 242 887 242 804 c 3
EndSplineSet
Fore
SplineSet
100 200 m 1
 199 264 l 1
 267 159 346 101 476 101 c 3
 556 101 686 137 686 277 c 3
 686 416 548 462 436 488 c 0
 297 520 114 600 114 784 c 3
 114 842 131 895 159 937 c 1
 132 975 114 1023 114 1078 c 3
 114 1253 257 1360 446 1360 c 3
 642 1360 744 1234 772 1192 c 1
 681 1124 l 1
 609 1198 580 1248 438 1248 c 3
 322 1248 242 1181 242 1098 c 3
 242 984 352 940 480 902 c 0
 636 855 818 799 818 586 c 3
 818 532 803 482 778 440 c 1
 802 402 818 352 818 292 c 3
 818 110 656 -11 478 -11 c 27
 309 -11 192 52 100 200 c 1
242 804 m 3
 242 690 352 646 480 608 c 0
 547 588 622 565 682 529 c 1
 684 541 686 557 686 571 c 3
 686 710 548 756 436 782 c 0
 377 796 309 819 252 854 c 1
 246 839 242 821 242 804 c 3
EndSplineSet
EndChar

StartChar: degree
Encoding: 176 176 121
AltUni2: 00030a.ffffffff.0 00030a.ffffffff.0 00030a.ffffffff.0 00030a.ffffffff.0 00030a.ffffffff.0 00030a.ffffffff.0 00030a.ffffffff.0 00030a.ffffffff.0 00030a.ffffffff.0 00030a.ffffffff.0 00030a.ffffffff.0 00030a.ffffffff.0 00030a.ffffffff.0 00030a.ffffffff.0 00030a.ffffffff.0 00030a.ffffffff.0 00030a.ffffffff.0 00030a.ffffffff.0 00030a.ffffffff.0 00030a.ffffffff.0 00030a.ffffffff.0 00030a.ffffffff.0 00030a.ffffffff.0 00030a.ffffffff.0 00030a.ffffffff.0 00030a.ffffffff.0
Width: 688
VWidth: 0
GlyphClass: 1
Flags: HW
HStem: 985 92<242.272 451.195> 1406 92<241.029 450.567>
VStem: 96 92<1128.59 1353.78> 505 92<1130.05 1353.61>
LayerCount: 2
Back
SplineSet
0 -282 m 28,0,0
-282 0 m 28,0,0
0 282 m 7,0,0
 187.542 282 282 156 282 0 c 28,0,0
196 1244 m 7,0,1
 196 1158 248 1080 352 1080 c 7,2,3
 449 1080 500 1158 500 1244 c 31,4,5
 500 1329 449 1403 352 1403 c 7,6,7
 248 1403 196 1329 196 1244 c 7,0,1
94 1244 m 7,8,9
 94 1381 184 1493 353 1493 c 7,10,11
 513 1493 602 1381 602 1244 c 31,12,13
 602 1105 513 990 353 990 c 7,14,15
 184 990 94 1105 94 1244 c 7,8,9
347 1375 m 4,0,1
 272 1375 217 1313 217 1242 c 4,2,3
 217 1173 269 1108 347 1108 c 4,4,5
 421 1108 474 1173 474 1242 c 4,6,7
 474 1311 421 1375 347 1375 c 4,0,1
346 1466 m 4,8,9
 465 1466 566 1367 566 1242 c 4,10,11
 566 1117 467 1017 347 1017 c 4,12,13
 228 1017 127 1116 127 1242 c 4,14,15
 127 1366 226 1466 346 1466 c 4,8,9
EndSplineSet
Fore
SplineSet
92 1242 m 0
 92 1383 206 1497 347 1497 c 0
 488 1497 602 1383 602 1242 c 0
 602 1101 488 987 347 987 c 0
 206 987 92 1101 92 1242 c 0
188 1242 m 0
 188 1155 259 1084 346 1084 c 0
 433 1084 504 1155 504 1242 c 0
 504 1329 433 1400 346 1400 c 0
 259 1400 188 1329 188 1242 c 0
EndSplineSet
EndChar

StartChar: cent
Encoding: 162 162 122
Width: 970
VWidth: 0
GlyphClass: 1
Flags: HW
HStem: -8 115<377.436 450 582 664.616> 949 114<374.921 450 582 674.056>
VStem: 110 132<277.63 799.412> 450 132<-236 0.249756 113 943 1056.04 1281> 755 106<806.508 862.532>
LayerCount: 2
Back
SplineSet
450 1281 m 1
 582 1281 l 1
 582 -236 l 1
 450 -236 l 1
 450 1281 l 1
110 520 m 3xe8
 110 849 227 1066 535 1066 c 3
 792 1066 861 813 861 813 c 1
 755 765 l 1xf0
 755 765 719 954 535 954 c 3
 307 954 242 765 242 529 c 3
 242 251 353 101 535 101 c 3
 704 101 776 308 776 308 c 1
 880 258 l 2
 880 257 786 -11 535 -11 c 3
 234 -11 110 198 110 520 c 3xe8
EndSplineSet
Fore
SplineSet
110 520 m 3
 110 817 205 1023 450 1060 c 1
 450 1281 l 1
 582 1281 l 1
 582 1063 l 1
 803 1036 861 813 861 813 c 1
 755 765 l 1
 755 765 727 921 582 949 c 1
 582 107 l 1
 717 141 776 308 776 308 c 1
 880 258 l 2
 880 257 796 24 582 -8 c 1
 582 -236 l 1
 450 -236 l 1
 450 -5 l 1
 212 33 110 231 110 520 c 3
242 529 m 3
 242 298 320 155 450 113 c 1
 450 943 l 1
 288 902 242 734 242 529 c 3
EndSplineSet
EndChar

StartChar: guillemotleft
Encoding: 171 171 123
Width: 755
VWidth: 0
GlyphClass: 1
Flags: HW
HStem: 1054 444
VStem: 100 555
DStem2: 100 1276 230 1276 0.707107 0.707107<91.9239 312.541> 230 1276 100 1276 0.707107 -0.707107<0 222.032> 368 1276 498 1276 0.707107 0.707107<91.9239 312.541> 498 1276 368 1276 0.707107 -0.707107<0 222.032>
LayerCount: 2
Back
SplineSet
724 1119 m 5
 659 1054 l 5
 437 1276 l 5
 659 1498 l 5
 723 1432 l 5
 567 1276 l 5
 724 1119 l 5
456 1119 m 5
 391 1054 l 5
 169 1276 l 5
 391 1498 l 5
 455 1432 l 5
 299 1276 l 5
 456 1119 l 5
EndSplineSet
Fore
SplineSet
100 1276 m 1
 322 1498 l 5
 386 1432 l 1
 230 1276 l 1
 387 1119 l 1
 322 1054 l 1
 100 1276 l 1
368 1276 m 1
 590 1498 l 1
 654 1432 l 1
 498 1276 l 1
 655 1119 l 1
 590 1054 l 1
 368 1276 l 1
EndSplineSet
EndChar

StartChar: registered
Encoding: 174 174 125
Width: 1142
VWidth: 0
GlyphClass: 1
Flags: HW
HStem: 282 67<412.562 729.438> 702 63<481 592> 929 63<481 673.422> 1139 67<411.74 730.26>
VStem: 100 68<593.098 894.902> 410 71<500 702 765 929> 689 70<778.516 914.382> 974 68<592.096 895.904>
DStem2: 665 713 592 702 0.400142 -0.916453<0 202.007>
LayerCount: 2
Back
SplineSet
812 1232 m 7
 606 1232 195 1114 195 618 c 7
 195 318 415 -2 802 -2 c 7
 1120 -2 1412 277 1412 616 c 31
 1412 951 1141 1232 812 1232 c 7
1529 618 m 28
 1529 215 1205 -116 802 -116 c 31
 399 -116 76 186 76 618 c 7
 76 1140 485 1334 812 1334 c 7
 1189 1334 1529 1013 1529 618 c 28
506 716 m 1
 518.922 746.558 l 1
 534.966 775.598 l 1
 553.959 802.801 l 1
 575.691 827.87 l 1
 599.924 850.531 l 1
 626.394 870.534 l 1
 654.809 887.661 l 1
 684.859 901.723 l 1
 716.214 912.568 l 1
 748.531 920.076 l 1
 781.455 924.164 l 1
 814.627 924.789 l 1
 847.682 921.942 l 1
 880.259 915.657 l 1
 912 906 l 1
 942.558 893.078 l 1
 971.598 877.034 l 1
 998.801 858.041 l 1
 1023.87 836.309 l 1
 1046.53 812.076 l 1
 1066.53 785.606 l 1
 1083.66 757.191 l 1
 1097.72 727.141 l 1
 1108.57 695.786 l 1
 1116.08 663.469 l 1
 1120.16 630.545 l 1
 1120.79 597.373 l 1
 1117.94 564.318 l 1
 1111.66 531.741 l 1
 1102 500 l 1
 1089.08 469.442 l 1
 1073.03 440.402 l 1
 1054.04 413.199 l 1
 1032.31 388.13 l 1
 1008.08 365.469 l 1
 981.606 345.466 l 1
 953.191 328.339 l 1
 923.141 314.277 l 1
 891.786 303.432 l 1
 859.469 295.924 l 1
 826.545 291.836 l 1
 793.373 291.211 l 1
 760.318 294.058 l 1
 727.741 300.343 l 1
 696 310 l 1
 665.442 322.922 l 1
 636.402 338.966 l 1
 609.199 357.959 l 1
 584.13 379.691 l 1
 561.469 403.924 l 1
 541.466 430.394 l 1
 524.339 458.809 l 1
 510.277 488.859 l 1
 499.432 520.214 l 1
 491.924 552.531 l 1
 487.836 585.455 l 1
 487.211 618.627 l 1
 490.058 651.682 l 1
 496.343 684.259 l 1
 506 716 l 1
384.353 1138.58 m 1
 441.228 1179.83 l 1
 502.104 1214.91 l 1
 566.313 1243.44 l 1
 633.152 1265.09 l 1
 701.89 1279.65 l 1
 771.771 1286.93 l 1
 842.031 1286.88 l 1
 911.9 1279.47 l 1
 980.614 1264.81 l 1
 1047.42 1243.04 l 1
 1111.58 1214.41 l 1
 1172.4 1179.23 l 1
 1229.21 1137.89 l 1
 1281.38 1090.83 l 1
 1328.35 1038.58 l 1
 1369.6 981.705 l 1
 1404.68 920.83 l 1
 1433.21 856.62 l 1
 1454.87 789.781 l 1
 1469.42 721.044 l 1
 1476.71 651.162 l 1
 1476.65 580.902 l 1
 1469.25 511.032 l 1
 1454.58 442.319 l 1
 1432.82 375.516 l 1
 1404.19 311.354 l 1
 1369 250.535 l 1
 1327.66 193.727 l 1
 1280.6 141.552 l 1
 1228.35 94.5811 l 1
 1171.48 53.3301 l 1
 1110.6 18.249 l 1
 1046.39 -10.2754 l 1
 979.552 -31.9326 l 1
 910.814 -46.4844 l 1
 840.934 -53.7715 l 1
 770.673 -53.7139 l 1
 700.804 -46.3125 l 1
 632.091 -31.6475 l 1
 565.287 -9.88184 l 1
 501.124 18.748 l 1
 440.306 53.9287 l 1
 383.498 95.2734 l 1
 331.323 142.329 l 1
 284.353 194.581 l 1
 243.101 251.457 l 1
 208.021 312.333 l 1
 179.495 376.542 l 1
 157.839 443.382 l 1
 143.287 512.118 l 1
 136 582 l 1
 136.058 652.261 l 1
 143.459 722.13 l 1
 158.123 790.843 l 1
 179.89 857.646 l 1
 208.52 921.81 l 1
 243.699 982.628 l 1
 285.044 1039.44 l 1
 332.101 1091.61 l 1
 384.353 1138.58 l 1
EndSplineSet
Fore
SplineSet
100 744 m 7
 100 999 311 1206 571 1206 c 7
 831 1206 1042 1002 1042 744 c 31
 1042 486 829 282 571 282 c 31
 313 282 100 489 100 744 c 7
168 744 m 7
 168 526 351 349 571 349 c 31
 791 349 974 524 974 744 c 31
 974 964 793 1139 571 1139 c 7
 349 1139 168 962 168 744 c 7
410 500 m 1
 410 992 l 1
 622 992 l 2
 717 992 759 909 759 854 c 0
 759 801 737 728 665 713 c 1
 758 500 l 1
 682 500 l 1
 592 702 l 1
 481 702 l 1
 481 500 l 1
 410 500 l 1
481 765 m 1
 521 765 603 765 603 765 c 2
 646 765 689 784 689 854 c 0
 689 918 636 929 570 929 c 2
 481 929 l 1
 481 765 l 1
EndSplineSet
EndChar

StartChar: currency
Encoding: 164 164 127
Width: 688
VWidth: 0
GlyphClass: 1
Flags: HW
HStem: 483 101<245.919 458.407> 905 101<246.513 459.243> 1036 20G<88 128 580 620>
VStem: 98 100<632.888 856.885> 507 102<633.103 856.234>
DStem2: 108 1056 43 991 0.706472 -0.707741<0.0824413 149.42 639.118 788.424> 43 498 108 433 0.706472 0.707741<0 150.104 638.366 788.342>
LayerCount: 2
Back
SplineSet
354 905 m 0
 264 905 198 830 198 745 c 0
 198 662 260 584 354 584 c 0
 443 584 507 662 507 745 c 0
 507 828 443 905 354 905 c 0
501 957 m 1
 556 1012 l 1
 621 947 l 1
 565 891 l 1
 592 850 609 799 609 745 c 0
 609 691 592 639 565 598 c 1
 621 542 l 1
 556 477 l 1
 502 531 l 1
 461 501 408 483 354 483 c 0
 300 483 248 501 206 531 c 1
 152 477 l 1
 87 542 l 1
 143 598 l 1
 115 638 98 691 98 745 c 0
 98 800 114 850 142 892 c 1
 87 947 l 1
 152 1012 l 1
 206 958 l 1
 248 989 298 1006 353 1006 c 0
 407 1006 461 988 501 957 c 1
354 905 m 0
 264 905 198 830 198 745 c 0
 198 662 260 584 354 584 c 0
 443 584 507 662 507 745 c 0
 507 828 443 905 354 905 c 0
501 957 m 1
 600 1056 l 1
 665 991 l 1
 565 891 l 1
 592 850 609 799 609 745 c 0
 609 691 592 639 565 598 c 1
 665 498 l 1
 600 433 l 1
 502 531 l 1
 461 501 408 483 354 483 c 0
 300 483 248 501 206 531 c 1
 108 433 l 1
 43 498 l 1
 143 598 l 1
 115 638 98 691 98 745 c 0
 98 800 114 850 142 892 c 1
 43 991 l 1
 108 1056 l 1
 206 958 l 1
 248 989 298 1006 353 1006 c 0
 407 1006 461 988 501 957 c 1
354 1402 m 0
 264 1402 198 1327 198 1242 c 0
 198 1159 260 1081 354 1081 c 0
 443 1081 507 1159 507 1242 c 0
 507 1325 443 1402 354 1402 c 0
353 1503 m 0
 492 1503 609 1388 609 1242 c 0
 609 1096 494 980 354 980 c 0
 215 980 98 1096 98 1242 c 0
 98 1387 213 1503 353 1503 c 0
354 1176 m 1
 152 974 l 1
 87 1039 l 1
 289 1241 l 1
 87 1444 l 1
 152 1509 l 1
 354 1306 l 1
 556 1509 l 1
 621 1444 l 1
 419 1241 l 1
 621 1039 l 1
 556 974 l 1
 354 1176 l 1
354 1176 m 1
 152 974 l 1
 87 1039 l 1
 289 1241 l 1
 87 1444 l 1
 152 1509 l 1
 354 1306 l 1
 556 1509 l 1
 621 1444 l 1
 419 1241 l 1
 621 1039 l 1
 556 974 l 1
 354 1176 l 1
354 1176 m 1
 200 1022 l 1
 135 1087 l 1
 289 1241 l 1
 135 1396 l 1
 200 1461 l 1
 354 1306 l 1
 507 1460 l 1
 572 1395 l 1
 419 1241 l 1
 573 1087 l 1
 508 1022 l 1
 354 1176 l 1
346 1090 m 3
 432 1090 510 1142 510 1246 c 3
 510 1343 432 1394 346 1394 c 27
 261 1394 187 1343 187 1246 c 3
 187 1142 261 1090 346 1090 c 3
346 988 m 3
 209 988 97 1078 97 1247 c 3
 97 1407 209 1496 346 1496 c 27
 485 1496 600 1407 600 1247 c 3
 600 1078 485 988 346 988 c 3
EndSplineSet
Fore
SplineSet
43 498 m 1
 143 598 l 1
 115 638 98 691 98 745 c 0
 98 800 114 850 142 892 c 1
 43 991 l 1
 108 1056 l 1
 206 958 l 1
 248 989 298 1006 353 1006 c 0
 407 1006 461 988 501 957 c 1
 600 1056 l 1
 665 991 l 1
 565 891 l 1
 592 850 609 799 609 745 c 0
 609 691 592 639 565 598 c 1
 665 498 l 1
 600 433 l 1
 502 531 l 1
 461 501 408 483 354 483 c 0
 300 483 248 501 206 531 c 1
 108 433 l 1
 43 498 l 1
198 745 m 0
 198 662 260 584 354 584 c 0
 443 584 507 662 507 745 c 0
 507 828 443 905 354 905 c 0
 264 905 198 830 198 745 c 0
EndSplineSet
EndChar

StartChar: ordmasculine
Encoding: 186 186 128
Width: 972
VWidth: 0
GlyphClass: 1
Flags: HW
HStem: 1057 63<204.814 346.759> 1452 63<201.845 347.844>
VStem: 101 70<1151.27 1423.92> 380 70<1149.33 1424.34>
LayerCount: 2
Fore
SplineSet
101 1286 m 3
 101 1425 164 1515 276 1515 c 27
 388 1515 450 1424 450 1286 c 3
 450 1153 388 1057 276 1057 c 3
 163 1057 101 1156 101 1286 c 3
171 1286 m 3
 171 1203 188.977 1120 276 1120 c 3
 363.052 1120 380 1202 380 1286 c 3
 380 1391 355.006 1452 276 1452 c 7
 196.994 1452 171 1394 171 1286 c 3
EndSplineSet
EndChar

StartChar: yen
Encoding: 165 165 131
Width: 2048
VWidth: 0
GlyphClass: 1
Flags: HW
HStem: 0 21G<532 680> 302 92<303 532 680 920> 568 92<303 532 680 920> 1495 20G<70 234.715 977.285 1142>
VStem: 532 148<0 302 394 568>
DStem2: 224 1515 70 1515 0.475388 -0.879776<0 808.879> 606 802 680 660 0.475388 0.879776<0 808.879>
LayerCount: 2
Back
SplineSet
303 660 m 5
 920 660 l 5
 920 568 l 5
 303 568 l 5
 303 660 l 5
303 394 m 5
 920 394 l 5
 920 302 l 5
 303 302 l 5
 303 394 l 5
1142 1515 m 25
 680 660 l 25
 680 0 l 25
 532 0 l 25
 532 660 l 25
 70 1515 l 25
 224 1515 l 25
 606 802 l 25
 988 1515 l 25
 1142 1515 l 25
EndSplineSet
Fore
SplineSet
70 1515 m 25
 224 1515 l 25
 606 802 l 25
 988 1515 l 25
 1142 1515 l 25
 680 660 l 17
 920 660 l 1
 920 568 l 1
 680 568 l 1
 680 394 l 1
 920 394 l 1
 920 302 l 1
 680 302 l 1
 680 0 l 9
 532 0 l 17
 532 302 l 1
 303 302 l 1
 303 394 l 1
 532 394 l 1
 532 568 l 1
 303 568 l 1
 303 660 l 1
 532 660 l 9
 70 1515 l 25
EndSplineSet
EndChar

StartChar: multiply
Encoding: 215 215 180
Width: 707
VWidth: 0
GlyphClass: 1
Flags: HW
HStem: 479 523
VStem: 93 521
DStem2: 158 1002 93 937 0.706334 -0.707879<0.100461 277.894 369.918 647.003> 93 544 158 479 0.706332 0.707881<0 277.085 369.11 645.488>
LayerCount: 2
Fore
SplineSet
93 544 m 1
 289 740 l 1
 93 937 l 1
 158 1002 l 1
 354 805 l 1
 549 1001 l 1
 614 936 l 1
 419 740 l 1
 615 544 l 1
 550 479 l 1
 354 675 l 1
 158 479 l 1
 93 544 l 1
EndSplineSet
EndChar

StartChar: plusminus
Encoding: 177 177 181
Width: 707
VWidth: 0
GlyphClass: 1
Flags: HW
HStem: 414 92<90 617> 817 92<90 308 400 617>
VStem: 308 92<599 817 909 1127>
LayerCount: 2
Fore
SplineSet
90 414 m 1
 90 506 l 1
 617 506 l 1
 617 414 l 1
 90 414 l 1
90 817 m 1
 90 909 l 1
 308 909 l 1
 308 1127 l 1
 400 1127 l 1
 400 909 l 1
 617 909 l 1
 617 817 l 1
 400 817 l 1
 400 599 l 1
 308 599 l 1
 308 817 l 1
 90 817 l 1
EndSplineSet
EndChar

StartChar: divide
Encoding: 247 247 182
Width: 707
VWidth: 0
GlyphClass: 1
Flags: HW
HStem: 394 150<279 429> 694 92<90 617> 936 150<279 429>
VStem: 279 150<394 544 936 1086>
CounterMasks: 1 e0
LayerCount: 2
Back
SplineSet
429 694 m 5
 429 544 l 5
 279 544 l 5
 279 694 l 5
 429 694 l 5
429 936 m 1
 429 786 l 1
 279 786 l 1
 279 936 l 1
 429 936 l 1
308 694 m 1
 90 694 l 1
 90 786 l 1
 308 786 l 1
 308 1004 l 1
 400 1004 l 1
 400 786 l 1
 617 786 l 1
 617 694 l 1
 400 694 l 1
 400 476 l 1
 308 476 l 1
 308 694 l 1
EndSplineSet
Fore
SplineSet
90 694 m 1
 90 786 l 1
 617 786 l 1
 617 694 l 1
 90 694 l 1
279 394 m 1
 279 544 l 1
 429 544 l 1
 429 394 l 1
 279 394 l 1
279 936 m 1
 279 1086 l 1
 429 1086 l 1
 429 936 l 1
 279 936 l 1
EndSplineSet
EndChar

StartChar: copyright
Encoding: 169 169 183
Width: 1142
VWidth: 0
GlyphClass: 1
Flags: HW
HStem: 282 67<412.562 729.438> 453 70<489.197 656.252> 957 71<486.164 650.604> 1139 67<411.74 730.26>
VStem: 100 68<593.098 894.902> 371 71<571.909 909.784> 692 66<558.498 627.738> 974 68<592.096 895.904>
LayerCount: 2
Back
SplineSet
100 744 m 3
 100 999 311 1206 571 1206 c 3
 831 1206 1042 1002 1042 744 c 27
 1042 486 829 282 571 282 c 27
 313 282 100 489 100 744 c 3
168 744 m 3
 168 526 351 349 571 349 c 27
 791 349 974 524 974 744 c 27
 974 964 793 1139 571 1139 c 3
 349 1139 168 962 168 744 c 3
371 741 m 27
 371 878 432 1028 574 1028 c 3
 711 1028 750 859 750 859 c 9
 684 846 l 17
 677 868 665 957 574 957 c 3
 455 957 442 848 442 741 c 3
 442 616 467 523 574 523 c 3
 672 523 688 611 692 634 c 9
 758 626 l 17
 756 605 709 453 574 453 c 3
 428 453 371 604 371 741 c 27
806 6 m 27
 467 6 186 278.384 186 614 c 3
 186 949.616 463.76 1222 806 1222 c 3
 1148.24 1222 1426 953 1426 614 c 27
 1426 275 1145 6 806 6 c 27
418 1097 m 5
 470 1135 l 5
 526 1167 l 5
 586 1193 l 5
 647 1213 l 5
 710 1227 l 5
 775 1233 l 5
 839 1233 l 5
 903 1226 l 5
 967 1213 l 5
 1028 1193 l 5
 1087 1167 l 5
 1143 1134 l 5
 1195 1096 l 5
 1243 1053 l 5
 1287 1005 l 5
 1325 952 l 5
 1357 896 l 5
 1383 837 l 5
 1403 776 l 5
 1416 713 l 5
 1423 648 l 5
 1423 584 l 5
 1416 519 l 5
 1403 456 l 5
 1383 395 l 5
 1356 336 l 5
 1324 280 l 5
 1286 228 l 5
 1243 180 l 5
 1195 136 l 5
 1142 98 l 5
 1086 66 l 5
 1027 40 l 5
 966 20 l 5
 902 7 l 5
 838 -0 l 5
 774 -0 l 5
 709 7 l 5
 646 20 l 5
 585 40 l 5
 526 67 l 5
 470 99 l 5
 417 137 l 5
 369 180 l 5
 326 228 l 5
 288 281 l 5
 256 337 l 5
 230 396 l 5
 210 457 l 5
 196 520 l 5
 190 585 l 5
 190 649 l 5
 197 714 l 5
 210 777 l 5
 230 838 l 5
 256 897 l 5
 289 953 l 5
 327 1006 l 5
 370 1054 l 5
 418 1097 l 5
506 716 m 1
 519 747 l 1
 535 776 l 1
 554 803 l 1
 576 828 l 1
 600 851 l 1
 626 871 l 1
 655 888 l 1
 685 902 l 1
 716 913 l 1
 749 920 l 1
 781 924 l 1
 815 925 l 1
 848 922 l 1
 880 916 l 1
 912 906 l 1
 943 893 l 1
 972 877 l 1
 999 858 l 1
 1024 836 l 1
 1047 812 l 1
 1067 786 l 1
 1084 757 l 1
 1098 727 l 1
 1109 696 l 1
 1116 663 l 1
 1120 631 l 1
 1121 597 l 1
 1118 564 l 1
 1112 532 l 1
 1102 500 l 1
 1089 469 l 1
 1073 440 l 1
 1054 413 l 1
 1032 388 l 1
 1008 365 l 1
 982 345 l 1
 953 328 l 1
 923 314 l 1
 892 303 l 1
 859 296 l 1
 827 292 l 1
 793 291 l 1
 760 294 l 1
 728 300 l 1
 696 310 l 1
 665 323 l 1
 636 339 l 1
 609 358 l 1
 584 380 l 1
 561 404 l 1
 541 430 l 1
 524 459 l 1
 510 489 l 1
 499 520 l 1
 492 553 l 1
 488 585 l 1
 487 619 l 1
 490 652 l 1
 496 684 l 1
 506 716 l 1
351 1180 m 5
 412 1225 l 5
 478 1263 l 5
 547 1294 l 5
 619 1317 l 5
 694 1333 l 5
 769 1341 l 5
 845 1341 l 5
 920 1333 l 5
 995 1317 l 5
 1067 1293 l 5
 1136 1262 l 5
 1202 1224 l 5
 1263 1180 l 5
 1319 1129 l 5
 1370 1072 l 5
 1415 1011 l 5
 1453 945 l 5
 1483 876 l 5
 1507 804 l 5
 1522 729 l 5
 1530 654 l 5
 1530 578 l 5
 1522 503 l 5
 1506 428 l 5
 1483 356 l 5
 1452 287 l 5
 1414 221 l 5
 1369 160 l 5
 1319 104 l 5
 1262 53 l 5
 1201 8 l 5
 1135 -30 l 5
 1066 -60 l 5
 993 -84 l 5
 919 -100 l 5
 844 -107 l 5
 768 -107 l 5
 692 -99 l 5
 618 -84 l 5
 546 -60 l 5
 477 -29 l 5
 411 9 l 5
 350 54 l 5
 293 104 l 5
 243 161 l 5
 198 222 l 5
 160 288 l 5
 129 357 l 5
 106 430 l 5
 90 504 l 5
 82 579 l 5
 82 655 l 5
 90 731 l 5
 106 805 l 5
 130 877 l 5
 161 946 l 5
 199 1012 l 5
 243 1073 l 5
 294 1130 l 5
 351 1180 l 5
EndSplineSet
Fore
SplineSet
102 744 m 4
 102 1003 313 1214 572 1214 c 4
 831 1214 1042 1003 1042 744 c 4
 1042 485 831 274 572 274 c 4
 313 274 102 485 102 744 c 4
167 744 m 0
 167 521 349 340 572 340 c 0
 795 340 976 521 976 744 c 0
 976 967 795 1148 572 1148 c 0
 349 1148 167 967 167 744 c 0
371 741 m 27
 371 878 432 1028 574 1028 c 3
 711 1028 750 859 750 859 c 9
 684 846 l 17
 677 868 665 957 574 957 c 3
 455 957 442 848 442 741 c 3
 442 616 467 523 574 523 c 3
 672 523 688 611 692 634 c 9
 758 626 l 17
 756 605 709 453 574 453 c 3
 428 453 371 604 371 741 c 27
EndSplineSet
EndChar

StartChar: guillemotright
Encoding: 187 187 184
Width: 755
VWidth: 0
GlyphClass: 1
Flags: HW
HStem: 1054 444
VStem: 100 555
DStem2: 100 1119 165 1054 0.707107 0.707107<0 222.032> 165 1498 101 1432 0.707107 -0.707107<1.41421 222.032> 368 1119 433 1054 0.707107 0.707107<0 222.032> 433 1498 369 1432 0.707107 -0.707107<1.41421 222.032>
LayerCount: 2
Fore
SplineSet
100 1119 m 1
 257 1276 l 1
 101 1432 l 1
 165 1498 l 1
 387 1276 l 1
 165 1054 l 1
 100 1119 l 1
368 1119 m 1
 525 1276 l 1
 369 1432 l 1
 433 1498 l 1
 655 1276 l 1
 433 1054 l 1
 368 1119 l 1
EndSplineSet
Validated: 1
EndChar

StartChar: oe
Encoding: 339 339 185
Width: 1615
VWidth: 0
GlyphClass: 1
Flags: HW
HStem: -12 112<340.54 631.457 1039.72 1316.23> 513 112<903 1399> 954 112<338.393 637.56 1017.2 1292.05>
VStem: 75 132<265.299 797.871> 765 132<267.872 513 625 802.443> 1399 132<625 813.461>
LayerCount: 2
Back
SplineSet
1190 1066 m 3
 1336 1066 1556 988 1556 513 c 1
 922 513 l 1
 922 175 1092 102 1206 101 c 0
 1360 101 1447 255 1468 292 c 1
 1559 229 l 1
 1520 156 1392 -11 1206 -11 c 3
 1035.84 -11 920.904 77.8481 855.71 205 c 1
 811.328 291.563 790 395.879 790 502 c 7
 790 658.484 816.833 773.379 858.535 857 c 1
 941.553 1023.47 1083.5 1066 1190 1066 c 3
1424 625 m 1
 1422 740 1380 954 1190 954 c 3
 966 954 932 746 928 625 c 1
 1424 625 l 1
922 527 m 3
 922 522.65 921.972 518.316 921.915 514 c 1
 920.369 395.468 897.609 289.892 855.195 205 c 1
 788.027 70.5644 671.568 -12 512 -12 c 3
 246 -12 100 220 100 528 c 3
 100 854 248 1066 512 1066 c 19
 670.278 1066 786.142 988.719 853.557 857 c 1
 886.946 791.762 908.45 713.17 917.337 624 c 1
 920.435 592.913 922 560.541 922 527 c 3
790 527 m 3
 790 773 724 954 512 954 c 3
 304 954 232 781 232 528 c 3
 232 332 286 100 512 100 c 3
 738 100 790 330 790 527 c 3
1186 1066 m 3
 1332 1066 1552 988 1552 513 c 1
 918 513 l 1
 918 175 1088 102 1202 101 c 0
 1356 101 1443 255 1464 292 c 1
 1555 229 l 1
 1516 156 1388 -11 1202 -11 c 3
 916 -11 786 240 786 502 c 3
 786 970 1026 1066 1186 1066 c 3
1420 625 m 1
 1418 740 1376 954 1186 954 c 3
 962 954 928 746 924 625 c 1
 1420 625 l 1
922 527 m 3
 922 214 776 -12 512 -12 c 3
 246 -12 100 220 100 528 c 3
 100 854 248 1066 512 1066 c 27
 776 1066 922 851 922 527 c 3
790 527 m 3
 790 773 724 954 512 954 c 3
 304 954 232 781 232 528 c 3
 232 332 286 100 512 100 c 3
 738 100 790 330 790 527 c 3
EndSplineSet
Fore
SplineSet
75 528 m 3
 75 854 223 1066 487 1066 c 19
 645 1066 765 987 831 852 c 1
 913 1022 1058 1066 1165 1066 c 3
 1311 1066 1531 988 1531 513 c 1
 897 513 l 1
 897 175 1067 102 1181 101 c 0
 1335 101 1422 255 1443 292 c 1
 1534 229 l 1
 1495 156 1367 -11 1181 -11 c 3
 1011 -11 900 74 831 205 c 1
 764 71 647 -12 487 -12 c 3
 221 -12 75 220 75 528 c 3
207 528 m 3
 207 332 261 100 487 100 c 3
 713 100 765 330 765 527 c 3
 765 773 699 954 487 954 c 3
 279 954 207 781 207 528 c 3
903 625 m 1
 1399 625 l 1
 1397 740 1355 954 1165 954 c 3
 941 954 907 746 903 625 c 1
EndSplineSet
EndChar

StartChar: OE
Encoding: 338 338 186
Width: 1718
VWidth: 0
GlyphClass: 1
Flags: HW
HStem: 0 133<476.38 791 939 1650> 734 124<939 1422> 1391 124<468.765 791 939 1612>
VStem: 80 148<448.619 1076.18> 791 148<133 734 858 1391>
LayerCount: 2
Back
SplineSet
631 0 m 25
 631 1515 l 25
 1452 1515 l 25
 1452 1391 l 25
 779 1391 l 25
 779 858 l 25
 1262 858 l 25
 1262 734 l 25
 779 734 l 25
 779 133 l 25
 1490 133 l 25
 1490 0 l 25
 631 0 l 25
70 752 m 27
 70 1127 224 1532 631 1532 c 3
 1021 1532 1181 1117 1181 752 c 3
 1181 378 1024 -16 631 -16 c 3
 248 -16 70 381 70 752 c 27
1033 752 m 3
 1033 1047 942 1408 631 1408 c 3
 322 1408 218 1093 218 752 c 3
 218 414 333 108 631 108 c 3
 941 108 1033 459 1033 752 c 3
EndSplineSet
Fore
SplineSet
80 752 m 27
 80 1121 234 1515 641 1515 c 1
 1612 1515 l 9
 1612 1391 l 25
 939 1391 l 25
 939 858 l 25
 1422 858 l 25
 1422 734 l 25
 939 734 l 25
 939 133 l 25
 1650 133 l 25
 1650 0 l 25
 1314 0 977 0 641 0 c 3
 258 0 80 386 80 752 c 27
228 752 m 3
 228 91 582 137 791 133 c 1
 791 1391 l 1
 540 1390 228 1413 228 752 c 3
EndSplineSet
EndChar

StartChar: Euro
Encoding: 8364 8364 187
Width: 1283
VWidth: 0
GlyphClass: 1
Flags: HW
HStem: -16 124<504.369 833.798> 572 102<25 141 296 676> 828 102<25 140 294 676> 1408 124<507.163 824.353>
VStem: 138 148<417.302 572 674 828 930 1087.21> 993 150<1089 1201.54> 1019 145<324.182 442.274>
LayerCount: 2
Back
SplineSet
141 761 m 27
 141 1128 285 1534 679 1534 c 3
 1060 1534 1145 1090 1145 1090 c 0
 1145 1089 1145 1089 1145 1089 c 9
 993 1048 l 17
 979 1155 930 1410 679 1410 c 3
 348 1410 289 1057 289 761 c 3
 289 415 381 110 679 110 c 3
 953 110 1017 361 1021 465 c 9
 1167 442 l 17
 1121 318 1054 -14 679 -14 c 3
 274 -14 141 393 141 761 c 27
27 930 m 1
 644 930 l 1
 644 838 l 1
 27 838 l 1
 27 930 l 1
27 664 m 1
 644 664 l 1
 644 572 l 1
 27 572 l 1
 27 664 l 1
EndSplineSet
Fore
SplineSet
25 572 m 1
 25 674 l 1
 141 674 l 1
 139 705 138 728 138 759 c 3
 138 785 139 802 140 828 c 1
 25 828 l 1
 25 930 l 1
 149 930 l 1
 189 1241 343 1532 676 1532 c 3
 1057 1532 1143 1090 1143 1090 c 0
 1143 1089 1143 1089 1143 1089 c 9
 993 1046 l 17
 975 1140 927 1408 676 1408 c 3
 409 1408 319 1175 294 930 c 1
 676 930 l 1
 676 828 l 1
 287 828 l 1
 286 802 286 784 286 759 c 3
 286 728 287 705 289 674 c 1xfc
 676 674 l 1
 676 572 l 1
 296 572 l 1
 327 311 434 108 676 108 c 3
 950 108 1009 414 1019 463 c 9
 1164 440 l 17xfa
 1149 376 1051 -16 676 -16 c 3
 340 -16 191 265 150 572 c 1
 25 572 l 1
EndSplineSet
EndChar

StartChar: ogonek
Encoding: 731 731 188
Width: 350
VWidth: 0
GlyphClass: 1
Flags: HW
HStem: -303 76<104.735 254> -20 20G<85 180>
VStem: 22 79<-212.762 -54.2175>
LayerCount: 2
Fore
SplineSet
22 -183 m 7
 22 -83 80 -14 90 0 c 13
 180 0 l 21
 167 -16 101 -85 101 -183 c 7
 101 -227 236 -227 254 -227 c 5
 254 -303 l 5
 218 -302 22 -313 22 -183 c 7
EndSplineSet
EndChar

StartChar: caron
Encoding: 711 711 189
Width: 624
VWidth: 0
GlyphClass: 1
Flags: HW
HStem: 1132 287
VStem: 90 444
DStem2: 155 1419 90 1354 0.707107 -0.707107<0 222.032> 312 1262 312 1132 0.707107 0.707107<0 220.617>
LayerCount: 2
Fore
SplineSet
90 1354 m 1
 155 1419 l 1
 312 1262 l 1
 468 1418 l 1
 534 1354 l 1
 312 1132 l 1
 90 1354 l 1
EndSplineSet
EndChar

StartChar: dotlessi
Encoding: 305 305 190
Width: 462
VWidth: 0
GlyphClass: 1
Flags: W
HStem: -2 21G<165 297> 1035 20G<165 297>
VStem: 165 132<-2 1055>
LayerCount: 2
Fore
SplineSet
165 -2 m 1
 165 1055 l 1
 297 1055 l 1
 297 -2 l 1
 165 -2 l 1
EndSplineSet
EndChar

StartChar: uni0237
Encoding: 567 567 213
Width: 362
VWidth: 0
GlyphClass: 1
Flags: HW
HStem: -337 112<-55 82.7582> 1035 20G<120 252>
VStem: 120 132<-188.103 1055>
LayerCount: 2
Fore
SplineSet
-63 -225 m 1
 -19 -225 38 -222 80 -188 c 0
 116 -160 120 -72 120 -29 c 2
 120 1055 l 5
 252 1055 l 1
 252 0 l 2
 252 -343 110 -336 -55 -337 c 1
 -63 -225 l 1
EndSplineSet
EndChar

StartChar: uni00AD
Encoding: 173 173 217
Width: 1112
VWidth: 0
GlyphClass: 1
Flags: HW
HStem: 694 92<92 1020>
LayerCount: 2
Fore
SplineSet
92 694 m 1
 92 786 l 1
 1020 786 l 1
 1020 694 l 1
 92 694 l 1
EndSplineSet
EndChar

StartChar: logicalnot
Encoding: 172 172 218
Width: 1112
VWidth: 0
GlyphClass: 1
Flags: HW
HStem: 704 92<92 928>
VStem: 928 92<366 703>
LayerCount: 2
Fore
SplineSet
92 704 m 1
 92 796 l 1
 1020 795 l 1
 1020 366 l 1
 928 366 l 1
 928 703 l 1
 92 704 l 1
EndSplineSet
EndChar

StartChar: dotaccent
Encoding: 729 729 254
Width: 475
VWidth: 0
GlyphClass: 1
Flags: H
HStem: 122 150<-75 75>
VStem: -75 150<122 272>
LayerCount: 2
Fore
SplineSet
-75 122 m 5
 -75 272 l 5
 75 272 l 5
 75 122 l 5
 -75 122 l 5
EndSplineSet
EndChar

StartChar: breve
Encoding: 728 728 256
Width: 530
VWidth: 0
GlyphClass: 1
Flags: HW
HStem: 1115 79<169.436 360.563>
VStem: 59 412
LayerCount: 2
Back
SplineSet
522 1115 m 4
 589 1115 654 1155 697 1245 c 5
 628 1285 l 5
 604 1229 566 1199 522 1199 c 4
 478 1199 440 1229 416 1285 c 5
 347 1245 l 5
 390 1155 455 1115 522 1115 c 4
EndSplineSet
Fore
SplineSet
59 1250 m 5
 128 1290 l 5
 152 1234 209.991 1194 265 1194 c 7
 320 1194 378 1234 402 1290 c 5
 471 1250 l 5
 428 1160 352.006 1115 265 1115 c 7
 177.994 1115 102 1160 59 1250 c 5
EndSplineSet
EndChar

StartChar: eng
Encoding: 331 331 294
Width: 444
VWidth: 0
GlyphClass: 1
Flags: HW
HStem: -337 112<593 730.758> 0 21G<160 292> 954 112<470.264 709.55>
VStem: 160 132<0 824.632 882 1055> 768 132<-188.103 892.583>
LayerCount: 2
Back
SplineSet
909 1515 m 5
 909 1365 l 5
 759 1365 l 5
 759 1515 l 5
 909 1515 l 5
900 0 m 6
 900 -343 758 -336 593 -337 c 5
 585 -225 l 5
 629 -225 686 -222 728 -188 c 4
 764 -160 768 -72 768 -29 c 6
 768 1055 l 5
 900 1055 l 5
 900 0 l 6
292 882 m 5
 384 973 489 1066 637 1066 c 7
 779 1066 900 984 900 786 c 6
 900 0 l 5
 768 0 l 5
 768 786 l 6
 768 894 673 954 599 954 c 7
 480 954 370 866 292 781 c 5
 292 0 l 5
 160 0 l 5
 160 1055 l 5
 292 1055 l 5
 292 882 l 5
EndSplineSet
Fore
SplineSet
160 0 m 1
 160 1055 l 1
 292 1055 l 1
 292 882 l 1
 384 973 489 1066 637 1066 c 3
 779 1066 900 984 900 786 c 2
 900 0 l 2
 900 -343 758 -336 593 -337 c 5
 585 -225 l 1
 629 -225 686 -222 728 -188 c 1
 764 -161 768 -69 768 0 c 2
 768 786 l 2
 768 894 673 954 599 954 c 3
 480 954 370 866 292 781 c 1
 292 0 l 1
 160 0 l 1
EndSplineSet
EndChar

StartChar: Eng
Encoding: 330 330 295
Width: 1195
VWidth: 0
GlyphClass: 1
Flags: HW
HStem: -338 112<788 925.758> 0 21G<100 248> 1495 20G<100 346.589 947 1095>
VStem: 100 148<0 1368> 947 148<361 1515> 963 132<-188.242 9>
DStem2: 336 1515 248 1368 0.465612 -0.884989<89.1195 1305.77>
LayerCount: 2
Back
SplineSet
995 -30 m 6
 995 -73 991 -161 955 -189 c 4
 913 -223 856 -226 812 -226 c 5
 820 -338 l 5
 985 -337 1127 -343 1127 0 c 14
 1127 1515 l 29
 979 1515 l 29
 979 361 l 29
 368 1515 l 29
 132 1515 l 29
 132 0 l 29
 280 0 l 29
 280 1368 l 29
 1000 0 l 21
EndSplineSet
Fore
SplineSet
100 0 m 25
 100 1515 l 25
 336 1515 l 25
 947 361 l 25
 947 1515 l 25
 1095 1515 l 25xf8
 1095 0 l 18
 1095 -343 953 -337 788 -338 c 1
 780 -226 l 1
 824 -226 881 -223 923 -189 c 0
 961 -158 963 -62 963 -10 c 0
 963 -3 963 4 963 9 c 9xf4
 248 1368 l 25
 248 0 l 25
 100 0 l 25
EndSplineSet
EndChar

StartChar: afii10026
Encoding: 1048 1048 299
Width: 1251
VWidth: 0
GlyphClass: 1
Flags: HW
HStem: 0 21G<136 273.526 983 1131> 1495 20G<136 284 884.411 1131>
VStem: 136 148<361 1515> 983 148<0 1368>
DStem2: 284 361 263 0 0.465746 0.884918<0 1216.67>
LayerCount: 2
Fore
SplineSet
136 0 m 25
 136 1515 l 25
 284 1515 l 25
 284 361 l 25
 895 1515 l 25
 1131 1515 l 25
 1131 0 l 25
 983 0 l 25
 983 1368 l 25
 263 0 l 25
 136 0 l 25
EndSplineSet
EndChar

StartChar: quotedblleft
Encoding: 8220 8220 335
Width: 577
VWidth: 0
GlyphClass: 1
Flags: H
HStem: 1296 150<155 220 420 485>
VStem: 70 150<1296 1446> 335 150<1296 1446>
LayerCount: 2
Fore
SplineSet
70 1296 m 5
 70 1446 l 5
 220 1446 l 5
 220 1296 l 5
 155 1296 l 5
 242 1046 l 13
 198 1046 l 5
 194 1050 108 1217 70 1296 c 5
335 1296 m 5
 335 1446 l 5
 485 1446 l 5
 485 1296 l 5
 420 1296 l 5
 507 1046 l 13
 463 1046 l 5
 459 1050 373 1217 335 1296 c 5
EndSplineSet
EndChar

StartChar: Tbar
Encoding: 358 358 344
Width: 1062
VWidth: 0
GlyphClass: 1
Flags: HW
HStem: 0 21<457 605> 773 112<233 826> 1391 124<25 457 605 1037>
VStem: 233 593<773 885> 457 148<0 1391>
LayerCount: 2
Back
SplineSet
233 884.999 m 1
 826 884.999 l 5
 826 772.999 l 5
 233 772.999 l 1
 233 884.999 l 1
EndSplineSet
Refer: 39 84 N 1 0 0 1 0 0 2
Fore
SplineSet
25 1391 m 25
 25 1515 l 25
 1037 1515 l 25
 1037 1391 l 25
 605 1391 l 17
 605 885 l 1
 826 885 l 1
 826 773 l 1
 605 773 l 1
 605 0 l 9
 457 0 l 17
 457 773 l 1
 233 773 l 1
 233 885 l 1
 457 885 l 1
 457 1391 l 9
 25 1391 l 25
EndSplineSet
EndChar

StartChar: kgreenlandic
Encoding: 312 312 348
AltUni2: 0003f0.ffffffff.0 0003ba.ffffffff.0 0003f0.ffffffff.0 0003ba.ffffffff.0 0003f0.ffffffff.0 0003ba.ffffffff.0 0003f0.ffffffff.0 0003ba.ffffffff.0 0003f0.ffffffff.0 0003ba.ffffffff.0 0003f0.ffffffff.0 0003ba.ffffffff.0 0003f0.ffffffff.0 0003ba.ffffffff.0 0003f0.ffffffff.0 0003ba.ffffffff.0 0003f0.ffffffff.0 0003ba.ffffffff.0 0003f0.ffffffff.0 0003ba.ffffffff.0 0003f0.ffffffff.0 0003ba.ffffffff.0 0003f0.ffffffff.0 0003ba.ffffffff.0 0003f0.ffffffff.0 0003ba.ffffffff.0 0003ba.ffffffff.0 0003f0.ffffffff.0 0003ba.ffffffff.0 0003f0.ffffffff.0 0003ba.ffffffff.0 0003f0.ffffffff.0 0003ba.ffffffff.0 0003f0.ffffffff.0 0003ba.ffffffff.0 0003f0.ffffffff.0 0003ba.ffffffff.0 0003f0.ffffffff.0 0003ba.ffffffff.0 0003f0.ffffffff.0 0003ba.ffffffff.0 0003f0.ffffffff.0 0003ba.ffffffff.0 0003f0.ffffffff.0 0003ba.ffffffff.0 0003f0.ffffffff.0 0003ba.ffffffff.0 0003f0.ffffffff.0 0003ba.ffffffff.0 0003f0.ffffffff.0 0003ba.ffffffff.0 0003f0.ffffffff.0 0003ba.ffffffff.0 0003f0.ffffffff.0
Width: 1140
VWidth: 0
GlyphClass: 1
Flags: W
HStem: 0 21G<617.873 770> 1035 20G<84 216 582.901 732>
VStem: 84 132<2 377 549 1055>
DStem2: 216 549 348 553 0.605619 0.795755<0 83.1247 214.333 633.998> 428 657 348 553 0.462843 -0.88644<55.1623 674.96>
LayerCount: 2
Back
SplineSet
84 2 m 25
 84 1055 l 25
 188 1055 l 25
 188 479 l 25
 621 1055 l 25
 732 1055 l 25
 428 657 l 25
 770 2 l 25
 654 2 l 25
 362 570 l 25
 188 341 l 25
 188 2 l 25
 84 2 l 25
EndSplineSet
Fore
SplineSet
84 2 m 25
 84 1055 l 25
 216 1055 l 25
 216 549 l 25
 598 1055 l 25
 732 1055 l 25
 428 657 l 25
 770 2 l 25
 628 0 l 25
 348 553 l 25
 216 377 l 25
 216 2 l 25
 84 2 l 25
EndSplineSet
EndChar

StartChar: fi
Encoding: 64257 64257 354
Width: 808
VWidth: 0
GlyphClass: 1
Flags: HW
HStem: 1403 121<341.625 557>
VStem: 186 132<1278 1378.68>
LayerCount: 2
Back
SplineSet
711 1517 m 1
 711 1367 l 1
 561 1367 l 1
 561 1517 l 1
 711 1517 l 1
570 1057 m 1
 702 1057 l 1
 702 0 l 1
 570 0 l 1
 570 1057 l 1
186 0 m 25
 186 943 l 25
 13 943 l 25
 13 1055 l 25
 186 1055 l 25
 186 1278 l 18
 186 1488 366 1524 475 1524 c 0
 522 1524 556 1517 557 1515 c 9
 557 1403 l 17
 468 1405 l 0
 402 1404 318 1389 318 1278 c 10
 318 1055 l 25
 557 1055 l 25
 557 943 l 25
 318 943 l 25
 318 0 l 25
 186 0 l 25
EndSplineSet
Fore
SplineSet
13 943 m 29
 13 1055 l 29
 186 1055 l 29
 186 1278 l 22
 186 1488 366 1524 475 1524 c 4
 544.6 1524 696 1515.15 707 1515 c 5
 707 1365 l 5
 557 1365 l 5
 557 1403 l 5
 435.508 1405.73 318 1418.86 318 1278 c 14
 318 1055 l 29
 702 1055 l 5
 702 -1.85938 l 5
 570 -1.85938 l 5
 570 943 l 13
 318 943 l 29
 318 0 l 29
 186 0 l 29
 186 943 l 29
 13 943 l 29
EndSplineSet
EndChar

StartChar: longs
Encoding: 383 383 364
Width: 617
VWidth: 0
GlyphClass: 1
Flags: HW
HStem: 0 21G<184 324> 943 112<13 186> 1405 120<442.467 604>
VStem: 186 138<0 943 1055 1257.58>
LayerCount: 2
Back
SplineSet
186 0 m 25
 186 943 l 29
 13 943 l 29
 13 1055 l 29
 186 1055 l 29
 186 1278 l 18
 186 1488 366 1524 475 1524 c 0
 522 1524 556 1517 557 1515 c 9
 557 1403 l 17
 468 1405 l 0
 402 1404 318 1389 318 1278 c 10
 318 1055 l 25
 557 1055 l 25
 557 943 l 25
 318 943 l 25
 318 0 l 25
 186 0 l 25
EndSplineSet
Fore
SplineSet
13 943 m 25
 13 1055 l 25
 186 1055 l 17
 199.043 1325.83 266.958 1525 604 1525 c 9
 604 1405 l 17
 372 1405 324 1254 324 879 c 2
 324 0 l 9
 185 0 l 17
 185 943 l 25
 13 943 l 25
EndSplineSet
EndChar

StartChar: uni024F
Encoding: 591 591 370
Width: 905
VWidth: 0
GlyphClass: 1
Flags: HW
HStem: -393 112<32.6147 279.527> 564 112<-12 161 338 586 755 916> 1035 20G<25 173.966 739.509 880>
DStem2: 167 1055 25 1055 0.337238 -0.941419<0 354.775 519.905 909.513> 466 196 512 -64 0.312405 0.949949<0 387.07 546.261 903.48>
LayerCount: 2
Back
SplineSet
25 1055 m 25
 167 1055 l 25
 466 196 l 17
 746 1055 l 9
 880 1055 l 25
 512 -64 l 26
 453 -243 385 -393 157 -393 c 4
 89 -393 29 -385 27 -385 c 13
 37 -264 l 21
 60 -275 104 -281 148 -281 c 7
 370 -281 404 -3 404 -3 c 10
 25 1055 l 25
-12 676.408 m 1
 916 676.408 l 1
 916 564.002 l 1
 -12 564.002 l 1
 -12 676.408 l 1
EndSplineSet
Fore
SplineSet
-12 564 m 1
 -12 676 l 1
 161 676 l 1
 25 1055 l 9
 167 1055 l 17
 299 676 l 1
 623 676 l 1
 746 1055 l 9
 880 1055 l 17
 755 676 l 1
 916 676 l 1
 916 564 l 1
 719 564 l 1
 512 -64 l 10
 453 -243 385 -393 157 -393 c 0
 89 -393 29 -385 27 -385 c 9
 37 -264 l 17
 60 -275 104 -281 148 -281 c 3
 370 -281 404 -3 404 -3 c 2
 201 564 l 1
 -12 564 l 1
338 564 m 1
 466 196 l 1
 586 564 l 1
 338 564 l 1
EndSplineSet
EndChar

StartChar: trademark
Encoding: 8482 8482 474
Width: 906
VWidth: 0
GlyphClass: 1
Flags: HW
HStem: 1326 63<87 204 274 391>
VStem: 204 70<935 1326> 435 70<933 1281> 749 70<933 1280>
DStem2: 536 1388 505 1281 0.2685 -0.96328<94.7474 339.157> 626 1061 652 933 0.269218 0.963079<0 244.028>
LayerCount: 2
Fore
SplineSet
87 1326 m 25
 87 1389 l 17
 391 1389 l 9
 391 1326 l 25
 274 1326 l 25
 274 935 l 25
 204 935 l 25
 204 1326 l 25
 87 1326 l 25
435 933 m 1
 435 1388 l 1
 536 1388 l 1
 626 1061 l 1
 718 1388 l 1
 819 1388 l 1
 819 933 l 1
 749 933 l 1
 749 1280 l 1
 652 933 l 1
 602 933 l 1
 505 1281 l 1
 505 933 l 1
 435 933 l 1
EndSplineSet
EndChar

StartChar: uniFB02
Encoding: 64258 64258 475
Width: 962
VWidth: 0
GlyphClass: 1
Flags: HW
HStem: 0 19G<186 318 590 722> 943 112<13 186 318 590> 1404 120<352.652 587.333>
VStem: 186 132<0 943 1055 1364.22> 590 132<-2 943 1055 1404>
LayerCount: 2
Back
SplineSet
186 0 m 25
 186 943 l 25
 13 943 l 25
 13 1055 l 25
 186 1055 l 25
 186 1278 l 18
 186 1488 366 1524 475 1524 c 4
 522 1524 556 1517 557 1515 c 13
 557 1404 l 21
 468 1404 l 4
 402 1403 318 1389 318 1278 c 10
 318 1055 l 25
 557 1055 l 25
 557 943 l 25
 318 943 l 25
 318 0 l 25
 186 0 l 25
590 1515 m 1
 722 1515 l 1
 722 -2 l 1
 590 -2 l 1
 590 1515 l 1
EndSplineSet
Fore
SplineSet
13 943 m 25
 13 1055 l 25
 186 1055 l 25
 186 1278 l 18
 186 1488 399 1524 508 1524 c 4
 605.862 1524 722 1515.15 722 1515 c 5
 722 -2 l 5
 590 -2 l 5
 590 943 l 13
 318 943 l 25
 318 0 l 25
 186 0 l 25
 186 943 l 25
 13 943 l 25
318 1055 m 25
 590 1055 l 21
 590 1404 l 5
 501 1404 l 4
 435 1403 318 1389 318 1278 c 10
 318 1055 l 25
EndSplineSet
EndChar

StartChar: ring
Encoding: 730 730 476
Width: 475
VWidth: 0
GlyphClass: 1
Flags: HO
HStem: 127 92<-104.228 104.695> 548 92<-105.471 104.067>
VStem: -250.5 92<270.592 495.779> 158.5 92<272.054 495.611>
LayerCount: 2
Fore
SplineSet
-254.5 384 m 0
 -254.5 525 -140.5 639 0.5 639 c 0
 141.5 639 255.5 525 255.5 384 c 0
 255.5 243 141.5 129 0.5 129 c 0
 -140.5 129 -254.5 243 -254.5 384 c 0
-158.5 384 m 0
 -158.5 297 -87.5 226 -0.5 226 c 0
 86.5 226 157.5 297 157.5 384 c 0
 157.5 471 86.5 542 -0.5 542 c 0
 -87.5 542 -158.5 471 -158.5 384 c 0
EndSplineSet
EndChar

StartChar: fraction
Encoding: 8260 8260 505
Width: 1003
VWidth: 0
GlyphClass: 1
Flags: HW
DStem2: 70 -38 179 -38 0.423384 0.90595<46.1488 1757.27>
LayerCount: 2
Back
SplineSet
814 1579 m 5
 922 1528 l 5
 179 -63 l 5
 70 -12 l 5
 814 1579 l 5
EndSplineSet
Fore
SplineSet
70 -38 m 1
 814 1554 l 1
 922 1554 l 1
 179 -38 l 1
 70 -38 l 1
EndSplineSet
EndChar

StartChar: uniFB00
Encoding: 64256 64256 610
Width: 946
VWidth: 0
GlyphClass: 1
Flags: HW
HStem: 0 21G<186 318 557 689> 943 112<13 186 318 557 689 928> 1405 119<347.62 557 718.62 928>
VStem: 186 132<0 943 1055 1378.68> 557 132<0 943 1055 1378.68>
LayerCount: 2
Back
SplineSet
186 0 m 25
 186 943 l 25
 13 943 l 25
 13 1055 l 25
 186 1055 l 25
 186 1278 l 18
 186 1488 366 1524 475 1524 c 0
 522 1524 556 1517 557 1515 c 9
 557 1403 l 17
 468 1405 l 0
 402 1404 318 1389 318 1278 c 10
 318 1055 l 25
 557 1055 l 25
 557 943 l 25
 318 943 l 25
 318 0 l 25
 186 0 l 25
557 0 m 25
 557 943 l 25
 384 943 l 25
 384 1055 l 25
 557 1055 l 25
 557 1278 l 18
 557 1488 737 1524 846 1524 c 0
 893 1524 927 1517 928 1515 c 9
 928 1403 l 17
 839 1405 l 0
 773 1404 689 1389 689 1278 c 10
 689 1055 l 25
 928 1055 l 25
 928 943 l 25
 689 943 l 25
 689 0 l 25
 557 0 l 25
EndSplineSet
Refer: 45 102 N 1 0 0 1 570 0 2
Refer: 45 102 N 1 0 0 1 0 0 2
Fore
SplineSet
13 943 m 25
 13 1055 l 25
 186 1055 l 25
 186 1278 l 18
 186 1488 361.939 1524 494 1524 c 7
 566.028 1524 637 1496 661 1479 c 1
 710 1506 762.129 1524 846 1524 c 0
 893 1524 927 1517 928 1515 c 9
 928 1403 l 17
 839 1405 l 0
 773 1404 689 1389 689 1278 c 10
 689 1055 l 25
 928 1055 l 25
 928 943 l 25
 689 943 l 25
 689 0 l 25
 557 0 l 25
 557 943 l 25
 318 943 l 25
 318 0 l 25
 186 0 l 25
 186 943 l 25
 13 943 l 25
318 1055 m 25
 557 1055 l 25
 557 1278 l 18
 557 1332.93 568 1362 578 1388.67 c 1
 561 1393 503.008 1405 464 1405 c 0
 387.474 1405 318 1376.68 318 1278 c 10
 318 1055 l 25
EndSplineSet
EndChar

StartChar: uniFB03
Encoding: 64259 64259 611
Width: 1179
VWidth: 0
GlyphClass: 1
Flags: HW
HStem: 0 19G<186 318 557 689 941 1073> 943 112<13 186 318 557 689 941> 1365 159<928 1078> 1405 119<347.62 557 718.62 928>
VStem: 186 132<0 943 1055 1378.68> 557 132<0 943 1055 1378.68> 941 132<-2 943 1365 1403>
LayerCount: 2
Back
SplineSet
941 943 m 17
 941 -1.85938 l 1
 1073 -1.85938 l 1
 1073 1055 l 1
 689 1055 l 25
 689 1278 l 18
 689 1418.86 806.508 1405.73 928 1403 c 1
 928 1365 l 1
 1078 1365 l 1
 1078 1515 l 1
 1067 1515.15 915.6 1524 846 1524 c 0
 737 1524 557 1488 557 1278 c 10
 557 1055 l 25
 384 1055 l 25
 384 943 l 25
 557 943 l 25
 557 0 l 25
 689 0 l 25
 689 943 l 25
 941 943 l 17
318 943 m 25
 318 0 l 25
 186 0 l 25
 186 943 l 25
 13 943 l 25
 13 1055 l 25
 186 1055 l 25
 186 1278 l 18
 186 1488 366 1524 475 1524 c 0
 522 1524 556 1517 557 1515 c 9
 557 1403 l 17
 468 1405 l 0
 402 1404 318 1389 318 1278 c 10
 318 1055 l 25
 557 1055 l 25
 557 1278 l 18
 557 1488 737 1524 846 1524 c 0
 893 1524 927 1517 928 1515 c 9
 928 1403 l 17
 839 1405 l 0
 773 1404 689 1389 689 1278 c 10
 689 1055 l 25
 928 1055 l 25
 928 943 l 25
 689 943 l 25
 689 0 l 25
 557 0 l 25
 557 943 l 25
 318 943 l 25
EndSplineSet
Fore
SplineSet
13 943 m 25
 13 1055 l 25
 186 1055 l 25
 186 1278 l 18
 186 1482.95 349.998 1524.07 494.108 1524.07 c 3
 579.007 1524.07 655.894 1484.1 660.996 1479.33 c 1
 702.995 1501 743.783 1524 845.961 1524 c 0
 892.955 1524 1077 1517 1078 1515 c 1
 1078 1365 l 1
 928 1365 l 1
 928 1404 l 1xee
 839 1404 l 0
 773 1403 689 1389 689 1278 c 10
 689 1055 l 25
 1073 1055 l 1
 1073 -2 l 1
 941 -2 l 1
 941 943 l 1
 689 943 l 25
 689 0 l 25
 557 0 l 25
 557 943 l 25
 318 943 l 25
 318 0 l 25
 186 0 l 25
 186 943 l 25
 13 943 l 25
318 1055 m 25
 557 1055 l 25
 557 1278 l 18
 557 1332.93 568 1362 578 1388.67 c 1
 561 1393 511.17 1405 464 1405 c 3
 387.473 1405 318 1376.68 318 1278 c 10
 318 1055 l 25
EndSplineSet
EndChar

StartChar: uniFB04
Encoding: 64260 64260 612
Width: 1312
VWidth: 0
GlyphClass: 1
Flags: HW
HStem: 0 21G<186 318 557 689 928 1060> 943 112<13 186 318 557 689 928> 1405 118.999<346.462 576.058 714.25 924.093>
VStem: 186 132<0 943 1055 1378.51> 557 132<0 943 1055 1378.51> 928 132<-2 943 1055 1404>
CounterMasks: 1 1c
LayerCount: 2
Back
SplineSet
557 1278 m 18
 557 1332.93 568 1362 578 1388.67 c 1
 561 1393 503.008 1405 464 1405 c 0
 387.474 1405 318 1376.68 318 1278 c 10
 318 1055 l 25
 557 1055 l 25
 557 1278 l 18
661 1479 m 1
 710 1506 762.129 1524 846 1524 c 0
 893 1524 927 1517 928 1515 c 9
 928 1403 l 17
 839 1405 l 0
 773 1404 689 1389 689 1278 c 10
 689 1055 l 25
 928 1055 l 25
 928 943 l 25
 689 943 l 25
 689 0 l 25
 557 0 l 25
 557 943 l 25
 318 943 l 25
 318 0 l 25
 186 0 l 25
 186 943 l 25
 13 943 l 25
 13 1055 l 25
 186 1055 l 25
 186 1278 l 18
 186 1488 395 1524 504 1524 c 0
 604.353 1524 637 1496 661 1479 c 1
EndSplineSet
Fore
SplineSet
13 943 m 25
 13 1055 l 25
 186 1055 l 25
 186 1278 l 18
 186 1488 395 1524 504 1524 c 0
 604.353 1524 643 1491 661 1479 c 1
 708 1507 778.066 1525 858 1525 c 0
 951.072 1525 1057.19 1515.16 1060 1515 c 1
 1060 -2 l 1
 928 -2 l 1
 928 943 l 9
 689 943 l 25
 689 0 l 25
 557 0 l 25
 557 943 l 25
 318 943 l 25
 318 0 l 25
 186 0 l 25
 186 943 l 25
 13 943 l 25
318 1055 m 25
 557 1055 l 25
 557 1278 l 18
 557 1332.93 568 1362 578 1388.67 c 1
 561 1393 503.008 1405 464 1405 c 0
 387.474 1405 318 1376.68 318 1278 c 10
 318 1055 l 25
689 1055 m 25
 928 1055 l 17
 928 1404 l 1
 895.676 1404 863.092 1404.11 830.942 1404.11 c 0
 724.436 1404.11 689 1346.84 689 1278 c 10
 689 1055 l 25
EndSplineSet
EndChar

StartChar: uniFB05
Encoding: 64261 64261 613
Width: 993
VWidth: 0
GlyphClass: 1
Flags: HW
HStem: -14 112<761.317 974.621> 1405 120<441.386 602>
VStem: 186 138<879 943 1055 1263.67> 602 132<127.258 273>
LayerCount: 2
Back
SplineSet
604 1405 m 17
 372 1405 324 1254 324 879 c 2
 324 0 l 9
 184 0 l 17
 186 943 l 25
 13 943 l 25
 13 1055 l 25
 186 1055 l 17
 199.043 1325.83 266.958 1525 604 1525 c 9
 604 1405 l 17
602 273 m 2
 602 942 l 1
 543 942 483 942 424 942 c 1
 424 1054 l 1
 602 1054 l 1
 602 1439 l 1
 734 1439 l 1
 734 1054 l 1
 976 1054 l 1
 976 942 l 1
 734 942 l 1
 734 273 l 2
 734 133 776 98 867 98 c 0
 899 98 976 108 976 109 c 1
 976 10 l 1
 918 -11 882 -14 819 -14 c 3
 732 -14 602 -3 602 273 c 2
EndSplineSet
Fore
SplineSet
13 943 m 25
 13 1055 l 25
 186 1055 l 17
 199.043 1325.83 266.958 1525 604 1525 c 1
 734 1525 l 1
 734 1054 l 1
 976 1054 l 1
 976 942 l 1
 734 942 l 1
 734 273 l 2
 734 133 776 98 867 98 c 0
 899 98 976 108 976 109 c 1
 976 10 l 1
 918 -11 882 -14 819 -14 c 3
 732 -14 602 -3 602 273 c 2
 602 942 l 1
 543 942 548 942 489 942 c 1
 489 1054 l 1
 602 1054 l 1
 602 1405 l 1
 370 1405 324 1254 324 879 c 2
 324 0 l 9
 184 0 l 17
 186 943 l 25
 13 943 l 25
EndSplineSet
EndChar

StartChar: uni01F7
Encoding: 503 503 615
Width: 1079
VWidth: 0
GlyphClass: 1
Flags: HW
HStem: 0 21G<135 283> 1408 124<398.389 751.695> 1495 20G<135 283>
VStem: 135 148<0 220.544 324 1306.5 1435 1515> 863 148<887.846 1298.8>
LayerCount: 2
Back
SplineSet
283 200 m 1xd4
 283 0 l 1
 135 0 l 1
 135 1515 l 1xd4
 283 1515 l 1
 283 1401.12 l 1xac
 252 1388.67 l 1
 264.501 1403.52 304 1532 573 1532 c 3
 849.029 1532 1011 1388.74 1011 1143 c 3
 1011 701.507 702 417 283 200 c 1xd4
863 1136 m 3
 863 1362 702.248 1408 573 1408 c 3
 323.968 1408 260 1200 260 1200 c 1
 283 1375 l 1xcc
 283 324 l 1
 585 537 863 731 863 1136 c 3
283 200 m 1
 283 0 l 1
 135 0 l 1
 135 1515 l 1
 282 1515 l 1
 282 1401 l 1
 272.703 1410.88 265.688 1418.68 259.499 1432.15 c 1
 294 1450 300 1515 607 1515 c 3
 900 1515 1011 1284 1011 1117 c 3
 1011 675.507 777 498 283 200 c 1
863 1110 m 0
 860.797 1304.99 683 1391 506 1391 c 7
 289.812 1391 264 1265 264 1265 c 5
 283 1300 l 1
 283 324 l 1
 708 603 867 756 863 1110 c 0
EndSplineSet
Fore
SplineSet
135 0 m 1
 135 1515 l 1
 283 1515 l 1
 283 1435 l 1xb8
 320.059 1476.86 400.15 1532 573 1532 c 3xd8
 849.029 1532 1011 1388.74 1011 1143 c 3
 1011 701.507 702 417 283 200 c 1
 283 0 l 1
 135 0 l 1
283 324 m 1
 585 537 863 731 863 1136 c 3
 863 1362 702.248 1408 573 1408 c 3
 404.248 1408 319.475 1310.58 283 1249 c 1
 283 324 l 1
EndSplineSet
EndChar

StartChar: minus
Encoding: 8722 8722 617
Width: 708
VWidth: 0
GlyphClass: 1
Flags: HW
LayerCount: 2
Fore
SplineSet
92 694 m 1
 92 786 l 1
 616 786 l 1
 616 694 l 1
 92 694 l 1
EndSplineSet
EndChar

StartChar: uni0182
Encoding: 386 386 619
Width: 1132
VWidth: 0
GlyphClass: 1
Flags: HW
LayerCount: 2
Fore
SplineSet
135 0 m 25
 135 1515 l 25
 1041 1515 l 17
 1041 1391 l 9
 283 1391 l 25
 283 850 l 25
 608 853 l 18
 852 855 1064 722.772 1064 410 c 3xf4
 1064 168 912 0 608 0 c 10
 135 0 l 25
283 124 m 25
 608 124 l 18
 722 124 924 140 924 410 c 3
 924 600 797 726 608 726 c 10
 283 726 l 25xf4
 283 124 l 25
EndSplineSet
EndChar

StartChar: uni018E
Encoding: 398 398 625
Width: 1062
VWidth: 0
GlyphClass: 1
Flags: HW
LayerCount: 2
Fore
SplineSet
135 0 m 29
 135 133 l 29
 846 133 l 29
 846 734 l 29
 363 734 l 29
 363 858 l 29
 846 858 l 29
 846 1391 l 29
 173 1391 l 29
 173 1515 l 29
 994 1515 l 29
 994 0 l 29
 135 0 l 29
EndSplineSet
EndChar

StartChar: uni0191
Encoding: 401 401 626
Width: 1024
VWidth: 0
GlyphClass: 1
Flags: HW
HStem: -176.011 102.729<-37.2665 126.523> 734 124<283 766> 1391 124<283 956>
VStem: 135 148<-65.2416 734 858 1391>
LayerCount: 2
Fore
SplineSet
-41.3301 -155.201 m 1
 -36.1836 -52.7148 l 1
 -25.4941 -57.8457 22.5 -73.2812 62.6621 -73.2812 c 3
 129.056 -73.2812 135 -24 135 0 c 10
 135 1515 l 25
 956 1515 l 25
 956 1391 l 25
 283 1391 l 25
 283 858 l 25
 766 858 l 25
 766 734 l 25
 283 734 l 25
 283 0 l 18
 283 -120 225.248 -176.011 62.3525 -176.011 c 3
 17.2012 -176.011 -25.0957 -162.259 -41.3301 -155.201 c 1
EndSplineSet
EndChar

StartChar: florin
Encoding: 402 402 627
Width: 570
VWidth: 0
GlyphClass: 1
Flags: HW
LayerCount: 2
Back
SplineSet
318 1278 m 9
 318 335 l 25
 491 335 l 25
 491 223 l 17
 318 223 l 9
 318 0 l 22
 318 -210 138 -246 29 -246 c 4
 -18 -246 -52 -239 -53 -237 c 13
 -53 -125 l 21
 36 -127 l 4
 102 -126 186 -111 186 0 c 14
 186 223 l 25
 -53 223 l 25
 -53 335 l 25
 186 335 l 25
 186 1278 l 17
 318 1278 l 9
EndSplineSet
Refer: 45 102 S 1 0 0 1 -66 -246 2
Fore
SplineSet
318 0 m 14
 318 943 l 29
 557 943 l 29
 557 1055 l 29
 318 1055 l 29
 318 1278 l 22
 318 1389 402 1403 468 1404 c 4
 557 1404 l 13
 557 1515 l 21
 556 1517 522 1524 475 1524 c 4
 366 1524 186 1488 186 1278 c 14
 186 1055 l 29
 13 1055 l 29
 13 943 l 29
 186 943 l 29
 186 0 l 22
 186 -111 102 -113 36 -114 c 4
 -53 -114 l 13
 -53 -225 l 21
 -52 -227 -18 -234 29 -234 c 4
 138 -234 318 -210 318 0 c 14
EndSplineSet
EndChar

StartChar: uni031B
Encoding: 795 795 629
Width: 350
VWidth: 0
GlyphClass: 1
Flags: HW
HStem: -222 343
VStem: 176 97.5703<-129.904 18.934>
LayerCount: 2
Fore
SplineSet
52 -175 m 22
 52 -175 173.235 -135.953 176 -54 c 4
 177.493 -9.74219 100.868 49.6367 86 58 c 5
 167 121 l 5
 192.079 105.629 273.57 41.916 273.57 -36.7266 c 4
 273.57 -143.936 117.794 -216.403 105 -222 c 13
 52 -175 l 22
EndSplineSet
EndChar

StartChar: uni019C
Encoding: 412 412 639
Width: 1577
VWidth: 0
GlyphClass: 1
Flags: HW
LayerCount: 2
Back
Refer: 49 109 S -1 0 0 -1 1587 1055 2
Fore
SplineSet
120 269 m 2
 120 1515.12 l 1
 252 1515.12 l 1
 252 269 l 2
 252 161 347 101 421 101 c 3
 540 101 649 189 727 274 c 1
 727 1515.12 l 1
 859 1515.12 l 1
 859 269 l 2
 859 161 954 101 1028 101 c 3
 1147 101 1257 189 1335 274 c 1
 1335 1515.12 l 1
 1467 1515.12 l 1
 1467 0 l 1
 1335 0 l 1
 1335 174 l 1
 1243 83 1138 -11 990 -11 c 3
 871 -11 767 47 736 182 c 1
 641 88 536 -11 383 -11 c 3
 241 -11 120 71 120 269 c 2
EndSplineSet
EndChar

StartChar: uni019E
Encoding: 414 414 640
Width: 970
VWidth: 0
GlyphClass: 1
Flags: HW
LayerCount: 2
Fore
SplineSet
120 0 m 1
 120 1055 l 1
 252 1055 l 1
 252 882 l 1
 344 973 449 1066 597 1066 c 3
 739 1066 860 984 860 786 c 2
 860 -410 l 1
 728 -410 l 1
 728 786 l 2
 728 894 633 954 559 954 c 3
 440 954 330 866 252 781 c 1
 252 0 l 1
 120 0 l 1
EndSplineSet
EndChar

StartChar: uni01A7
Encoding: 423 423 643
Width: 1033
VWidth: 0
GlyphClass: 1
Flags: HW
LayerCount: 2
Fore
SplineSet
40 385 m 3
 40 770 403 810 574 876 c 0
 688 919 806 950 806 1143 c 3
 806 1305 692 1408 529 1408 c 3
 283 1408 244 1182 222 1115 c 9
 92 1165 l 17
 117 1208 172 1532 529 1532 c 3
 794 1532 954 1325 954 1143 c 3
 954 799 596 749 384 661 c 0
 234 599 188 517 188 385 c 27
 188 232 271 108 464 108 c 7
 817 108 845 416 851 416 c 1
 988 368 l 1
 982 368 895 -16 464 -16 c 7
 130 -16 40 271 40 385 c 3
EndSplineSet
EndChar

StartChar: uni01A8
Encoding: 424 424 644
Width: 878
VWidth: 0
GlyphClass: 1
Flags: HW
HStem: -11 112<276.093 585.604> 954 112<300.82 599.947>
VStem: 80 132<162.103 389.503> 656 128<701.894 900.685>
LayerCount: 2
Fore
SplineSet
80 292 m 7
 80 505 262 561 418 608 c 4
 546 646 656 690 656 804 c 7
 656 887 576 954 460 954 c 7
 318 954 289 904 217 830 c 5
 126 898 l 5
 154 940 256 1066 452 1066 c 7
 641 1066 784 959 784 784 c 7
 784 600 601 520 462 488 c 4
 350 462 212 416 212 277 c 7
 212 137 342 101 422 101 c 7
 552 101 631 159 699 264 c 5
 798 200 l 5
 706 52 589 -11 420 -11 c 31
 242 -11 80 110 80 292 c 7
EndSplineSet
EndChar

StartChar: uni0238
Encoding: 568 568 649
Width: 1616
VWidth: 0
GlyphClass: 1
Flags: HW
HStem: -11 112<336.969 617.091 1002.45 1277.93> 954 112<352.858 624.26 991.74 1263.14> 1495 20G<742 874>
VStem: 75 132<265.028 770.201> 742 132<221.523 856.969 917 1515> 1409 132<268.081 782.711>
CounterMasks: 1 1c
LayerCount: 2
Fore
SplineSet
75 510 m 3
 75 801 228 1066 471 1066 c 3
 610 1066 724 955 742 917 c 1
 742 1515 l 1
 874 1515 l 1
 874 917 l 1
 892 955 1006 1066 1145 1066 c 0
 1388 1066 1541 836 1541 510 c 1
 1537 292 1435 -5 1158 -11 c 1
 993 -9 901 119 874 166 c 1
 870 121 872 11 849 0 c 1
 767 0 l 1
 744 11 746 121 742 166 c 1
 715 119 630 -11 458 -11 c 3
 205 -11 75 257 75 510 c 3
207 510 m 3
 207 281 284 101 479 101 c 3
 611 101 671 181 742 278 c 1
 742 803 l 1
 686 883 606 954 505 954 c 3
 357 954 207 870 207 510 c 3
874 278 m 1
 945 181 1005 101 1137 101 c 3
 1332 101 1409 281 1409 510 c 3
 1409 870 1259 954 1111 954 c 3
 1010 954 930 883 874 803 c 1
 874 278 l 1
EndSplineSet
EndChar

StartChar: uni0258
Encoding: 600 600 666
Width: 925
VWidth: 0
GlyphClass: 1
Flags: HW
LayerCount: 2
Fore
SplineSet
75 229 m 5
 166 292 l 5
 187 255 274 101 428 101 c 4
 542 102 712 175 712 513 c 5
 78 513 l 5
 78 988 298 1066 444 1066 c 7
 604 1066 844 970 844 502 c 7
 844 240 714 -11 428 -11 c 7
 242 -11 114 156 75 229 c 5
210 625 m 5
 706 625 l 5
 702 746 668 954 444 954 c 7
 254 954 212 740 210 625 c 5
EndSplineSet
EndChar

StartChar: uni0181
Encoding: 385 385 669
Width: 1132
VWidth: 0
GlyphClass: 1
Flags: HW
LayerCount: 2
Fore
SplineSet
-57.8995 1349.95 m 0
 -57.8995 1479.65 16 1515.11 135 1515 c 9
 608 1515 l 18
 854 1515 1029 1356 1029 1152 c 3xf8
 1029 891 903 837 774 800 c 1
 915 765 1064 637 1064 410 c 3xf4
 1064 168 912 0 608 0 c 10
 135 0 l 17
 135 1418.53 l 1
 60 1418 44.0691 1412.49 44.0691 1338.83 c 0
 44.0691 1310.56 47.9851 1284.63 50.1768 1276.8 c 1
 -51.6465 1289.53 l 1
 -54.3354 1300.73 -57.8995 1323.3 -57.8995 1349.95 c 0
283 124 m 25
 608 124 l 18
 722 124 924 140 924 410 c 3
 924 600 797 726 608 726 c 10
 283 726 l 25xf4
 283 124 l 25
283 850 m 25
 608 853 l 18
 695 854 895 867 895 1152 c 3xf8
 895 1309 794 1391 608 1391 c 10
 283 1391 l 25
 283 850 l 25
EndSplineSet
EndChar

StartChar: uni01BF
Encoding: 447 447 672
Width: 1022
VWidth: 0
GlyphClass: 1
Flags: HW
HStem: 0 21G<135 267> 1063.88 124<367.008 673.84>
VStem: 135 132<0 213.775 324 973.729 1101 1171> 755 132<645.425 983.116>
LayerCount: 2
Back
SplineSet
267 200 m 1xe8
 267 0 l 1
 135 0 l 5
 135 1171 l 5
 267 1171 l 1
 267 1057 l 1
 227 1055 l 1
 239.501 1069.85 307.916 1187.88 530 1187.88 c 3
 845 1187.88 887 921 887 822.88 c 3
 887 471 509 294 267 200 c 1xe8
755 815.88 m 3
 755 969 686.055 1063.88 530 1063.88 c 3
 313.812 1063.88 251 882 251 882 c 1
 267 1030.88 l 1xd8
 267 324 l 1
 395 369 755 506.767 755 815.88 c 3
EndSplineSet
Fore
SplineSet
135 0 m 1
 135 1171 l 1
 267 1171 l 1
 267 1101 l 1
 309.18 1139.51 389.211 1187.88 530 1187.88 c 3
 845 1187.88 887 921 887 822.88 c 3
 887 471 509 294 267 200 c 1
 267 0 l 1
 135 0 l 1
267 324 m 1
 395 369 755 506.767 755 815.88 c 3
 755 969 686.055 1063.88 530 1063.88 c 3
 374.75 1063.88 297.597 968.877 267 916 c 1
 267 324 l 1
EndSplineSet
EndChar

StartChar: uni0184
Encoding: 388 388 675
Width: 1163
VWidth: 0
GlyphClass: 1
Flags: HW
LayerCount: 2
Fore
SplineSet
110 678 m 6
 110 1515.12 l 5
 240 1515.12 l 5
 240 744 l 5
 266 779 354 940 587 940 c 7
 855 940 1042 759 1042 478 c 5
 1036 259 896 -11 586 -11 c 7
 290 -11 110 240 110 678 c 6
252 515 m 5
 273 204 444 114 586 114 c 7
 722 114 893 210 904 478 c 5
 904 689 774 816 587 816 c 7
 301 816 257 525 252 515 c 5
EndSplineSet
EndChar

StartChar: uni01BC
Encoding: 444 444 676
Width: 1053
VWidth: 0
GlyphClass: 1
Flags: HW
LayerCount: 2
Fore
SplineSet
-111 1381 m 5
 -111 1515.12 l 5
 870 1512 l 5
 870 1381 l 5
 256 1381 l 5
 256 931 l 5
 257 932 345 1023 500 1023 c 7
 759 1023 953 827 953 532 c 7
 953 212 760 -11 479 -11 c 7
 240 -11 85 185 60 276 c 5
 158 351 l 5
 176 295 297 119 474 119 c 7
 501 119 805 140 805 532 c 4
 805 840 613 899 492 899 c 4
 365 899 252 777 244 722 c 5
 108 722 l 5
 108 1381 l 5
 -111 1381 l 5
EndSplineSet
EndChar

StartChar: uni01AD
Encoding: 429 429 677
Width: 606
VWidth: 0
GlyphClass: 1
Flags: HW
HStem: -13 112<373.317 586.621> 943 112<36 214 346 588> 1504.28 102.73<347.741 500.267>
VStem: 214 132<128.258 943 1055 1502.26>
LayerCount: 2
Fore
SplineSet
36 943 m 1
 36 1055 l 1
 214 1055 l 1
 214 1440 l 2
 215 1579 295.3 1607.01 400.647 1607.01 c 0
 445.799 1607.01 488.095 1593.26 504.33 1586.2 c 1
 499.184 1483.71 l 1
 488.494 1488.85 440.5 1504.28 400.338 1504.28 c 0
 351.228 1504.28 346 1483 346 1440 c 2
 346 1055 l 1
 588 1055 l 1
 588 943 l 1
 346 943 l 1
 346 274 l 2
 346 134 388 99 479 99 c 0
 511 99 588 109 588 110 c 1
 588 11 l 1
 530 -10 494 -13 431 -13 c 3
 344 -13 214 -2 214 274 c 2
 214 943 l 1
 155 943 95 943 36 943 c 1
EndSplineSet
EndChar

StartChar: uni0195
Encoding: 405 405 679
Width: 1587
VWidth: 0
GlyphClass: 1
Flags: HW
LayerCount: 2
Back
SplineSet
737 346 m 5
 737 786 l 6
 737 894 642 954 568 954 c 7
 449 954 339 866 261 781 c 5
 261 0 l 5
 129 0 l 5
 129 1515 l 5
 261 1515 l 5
 261 882 l 5
 354 972 458 1066 606 1066 c 7
 748 1066 869 984 869 786 c 6
 869 274 l 5
 947 189 1057 101 1176 101 c 7
 1250 101 1345 161 1345 269 c 6
 1345 1055 l 5
 1477 1055 l 5
 1477 269 l 6
 1477 71 1356 -11 1214 -11 c 7
 1066 -11 962 83 869 174 c 5
 737 346 l 5
EndSplineSet
Fore
SplineSet
737 346 m 3
 737 518 737 786 737 786 c 2
 737 894 642 954 568 954 c 3
 449 954 339 866 261 781 c 1
 261 0 l 1
 129 0 l 1
 129 1515 l 1
 261 1515 l 1
 261 882 l 1
 354 972 458 1066 606 1066 c 3
 748 1066 869 984 869 786 c 2
 869 786 869 538 869 338 c 3
 869 141.997 1041 101 1160 101 c 3
 1234 101 1345 230 1345 338 c 2
 1345 1055 l 1
 1477 1055 l 1
 1477 338 l 2
 1477 140 1302 -11 1160 -11 c 3
 929.632 -11 737 75.4653 737 346 c 3
EndSplineSet
EndChar

StartChar: uni0195
Encoding: 405 405 680
Width: 1587
VWidth: 0
Flags: HW
HStem: -11 112<958.455 1248.44> 954 112<439.419 678.55> 1495 20G<129 261>
VStem: 129 132<0 824.632 882 1515> 737 132<189.656 892.583> 1346.64 132.246<194.204 802.493>
LayerCount: 2
Back
SplineSet
737 346 m 5
 737 786 l 6
 737 894 642 954 568 954 c 7
 449 954 339 866 261 781 c 5
 261 0 l 5
 129 0 l 5
 129 1515 l 5
 261 1515 l 5
 261 882 l 5
 354 972 458 1066 606 1066 c 7
 748 1066 869 984 869 786 c 6
 869 274 l 5
 947 189 1057 101 1176 101 c 7
 1250 101 1345 161 1345 269 c 6
 1345 1055 l 5
 1477 1055 l 5
 1477 269 l 6
 1477 71 1356 -11 1214 -11 c 7
 1066 -11 962 83 869 174 c 5
 737 346 l 5
EndSplineSet
Fore
SplineSet
129 0 m 5
 129 1515 l 5
 261 1515 l 5
 261 882 l 5
 354 972 458 1066 606 1066 c 7
 841.845 1066 873.032 854.157 873.032 607.434 c 4
 873.032 569.015 872.62 531.392 872.62 495.1 c 4
 872.62 273.168 888.009 101 1107 101 c 7
 1207.96 101 1346.64 165.215 1346.64 336 c 4
 1346.64 586.333 1311 805 1270 1055 c 5
 1401 1055 l 5
 1443 811 1478.89 594.032 1478.89 336 c 4
 1478.89 104.829 1298.28 -11 1107 -11 c 7
 761.691 -11 744.723 197.246 744.723 511.16 c 4
 744.723 545.373 744.924 580.842 744.924 617.434 c 4
 744.924 794.165 718.365 954 568 954 c 7
 449 954 339 866 261 781 c 5
 261 0 l 5
 129 0 l 5
EndSplineSet
EndChar

StartChar: uni01A6
Encoding: 422 422 681
Width: 1093
VWidth: 0
GlyphClass: 1
Flags: HW
LayerCount: 2
Back
SplineSet
135 0 m 1
 135 1515 l 1
 645 1515 l 2
 938 1515 1068 1284 1068 1117 c 0
 1068 952 995 762 776 716 c 1
 1062 0 l 5
 900 0 l 5
 624 692 l 1
 283 692 l 1
 283 0 l 1
 135 0 l 1
920 1110 m 0
 920 1305 758 1391 554 1391 c 2
 283 1391 l 1
 283 816 l 1
 408 816 659 816 659 816 c 2
 791 816 920 896 920 1110 c 0
EndSplineSet
Fore
SplineSet
135 0 m 1
 135 1648 l 1
 283 1648 l 1
 283 1514 l 1
 645 1514 l 2
 938 1514 1068 1284 1068 1117 c 0
 1068 952 995 762 776 716 c 1
 1227 -414 l 5
 1065 -414 l 1
 624 692 l 1
 283 692 l 1
 283 0 l 1
 135 0 l 1
283 816 m 1
 408 816 659 816 659 816 c 2
 791 816 920 896 920 1110 c 0
 920 1305 758 1391 554 1391 c 2
 283 1391 l 1
 283 816 l 1
EndSplineSet
EndChar

StartChar: uni01A2
Encoding: 418 418 682
Width: 1582
VWidth: 0
GlyphClass: 1
Flags: HW
HStem: -16 124<473.688 805.416> 1408 124<467.481 805.109> 1413 120<1062.73 1281.1>
VStem: 80 148<440.753 1082.62> 1035 148<421.963 1076.97> 1354 148<1212 1336.69>
LayerCount: 2
Fore
SplineSet
228 752 m 0
 228 414 343 108 641 108 c 0
 951 108 1035 459 1035 752 c 0
 1035 1047 952 1408 641 1408 c 0
 332 1408 228 1093 228 752 c 0
80 752 m 0
 80 1127 234 1532 641 1532 c 0
 762.011 1532 860.108 1492.05 937.861 1426.03 c 1
 975.251 1471.78 1049.72 1533 1183 1533 c 0
 1383.09 1533 1502 1388.67 1502 1212 c 2
 1502 3.18457 l 1
 1354 3.18457 l 1
 1354 1212 l 2
 1354 1314 1273.01 1413 1183 1413 c 0
 1110.31 1413 1054.78 1368.5 1022.32 1334.15 c 1
 1134.59 1179.89 1183 957.982 1183 752 c 0
 1183 378 1034 -16 641 -16 c 0
 258 -16 80 381 80 752 c 0
EndSplineSet
EndChar

StartChar: dagger
Encoding: 8224 8224 683
Width: 330
VWidth: 0
GlyphClass: 1
Flags: HW
HStem: 1495.12 20G<110 220>
VStem: 110 110<-132 1515.12>
LayerCount: 2
Fore
SplineSet
-219 1015 m 1
 -219 1107 l 1
 549 1107 l 1
 549 1015 l 1
 -219 1015 l 1
110 -132 m 1
 110 1515 l 1
 220 1515 l 1
 220 -132 l 1
 110 -132 l 1
EndSplineSet
EndChar

StartChar: daggerdbl
Encoding: 8225 8225 684
Width: 330
VWidth: 0
GlyphClass: 1
Flags: HW
LayerCount: 2
Fore
SplineSet
-219 387 m 1
 -219 479 l 1
 549 479 l 1
 549 387 l 1
 -219 387 l 1
-219 1015 m 1
 -219 1107 l 1
 549 1107 l 1
 549 1015 l 1
 -219 1015 l 1
110 -132 m 1
 110 1515 l 1
 220 1515 l 1
 220 -132 l 1
 110 -132 l 1
EndSplineSet
EndChar

StartChar: bullet
Encoding: 8226 8226 685
Width: 688
VWidth: 0
GlyphClass: 1
Flags: HW
LayerCount: 2
Fore
SplineSet
185 675 m 0
 185 760 255 839 345 839 c 0
 434 839 502 758 502 675 c 0
 502 592 434 510 345 510 c 0
 251 510 185 592 185 675 c 0
EndSplineSet
EndChar

StartChar: uniEFFD
Encoding: 61437 61437 686
Width: 1382
VWidth: 0
GlyphClass: 1
Flags: HW
LayerCount: 2
Fore
SplineSet
92 258 m 27
 92 385 131 532 267 532 c 3
 396 532 433 386 433 258 c 3
 433 133 398 -4 267 -4 c 3
 133 -4 92 135 92 258 c 27
144 258 m 3
 144 140 168 39 267 39 c 3
 369 39 382 135 382 258 c 3
 382 374 365 489 267 489 c 3
 168 489 144 377 144 258 c 3
457 0 m 1
 457 52 l 1
 509 52 l 1
 509 0 l 1
 457 0 l 1
558 0 m 17
 558 65 558 120 724 243 c 0
 786 289 842 316 842 390 c 27
 842 446 812 488 738 488 c 3
 656 488 626 423 624 381 c 9
 573 381 l 17
 573 472 656 534 745 534 c 3
 826 534 894 471 894 390 c 27
 894 298 816 254 752 203 c 0
 707 167 619 94 614 49 c 9
 886 49 l 25
 886 0 l 25
 558 0 l 17
949 258 m 27
 949 385 987 532 1123 532 c 3
 1252 532 1290 386 1290 258 c 3
 1290 133 1254 -4 1123 -4 c 3
 989 -4 949 135 949 258 c 27
1000 258 m 3
 1000 140 1024 39 1123 39 c 3
 1225 39 1238 135 1238 258 c 3
 1238 374 1221 489 1123 489 c 3
 1024 489 1000 377 1000 258 c 3
EndSplineSet
EndChar

StartChar: uniF000
Encoding: 61440 61440 687
Width: 977
VWidth: 1000
GlyphClass: 1
Flags: HW
LayerCount: 2
Fore
SplineSet
73 31 m 1
 73 329 l 1
 102 329 l 1
 102 31 l 1
 73 31 l 1
73 363 m 1
 73 661 l 1
 102 661 l 1
 102 363 l 1
 73 363 l 1
102 0 m 1
 102 29 l 1
 411 29 l 1
 411 0 l 1
 102 0 l 1
102 332 m 1
 102 361 l 1
 411 361 l 1
 411 332 l 1
 102 332 l 1
102 664 m 1
 102 693 l 1
 411 693 l 1
 411 664 l 1
 102 664 l 1
411 31 m 1
 411 329 l 1
 440 329 l 1
 440 31 l 1
 411 31 l 1
411 363 m 1
 411 661 l 1
 440 661 l 1
 440 363 l 1
 411 363 l 1
537 31 m 1
 537 329 l 1
 566 329 l 1
 566 31 l 1
 537 31 l 1
537 363 m 1
 537 661 l 1
 566 661 l 1
 566 363 l 1
 537 363 l 1
566 0 m 1
 566 29 l 1
 874 29 l 1
 874 0 l 1
 566 0 l 1
566 332 m 1
 566 361 l 1
 874 361 l 1
 874 332 l 1
 566 332 l 1
566 664 m 1
 566 693 l 1
 874 693 l 1
 874 664 l 1
 566 664 l 1
874 31 m 1
 874 329 l 1
 903 329 l 1
 903 31 l 1
 874 31 l 1
874 363 m 1
 874 661 l 1
 903 661 l 1
 903 363 l 1
 874 363 l 1
EndSplineSet
EndChar

